{"glyphs":{"0":{"ha":531,"x_min":0,"x_max":0,"o":"m 372 0 l 372 103 l 475 103 l 475 729 l 372 729 l 372 832 l 158 832 l 158 729 l 56 729 l 56 103 l 158 103 l 158 0 z m 363 113 l 167 113 l 167 719 l 363 719 z "},"1":{"ha":325,"x_min":0,"x_max":0,"o":"m 269 0 l 269 832 l 158 832 l 158 729 l 56 729 l 56 617 l 158 617 l 158 0 z "},"2":{"ha":531,"x_min":0,"x_max":0,"o":"m 475 0 l 475 113 l 167 113 l 167 206 l 269 206 l 269 411 l 372 411 l 372 514 l 475 514 l 475 729 l 372 729 l 372 832 l 158 832 l 158 729 l 56 729 l 56 617 l 167 617 l 167 719 l 363 719 l 363 524 l 260 524 l 260 421 l 158 421 l 158 215 l 56 215 l 56 0 z "},"3":{"ha":531,"x_min":0,"x_max":0,"o":"m 372 0 l 372 103 l 475 103 l 475 421 l 372 421 l 372 514 l 475 514 l 475 729 l 372 729 l 372 832 l 158 832 l 158 729 l 56 729 l 56 617 l 167 617 l 167 719 l 363 719 l 363 524 l 158 524 l 158 411 l 363 411 l 363 113 l 167 113 l 167 215 l 56 215 l 56 103 l 158 103 l 158 0 z "},"4":{"ha":603,"x_min":0,"x_max":0,"o":"m 463 0 l 463 206 l 565 206 l 565 318 l 463 318 l 463 832 l 350 832 l 350 729 l 247 729 l 247 626 l 146 626 l 146 421 l 43 421 l 43 206 l 350 206 l 350 0 z m 350 318 l 154 318 l 154 411 l 257 411 l 257 617 l 350 617 z "},"5":{"ha":531,"x_min":0,"x_max":0,"o":"m 372 0 l 372 103 l 475 103 l 475 524 l 372 524 l 372 626 l 167 626 l 167 719 l 475 719 l 475 832 l 56 832 l 56 514 l 363 514 l 363 113 l 167 113 l 167 318 l 56 318 l 56 103 l 158 103 l 158 0 z "},"6":{"ha":531,"x_min":0,"x_max":0,"o":"m 475 103 l 475 524 l 372 524 l 372 626 l 167 626 l 167 719 l 372 719 l 372 832 l 158 832 l 158 729 l 56 729 l 56 103 l 158 103 l 158 0 l 372 0 l 372 103 z m 363 113 l 167 113 l 167 514 l 363 514 z "},"7":{"ha":531,"x_min":0,"x_max":0,"o":"m 269 0 l 269 308 l 372 308 l 372 617 l 475 617 l 475 832 l 56 832 l 56 719 l 363 719 l 363 626 l 260 626 l 260 318 l 158 318 l 158 0 z "},"8":{"ha":531,"x_min":0,"x_max":0,"o":"m 372 0 l 372 103 l 475 103 l 475 421 l 372 421 l 372 514 l 475 514 l 475 729 l 372 729 l 372 832 l 158 832 l 158 729 l 56 729 l 56 514 l 158 514 l 158 421 l 56 421 l 56 103 l 158 103 l 158 0 z m 363 113 l 167 113 l 167 411 l 363 411 z m 363 524 l 167 524 l 167 719 l 363 719 z "},"9":{"ha":531,"x_min":0,"x_max":0,"o":"m 372 0 l 372 103 l 475 103 l 475 729 l 372 729 l 372 832 l 158 832 l 158 729 l 56 729 l 56 411 l 158 411 l 158 308 l 363 308 l 363 113 l 160 113 l 160 215 l 56 215 l 56 103 l 158 103 l 158 0 z m 363 421 l 167 421 l 167 719 l 363 719 z "},"\u0000":{"ha":0,"x_min":0,"x_max":0,"o":""}," ":{"ha":256,"x_min":0,"x_max":0,"o":""},"\u0017":{"ha":256,"x_min":0,"x_max":0,"o":""},"!":{"ha":258,"x_min":0,"x_max":0,"o":"m 189 206 l 189 832 l 76 832 l 76 206 z m 189 0 l 189 113 l 76 113 l 76 0 z "},"\"":{"ha":394,"x_min":0,"x_max":0,"o":"m 156 617 l 156 935 l 43 935 l 43 617 z m 353 617 l 353 935 l 240 935 l 240 617 z "},"#":{"ha":633,"x_min":0,"x_max":0,"o":"m 475 192 l 475 308 l 578 308 l 578 421 l 475 421 l 475 514 l 578 514 l 578 626 l 475 626 l 475 729 l 363 729 l 363 626 l 269 626 l 269 729 l 158 729 l 158 626 l 56 626 l 56 514 l 158 514 l 158 421 l 56 421 l 56 308 l 158 308 l 158 206 l 269 206 l 269 308 l 363 308 l 363 192 z m 363 421 l 269 421 l 269 514 l 363 514 z "},"$":{"ha":633,"x_min":0,"x_max":0,"o":"m 372 -206 l 372 0 l 475 0 l 475 103 l 578 103 l 578 318 l 475 318 l 475 421 l 372 421 l 372 617 l 465 617 l 465 514 l 578 514 l 578 626 l 475 626 l 475 729 l 372 729 l 372 832 l 260 832 l 260 729 l 158 729 l 158 626 l 56 626 l 56 514 l 158 514 l 158 411 l 260 411 l 260 113 l 167 113 l 167 318 l 56 318 l 56 103 l 158 103 l 158 0 l 260 0 l 260 -206 z m 465 113 l 372 113 l 372 308 l 465 308 z m 260 524 l 167 524 l 167 617 l 260 617 z "},"%":{"ha":1044,"x_min":0,"x_max":0,"o":"m 886 0 l 886 103 l 989 103 l 989 318 l 886 318 l 886 421 l 681 421 l 681 617 l 776 617 l 776 729 l 671 729 l 671 626 l 568 626 l 568 421 l 475 421 l 475 626 l 383 626 l 383 729 l 158 729 l 158 626 l 56 626 l 56 411 l 158 411 l 158 308 l 363 308 l 363 113 l 260 113 l 260 0 l 372 0 l 372 103 l 475 103 l 475 308 l 568 308 l 568 103 l 671 103 l 671 0 z m 363 421 l 167 421 l 167 617 l 363 617 z m 876 113 l 681 113 l 681 308 l 876 308 z m 671 318 l 578 318 l 578 411 l 671 411 z m 465 318 l 372 318 l 372 411 l 465 411 z "},"&":{"ha":736,"x_min":0,"x_max":0,"o":"m 681 0 l 681 215 l 578 215 l 578 308 l 681 308 l 681 524 l 568 524 l 568 318 l 475 318 l 475 421 l 372 421 l 372 514 l 475 514 l 475 729 l 372 729 l 372 832 l 158 832 l 158 729 l 56 729 l 56 514 l 158 514 l 158 421 l 56 421 l 56 103 l 158 103 l 158 0 l 372 0 l 372 103 l 475 103 l 475 206 l 568 206 l 568 0 z m 465 215 l 363 215 l 363 113 l 167 113 l 167 411 l 363 411 l 363 308 l 465 308 z m 363 524 l 167 524 l 167 719 l 363 719 z "},"'":{"ha":197,"x_min":0,"x_max":0,"o":"m 156 617 l 156 935 l 43 935 l 43 617 z "},"(":{"ha":453,"x_min":0,"x_max":0,"o":"m 397 -206 l 397 -93 l 294 -93 l 294 113 l 192 113 l 192 719 l 294 719 l 294 925 l 397 925 l 397 1036 l 286 1036 l 286 935 l 183 935 l 183 729 l 81 729 l 81 103 l 183 103 l 183 -103 l 286 -103 l 286 -206 z "},")":{"ha":474,"x_min":0,"x_max":0,"o":"m 167 -206 l 167 -103 l 269 -103 l 269 103 l 372 103 l 372 729 l 269 729 l 269 935 l 167 935 l 167 1036 l 56 1036 l 56 925 l 158 925 l 158 719 l 260 719 l 260 113 l 158 113 l 158 -93 l 56 -93 l 56 -206 z "},"*":{"ha":428,"x_min":0,"x_max":0,"o":"m 372 206 l 372 318 l 269 318 l 269 411 l 372 411 l 372 524 l 260 524 l 260 421 l 167 421 l 167 524 l 56 524 l 56 411 l 158 411 l 158 318 l 56 318 l 56 206 l 167 206 l 167 308 l 260 308 l 260 206 z "},"+":{"ha":633,"x_min":0,"x_max":0,"o":"m 372 103 l 372 308 l 578 308 l 578 421 l 372 421 l 372 626 l 260 626 l 260 421 l 56 421 l 56 308 l 260 308 l 260 103 z "},",":{"ha":325,"x_min":0,"x_max":0,"o":"m 167 -206 l 167 -103 l 269 -103 l 269 113 l 158 113 l 158 -93 l 56 -93 l 56 -206 z "},"-":{"ha":388,"x_min":0,"x_max":0,"o":"m 353 308 l 353 421 l 35 421 l 35 308 z "},".":{"ha":222,"x_min":0,"x_max":0,"o":"m 167 0 l 167 113 l 56 113 l 56 0 z "},"/":{"ha":531,"x_min":0,"x_max":0,"o":"m 167 0 l 167 206 l 269 206 l 269 411 l 372 411 l 372 617 l 475 617 l 475 832 l 363 832 l 363 626 l 260 626 l 260 421 l 158 421 l 158 215 l 56 215 l 56 0 z "},":":{"ha":222,"x_min":0,"x_max":0,"o":"m 167 411 l 167 524 l 56 524 l 56 411 z m 167 0 l 167 113 l 56 113 l 56 0 z "},";":{"ha":325,"x_min":0,"x_max":0,"o":"m 167 -206 l 167 -103 l 269 -103 l 269 113 l 158 113 l 158 -93 l 56 -93 l 56 -206 z m 269 411 l 269 524 l 158 524 l 158 411 z "},"<":{"ha":428,"x_min":0,"x_max":0,"o":"m 372 103 l 372 215 l 269 215 l 269 318 l 167 318 l 167 411 l 269 411 l 269 514 l 372 514 l 372 626 l 260 626 l 260 524 l 158 524 l 158 421 l 56 421 l 56 308 l 158 308 l 158 206 l 260 206 l 260 103 z "},"=":{"ha":633,"x_min":0,"x_max":0,"o":"m 578 411 l 578 524 l 56 524 l 56 411 z m 578 206 l 578 318 l 56 318 l 56 206 z "},">":{"ha":428,"x_min":0,"x_max":0,"o":"m 167 103 l 167 206 l 269 206 l 269 308 l 372 308 l 372 421 l 269 421 l 269 524 l 167 524 l 167 626 l 56 626 l 56 514 l 158 514 l 158 411 l 260 411 l 260 318 l 158 318 l 158 215 l 56 215 l 56 103 z "},"?":{"ha":531,"x_min":0,"x_max":0,"o":"m 269 206 l 269 411 l 372 411 l 372 514 l 475 514 l 475 729 l 372 729 l 372 832 l 158 832 l 158 729 l 56 729 l 56 514 l 167 514 l 167 719 l 363 719 l 363 524 l 260 524 l 260 421 l 158 421 l 158 206 z m 269 0 l 269 113 l 158 113 l 158 0 z "},"@":{"ha":839,"x_min":0,"x_max":0,"o":"m 681 0 l 681 113 l 269 113 l 269 215 l 167 215 l 167 719 l 671 719 l 671 318 l 578 318 l 578 524 l 475 524 l 475 626 l 363 626 l 363 524 l 260 524 l 260 308 l 363 308 l 363 206 l 681 206 l 681 308 l 783 308 l 783 729 l 681 729 l 681 832 l 158 832 l 158 729 l 56 729 l 56 206 l 158 206 l 158 103 l 260 103 l 260 0 z m 465 318 l 372 318 l 372 514 l 465 514 z "},"A":{"ha":736,"x_min":0,"x_max":0,"o":"m 681 0 l 681 318 l 578 318 l 578 626 l 475 626 l 475 832 l 260 832 l 260 626 l 158 626 l 158 318 l 56 318 l 56 0 l 167 0 l 167 308 l 568 308 l 568 0 z m 465 421 l 269 421 l 269 617 l 465 617 z "},"B":{"ha":633,"x_min":0,"x_max":0,"o":"m 475 0 l 475 103 l 578 103 l 578 421 l 475 421 l 475 514 l 578 514 l 578 729 l 475 729 l 475 832 l 56 832 l 56 0 z m 465 524 l 167 524 l 167 719 l 465 719 z m 465 113 l 167 113 l 167 411 l 465 411 z "},"C":{"ha":633,"x_min":0,"x_max":0,"o":"m 475 0 l 475 103 l 578 103 l 578 215 l 465 215 l 465 113 l 167 113 l 167 719 l 465 719 l 465 617 l 578 617 l 578 729 l 475 729 l 475 832 l 158 832 l 158 729 l 56 729 l 56 103 l 158 103 l 158 0 z "},"D":{"ha":633,"x_min":0,"x_max":0,"o":"m 578 206 l 578 626 l 475 626 l 475 729 l 372 729 l 372 832 l 56 832 l 56 0 l 372 0 l 372 103 l 475 103 l 475 206 z m 465 215 l 363 215 l 363 113 l 167 113 l 167 719 l 363 719 l 363 617 l 465 617 z "},"E":{"ha":524,"x_min":0,"x_max":0,"o":"m 475 0 l 475 113 l 167 113 l 167 411 l 475 411 l 475 524 l 167 524 l 167 719 l 475 719 l 475 832 l 56 832 l 56 0 z "},"F":{"ha":500,"x_min":0,"x_max":0,"o":"m 167 0 l 167 411 l 372 411 l 372 524 l 167 524 l 167 719 l 475 719 l 475 832 l 56 832 l 56 0 z "},"G":{"ha":633,"x_min":0,"x_max":0,"o":"m 578 0 l 578 524 l 260 524 l 260 411 l 465 411 l 465 215 l 363 215 l 363 113 l 167 113 l 167 719 l 465 719 l 465 617 l 578 617 l 578 729 l 475 729 l 475 832 l 158 832 l 158 729 l 56 729 l 56 103 l 158 103 l 158 0 l 372 0 l 372 103 l 465 103 l 465 0 z "},"H":{"ha":633,"x_min":0,"x_max":0,"o":"m 578 0 l 578 832 l 465 832 l 465 524 l 167 524 l 167 832 l 56 832 l 56 0 l 167 0 l 167 411 l 465 411 l 465 0 z "},"I":{"ha":222,"x_min":0,"x_max":0,"o":"m 167 0 l 167 832 l 56 832 l 56 0 z "},"J":{"ha":511,"x_min":0,"x_max":0,"o":"m 354 0 l 354 103 l 457 103 l 457 832 l 344 832 l 344 113 l 149 113 l 149 318 l 36 318 l 36 103 l 139 103 l 139 0 z "},"K":{"ha":608,"x_min":0,"x_max":0,"o":"m 578 0 l 578 113 l 475 113 l 475 318 l 372 318 l 372 524 l 269 524 l 269 617 l 372 617 l 372 719 l 475 719 l 475 832 l 363 832 l 363 729 l 260 729 l 260 626 l 167 626 l 167 832 l 56 832 l 56 0 l 167 0 l 167 514 l 260 514 l 260 308 l 363 308 l 363 103 l 465 103 l 465 0 z "},"L":{"ha":493,"x_min":0,"x_max":0,"o":"m 475 0 l 475 113 l 167 113 l 167 832 l 56 832 l 56 0 z "},"M":{"ha":839,"x_min":0,"x_max":0,"o":"m 783 0 l 783 832 l 671 832 l 671 626 l 568 626 l 568 421 l 465 421 l 465 215 l 372 215 l 372 421 l 269 421 l 269 626 l 167 626 l 167 832 l 56 832 l 56 0 l 167 0 l 167 411 l 260 411 l 260 206 l 363 206 l 363 0 l 475 0 l 475 206 l 571 206 l 571 411 l 671 411 l 671 0 z "},"N":{"ha":633,"x_min":0,"x_max":0,"o":"m 578 0 l 578 832 l 465 832 l 465 318 l 372 318 l 372 524 l 269 524 l 269 729 l 167 729 l 167 832 l 56 832 l 56 0 l 167 0 l 167 514 l 260 514 l 260 308 l 363 308 l 363 103 l 465 103 l 465 0 z "},"O":{"ha":633,"x_min":0,"x_max":0,"o":"m 475 0 l 475 103 l 578 103 l 578 729 l 475 729 l 475 832 l 158 832 l 158 729 l 56 729 l 56 103 l 158 103 l 158 0 z m 465 113 l 167 113 l 167 719 l 465 719 z "},"P":{"ha":633,"x_min":0,"x_max":0,"o":"m 167 0 l 167 411 l 475 411 l 475 514 l 578 514 l 578 729 l 475 729 l 475 832 l 56 832 l 56 0 z m 465 524 l 167 524 l 167 719 l 465 719 z "},"Q":{"ha":633,"x_min":0,"x_max":0,"o":"m 578 0 l 578 113 l 475 113 l 475 206 l 578 206 l 578 729 l 475 729 l 475 832 l 158 832 l 158 729 l 56 729 l 56 103 l 158 103 l 158 0 l 372 0 l 372 103 l 465 103 l 465 0 z m 465 215 l 372 215 l 372 318 l 260 318 l 260 206 l 363 206 l 363 113 l 167 113 l 167 719 l 465 719 z "},"R":{"ha":633,"x_min":0,"x_max":0,"o":"m 578 0 l 578 215 l 475 215 l 475 514 l 578 514 l 578 729 l 475 729 l 475 832 l 56 832 l 56 0 l 167 0 l 167 411 l 363 411 l 363 206 l 465 206 l 465 0 z m 465 524 l 167 524 l 167 719 l 465 719 z "},"S":{"ha":633,"x_min":0,"x_max":0,"o":"m 475 0 l 475 103 l 578 103 l 578 421 l 475 421 l 475 524 l 167 524 l 167 719 l 465 719 l 465 617 l 578 617 l 578 729 l 475 729 l 475 832 l 158 832 l 158 729 l 56 729 l 56 514 l 158 514 l 158 411 l 465 411 l 465 113 l 167 113 l 167 318 l 56 318 l 56 103 l 158 103 l 158 0 z "},"T":{"ha":568,"x_min":0,"x_max":0,"o":"m 340 0 l 340 719 l 546 719 l 546 832 l 22 832 l 22 719 l 228 719 l 228 0 z "},"U":{"ha":633,"x_min":0,"x_max":0,"o":"m 475 0 l 475 103 l 578 103 l 578 832 l 465 832 l 465 113 l 167 113 l 167 832 l 56 832 l 56 103 l 158 103 l 158 0 z "},"V":{"ha":736,"x_min":0,"x_max":0,"o":"m 475 0 l 475 206 l 578 206 l 578 514 l 681 514 l 681 832 l 568 832 l 568 524 l 465 524 l 465 215 l 269 215 l 269 524 l 167 524 l 167 832 l 56 832 l 56 514 l 158 514 l 158 206 l 260 206 l 260 0 z "},"W":{"ha":839,"x_min":0,"x_max":0,"o":"m 578 0 l 578 206 l 681 206 l 681 514 l 783 514 l 783 832 l 671 832 l 671 524 l 568 524 l 568 215 l 475 215 l 475 832 l 363 832 l 363 215 l 269 215 l 269 524 l 167 524 l 167 832 l 56 832 l 56 514 l 158 514 l 158 206 l 260 206 l 260 0 l 372 0 l 372 206 l 465 206 l 465 0 z "},"X":{"ha":633,"x_min":0,"x_max":0,"o":"m 578 0 l 578 215 l 475 215 l 475 421 l 372 421 l 372 514 l 475 514 l 475 719 l 578 719 l 578 832 l 465 832 l 465 729 l 363 729 l 363 524 l 269 524 l 269 729 l 167 729 l 167 832 l 56 832 l 56 719 l 158 719 l 158 514 l 260 514 l 260 421 l 158 421 l 158 215 l 56 215 l 56 0 l 167 0 l 167 206 l 269 206 l 269 411 l 363 411 l 363 206 l 465 206 l 465 0 z "},"Y":{"ha":633,"x_min":0,"x_max":0,"o":"m 372 0 l 372 514 l 475 514 l 475 719 l 578 719 l 578 832 l 465 832 l 465 729 l 363 729 l 363 524 l 269 524 l 269 729 l 167 729 l 167 832 l 56 832 l 56 719 l 158 719 l 158 514 l 260 514 l 260 0 z "},"Z":{"ha":531,"x_min":0,"x_max":0,"o":"m 475 0 l 475 113 l 167 113 l 167 206 l 269 206 l 269 411 l 372 411 l 372 617 l 475 617 l 475 832 l 56 832 l 56 719 l 363 719 l 363 626 l 260 626 l 260 421 l 158 421 l 158 215 l 56 215 l 56 0 z "},"[":{"ha":325,"x_min":0,"x_max":0,"o":"m 269 0 l 269 113 l 167 113 l 167 719 l 269 719 l 269 832 l 56 832 l 56 0 z "},"\\":{"ha":531,"x_min":0,"x_max":0,"o":"m 475 0 l 475 215 l 372 215 l 372 421 l 269 421 l 269 626 l 167 626 l 167 832 l 56 832 l 56 617 l 158 617 l 158 411 l 260 411 l 260 206 l 363 206 l 363 0 z "},"]":{"ha":325,"x_min":0,"x_max":0,"o":"m 269 0 l 269 832 l 56 832 l 56 719 l 158 719 l 158 113 l 56 113 l 56 0 z "},"^":{"ha":633,"x_min":0,"x_max":0,"o":"m 578 411 l 578 524 l 475 524 l 475 626 l 372 626 l 372 729 l 260 729 l 260 626 l 158 626 l 158 524 l 56 524 l 56 411 l 167 411 l 167 514 l 269 514 l 269 617 l 363 617 l 363 514 l 465 514 l 465 411 z "},"_":{"ha":633,"x_min":0,"x_max":0,"o":"m 578 -103 l 578 10 l 56 10 l 56 -103 z "},"`":{"ha":325,"x_min":0,"x_max":0,"o":"m 311 722 l 311 833 l 208 833 l 208 936 l 97 936 l 97 825 l 200 825 l 200 722 z "},"a":{"ha":614,"x_min":0,"x_max":0,"o":"m 568 0 l 568 113 l 465 113 l 465 524 l 363 524 l 363 626 l 149 626 l 149 514 l 354 514 l 354 421 l 149 421 l 149 318 l 46 318 l 46 103 l 149 103 l 149 0 l 363 0 l 363 103 l 457 103 l 457 0 z m 354 113 l 158 113 l 158 308 l 354 308 z "},"b":{"ha":525,"x_min":0,"x_max":0,"o":"m 475 103 l 475 524 l 372 524 l 372 626 l 167 626 l 167 832 l 56 832 l 56 0 l 372 0 l 372 103 z m 363 113 l 167 113 l 167 514 l 363 514 z "},"c":{"ha":521,"x_min":0,"x_max":0,"o":"m 372 0 l 372 103 l 475 103 l 475 215 l 363 215 l 363 113 l 167 113 l 167 514 l 363 514 l 363 411 l 475 411 l 475 524 l 372 524 l 372 626 l 158 626 l 158 524 l 56 524 l 56 103 l 158 103 l 158 0 z "},"d":{"ha":525,"x_min":0,"x_max":0,"o":"m 469 0 l 469 832 l 357 832 l 357 626 l 151 626 l 151 524 l 49 524 l 49 103 l 151 103 l 151 0 z m 357 113 l 161 113 l 161 514 l 357 514 z "},"e":{"ha":531,"x_min":0,"x_max":0,"o":"m 372 0 l 372 103 l 475 103 l 475 215 l 363 215 l 363 113 l 167 113 l 167 308 l 475 308 l 475 524 l 372 524 l 372 626 l 158 626 l 158 524 l 56 524 l 56 103 l 158 103 l 158 0 z m 363 421 l 167 421 l 167 514 l 363 514 z "},"f":{"ha":410,"x_min":0,"x_max":0,"o":"m 269 0 l 269 514 l 372 514 l 372 626 l 269 626 l 269 719 l 372 719 l 372 832 l 260 832 l 260 729 l 158 729 l 158 626 l 56 626 l 56 514 l 158 514 l 158 0 z "},"g":{"ha":525,"x_min":0,"x_max":0,"o":"m 367 -308 l 367 -206 l 469 -206 l 469 626 l 151 626 l 151 524 l 49 524 l 49 103 l 151 103 l 151 0 l 357 0 l 357 -196 l 161 -196 l 161 -93 l 49 -93 l 49 -206 l 151 -206 l 151 -308 z m 357 113 l 161 113 l 161 514 l 357 514 z "},"h":{"ha":528,"x_min":0,"x_max":0,"o":"m 475 0 l 475 524 l 372 524 l 372 626 l 167 626 l 167 832 l 56 832 l 56 0 l 167 0 l 167 514 l 363 514 l 363 0 z "},"i":{"ha":236,"x_min":0,"x_max":0,"o":"m 176 0 l 176 626 l 64 626 l 64 0 z m 176 719 l 176 832 l 64 832 l 64 719 z "},"j":{"ha":286,"x_min":0,"x_max":0,"o":"m 129 -308 l 129 -206 l 232 -206 l 232 626 l 119 626 l 119 -196 l 17 -196 l 17 -308 z m 232 719 l 232 832 l 119 832 l 119 719 z "},"k":{"ha":521,"x_min":0,"x_max":0,"o":"m 475 0 l 475 113 l 372 113 l 372 215 l 269 215 l 269 411 l 372 411 l 372 514 l 475 514 l 475 626 l 363 626 l 363 524 l 260 524 l 260 421 l 167 421 l 167 832 l 56 832 l 56 -11 l 167 -11 l 167 206 l 260 206 l 260 103 l 363 103 l 363 0 z "},"l":{"ha":222,"x_min":0,"x_max":0,"o":"m 167 0 l 167 832 l 56 832 l 56 0 z "},"m":{"ha":836,"x_min":0,"x_max":0,"o":"m 783 0 l 783 524 l 681 524 l 681 626 l 465 626 l 465 524 l 372 524 l 372 626 l 56 626 l 56 0 l 167 0 l 167 514 l 363 514 l 363 0 l 475 0 l 475 514 l 671 514 l 671 0 z "},"n":{"ha":528,"x_min":0,"x_max":0,"o":"m 475 0 l 475 524 l 372 524 l 372 626 l 56 626 l 56 0 l 167 0 l 167 514 l 363 514 l 363 0 z "},"o":{"ha":518,"x_min":0,"x_max":0,"o":"m 367 0 l 367 103 l 469 103 l 469 524 l 367 524 l 367 626 l 151 626 l 151 524 l 49 524 l 49 103 l 151 103 l 151 0 z m 357 113 l 161 113 l 161 514 l 357 514 z "},"p":{"ha":521,"x_min":0,"x_max":0,"o":"m 167 -308 l 167 0 l 372 0 l 372 103 l 475 103 l 475 524 l 372 524 l 372 626 l 56 626 l 56 -308 z m 363 113 l 167 113 l 167 514 l 363 514 z "},"q":{"ha":521,"x_min":0,"x_max":0,"o":"m 465 -308 l 465 626 l 149 626 l 149 524 l 46 524 l 46 103 l 149 103 l 149 0 l 354 0 l 354 -308 z m 354 113 l 158 113 l 158 514 l 354 514 z "},"r":{"ha":406,"x_min":0,"x_max":0,"o":"m 167 0 l 167 411 l 269 411 l 269 514 l 372 514 l 372 626 l 260 626 l 260 524 l 167 524 l 167 626 l 56 626 l 56 0 z "},"s":{"ha":517,"x_min":0,"x_max":0,"o":"m 369 0 l 369 103 l 472 103 l 472 318 l 369 318 l 369 421 l 164 421 l 164 514 l 369 514 l 369 626 l 154 626 l 154 524 l 51 524 l 51 411 l 154 411 l 154 308 l 360 308 l 360 113 l 51 113 l 51 0 z "},"t":{"ha":394,"x_min":0,"x_max":0,"o":"m 350 0 l 350 113 l 247 113 l 247 514 l 350 514 l 350 626 l 247 626 l 247 832 l 135 832 l 135 626 l 32 626 l 32 514 l 135 514 l 135 103 l 238 103 l 238 0 z "},"u":{"ha":525,"x_min":0,"x_max":0,"o":"m 469 0 l 469 626 l 357 626 l 357 113 l 161 113 l 161 626 l 49 626 l 49 103 l 151 103 l 151 0 z "},"v":{"ha":597,"x_min":0,"x_max":0,"o":"m 350 0 l 350 206 l 453 206 l 453 411 l 556 411 l 556 626 l 443 626 l 443 421 l 340 421 l 340 215 l 247 215 l 247 421 l 144 421 l 144 626 l 32 626 l 32 411 l 135 411 l 135 206 l 238 206 l 238 0 z "},"w":{"ha":800,"x_min":0,"x_max":0,"o":"m 556 0 l 556 206 l 658 206 l 658 411 l 761 411 l 761 626 l 649 626 l 649 421 l 546 421 l 546 215 l 453 215 l 453 421 l 340 421 l 340 215 l 247 215 l 247 421 l 144 421 l 144 626 l 32 626 l 32 411 l 135 411 l 135 206 l 238 206 l 238 0 l 350 0 l 350 206 l 443 206 l 443 0 z "},"x":{"ha":531,"x_min":0,"x_max":0,"o":"m 475 0 l 475 318 l 372 318 l 372 411 l 475 411 l 475 626 l 363 626 l 363 421 l 167 421 l 167 626 l 56 626 l 56 411 l 158 411 l 158 318 l 56 318 l 56 0 l 167 0 l 167 308 l 363 308 l 363 0 z "},"y":{"ha":525,"x_min":0,"x_max":0,"o":"m 367 -308 l 367 -206 l 469 -206 l 469 626 l 357 626 l 357 113 l 161 113 l 161 626 l 49 626 l 49 103 l 151 103 l 151 0 l 357 0 l 357 -196 l 161 -196 l 161 -93 l 49 -93 l 49 -206 l 151 -206 l 151 -308 z "},"z":{"ha":508,"x_min":0,"x_max":0,"o":"m 463 0 l 463 113 l 154 113 l 154 206 l 257 206 l 257 308 l 360 308 l 360 411 l 463 411 l 463 626 l 42 626 l 42 514 l 350 514 l 350 421 l 247 421 l 247 318 l 144 318 l 144 215 l 42 215 l 42 0 z "},"{":{"ha":428,"x_min":0,"x_max":0,"o":"m 372 -103 l 372 10 l 269 10 l 269 318 l 167 318 l 167 411 l 269 411 l 269 719 l 372 719 l 372 832 l 260 832 l 260 729 l 158 729 l 158 421 l 56 421 l 56 308 l 158 308 l 158 0 l 260 0 l 260 -103 z "},"|":{"ha":319,"x_min":0,"x_max":0,"o":"m 224 -308 l 224 935 l 111 935 l 111 -308 z "},"}":{"ha":428,"x_min":0,"x_max":0,"o":"m 167 -103 l 167 0 l 269 0 l 269 308 l 372 308 l 372 421 l 269 421 l 269 729 l 167 729 l 167 832 l 56 832 l 56 719 l 158 719 l 158 411 l 260 411 l 260 318 l 158 318 l 158 10 l 56 10 l 56 -103 z "},"~":{"ha":633,"x_min":0,"x_max":0,"o":"m 475 308 l 475 411 l 578 411 l 578 524 l 465 524 l 465 421 l 372 421 l 372 524 l 158 524 l 158 421 l 56 421 l 56 308 l 167 308 l 167 411 l 260 411 l 260 308 z "}," ":{"ha":256,"x_min":0,"x_max":0,"o":""},"¡":{"ha":238,"x_min":0,"x_max":0,"o":"m 176 -206 l 176 421 l 64 421 l 64 -206 z m 176 514 l 176 626 l 64 626 l 64 514 z "},"¢":{"ha":633,"x_min":0,"x_max":0,"o":"m 372 0 l 372 103 l 475 103 l 475 206 l 578 206 l 578 318 l 465 318 l 465 215 l 372 215 l 372 618 l 465 618 l 465 515 l 578 515 l 578 628 l 475 628 l 475 729 l 372 729 l 372 832 l 260 832 l 260 729 l 158 729 l 158 628 l 56 628 l 56 206 l 158 206 l 158 103 l 260 103 l 260 0 z m 260 215 l 167 215 l 167 618 l 260 618 z "},"£":{"ha":531,"x_min":0,"x_max":0,"o":"m 475 0 l 475 113 l 269 113 l 269 411 l 372 411 l 372 524 l 269 524 l 269 719 l 475 719 l 475 832 l 260 832 l 260 729 l 158 729 l 158 524 l 56 524 l 56 411 l 158 411 l 158 113 l 56 113 l 56 0 l 167 0 l 167 103 l 260 103 l 260 0 z "},"¤":{"ha":839,"x_min":0,"x_max":0,"o":"m 783 0 l 783 113 l 681 113 l 681 617 l 783 617 l 783 729 l 671 729 l 671 626 l 167 626 l 167 729 l 56 729 l 56 617 l 158 617 l 158 113 l 56 113 l 56 0 l 167 0 l 167 103 l 671 103 l 671 0 z m 568 215 l 269 215 l 269 514 l 568 514 z "},"¥":{"ha":633,"x_min":0,"x_max":0,"o":"m 578 103 l 578 215 l 372 215 l 372 308 l 578 308 l 578 421 l 372 421 l 372 514 l 475 514 l 475 719 l 578 719 l 578 832 l 465 832 l 465 729 l 363 729 l 363 524 l 269 524 l 269 729 l 167 729 l 167 832 l 56 832 l 56 719 l 158 719 l 158 514 l 260 514 l 260 421 l 56 421 l 56 308 l 260 308 l 260 215 l 56 215 l 56 103 l 260 103 l 260 0 l 372 0 l 372 103 z "},"¦":{"ha":319,"x_min":0,"x_max":0,"o":"m 224 411 l 224 935 l 111 935 l 111 411 z m 224 -308 l 224 215 l 111 215 l 111 -308 z "},"§":{"ha":531,"x_min":0,"x_max":0,"o":"m 372 -206 l 372 -103 l 475 -103 l 475 113 l 372 113 l 372 206 l 475 206 l 475 421 l 372 421 l 372 524 l 167 524 l 167 719 l 372 719 l 372 832 l 158 832 l 158 729 l 56 729 l 56 514 l 158 514 l 158 421 l 56 421 l 56 206 l 158 206 l 158 103 l 363 103 l 363 -93 l 158 -93 l 158 -206 z m 363 215 l 167 215 l 167 411 l 363 411 z "},"¨":{"ha":428,"x_min":0,"x_max":0,"o":"m 167 722 l 167 833 l 56 833 l 56 722 z m 372 722 l 372 833 l 260 833 l 260 722 z "},"©":{"ha":839,"x_min":0,"x_max":0,"o":"m 681 0 l 681 103 l 783 103 l 783 729 l 681 729 l 681 832 l 158 832 l 158 729 l 56 729 l 56 103 l 158 103 l 158 0 z m 671 113 l 167 113 l 167 719 l 671 719 z m 578 206 l 578 318 l 372 318 l 372 514 l 578 514 l 578 626 l 363 626 l 363 524 l 260 524 l 260 308 l 363 308 l 363 206 z "},"ª":{"ha":633,"x_min":0,"x_max":0,"o":"m 578 206 l 578 318 l 475 318 l 475 626 l 372 626 l 372 729 l 158 729 l 158 617 l 363 617 l 363 524 l 158 524 l 158 421 l 56 421 l 56 308 l 158 308 l 158 206 l 372 206 l 372 308 l 465 308 l 465 206 z m 363 318 l 167 318 l 167 411 l 363 411 z "},"«":{"ha":775,"x_min":0,"x_max":0,"o":"m 353 103 l 353 215 l 250 215 l 250 318 l 147 318 l 147 411 l 250 411 l 250 514 l 353 514 l 353 626 l 240 626 l 240 524 l 138 524 l 138 421 l 35 421 l 35 308 l 138 308 l 138 206 l 240 206 l 240 103 z m 740 103 l 740 215 l 638 215 l 638 318 l 535 318 l 535 411 l 638 411 l 638 514 l 740 514 l 740 626 l 628 626 l 628 524 l 525 524 l 525 421 l 422 421 l 422 308 l 525 308 l 525 206 l 628 206 l 628 103 z "},"¬":{"ha":633,"x_min":0,"x_max":0,"o":"m 578 103 l 578 421 l 56 421 l 56 308 l 465 308 l 465 103 z "},"®":{"ha":839,"x_min":0,"x_max":0,"o":"m 681 0 l 681 103 l 783 103 l 783 729 l 681 729 l 681 832 l 158 832 l 158 729 l 56 729 l 56 103 l 158 103 l 158 0 z m 671 113 l 167 113 l 167 719 l 671 719 z m 578 206 l 578 318 l 475 318 l 475 411 l 578 411 l 578 626 l 260 626 l 260 206 l 372 206 l 372 308 l 465 308 l 465 206 z "},"¯":{"ha":531,"x_min":0,"x_max":0,"o":"m 475 722 l 475 833 l 56 833 l 56 722 z "},"°":{"ha":531,"x_min":0,"x_max":0,"o":"m 372 514 l 372 617 l 475 617 l 475 832 l 372 832 l 372 935 l 158 935 l 158 832 l 56 832 l 56 617 l 158 617 l 158 514 z m 363 626 l 167 626 l 167 822 l 363 822 z "},"±":{"ha":633,"x_min":0,"x_max":0,"o":"m 372 103 l 372 308 l 578 308 l 578 421 l 372 421 l 372 626 l 260 626 l 260 421 l 56 421 l 56 308 l 260 308 l 260 103 z m 578 -103 l 578 10 l 56 10 l 56 -103 z "},"²":{"ha":447,"x_min":0,"x_max":0,"o":"m 392 374 l 392 464 l 144 464 l 144 538 l 226 538 l 226 621 l 308 621 l 308 703 l 392 703 l 392 793 l 308 793 l 308 875 l 138 875 l 138 793 l 56 793 l 56 703 l 144 703 l 144 785 l 301 785 l 301 710 l 219 710 l 219 628 l 138 628 l 138 546 l 56 546 l 56 374 z "},"³":{"ha":447,"x_min":0,"x_max":0,"o":"m 308 374 l 308 456 l 392 456 l 392 592 l 308 592 l 308 665 l 392 665 l 392 793 l 308 793 l 308 876 l 138 876 l 138 793 l 56 793 l 56 704 l 144 704 l 144 786 l 301 786 l 301 674 l 210 674 l 210 583 l 301 583 l 301 464 l 144 464 l 144 546 l 56 546 l 56 456 l 138 456 l 138 374 z "},"´":{"ha":325,"x_min":0,"x_max":0,"o":"m 125 722 l 125 825 l 228 825 l 228 936 l 117 936 l 117 833 l 14 833 l 14 722 z "},"¶":{"ha":633,"x_min":0,"x_max":0,"o":"m 578 -103 l 578 832 l 158 832 l 158 729 l 56 729 l 56 617 l 158 617 l 158 514 l 260 514 l 260 -103 l 372 -103 l 372 719 l 465 719 l 465 -103 z "},"·":{"ha":222,"x_min":0,"x_max":0,"o":"m 167 308 l 167 421 l 56 421 l 56 308 z "},"¸":{"ha":325,"x_min":0,"x_max":0,"o":"m 167 -308 l 167 -206 l 269 -206 l 269 -93 l 158 -93 l 158 -196 l 56 -196 l 56 -308 z "},"¹":{"ha":282,"x_min":0,"x_max":0,"o":"m 226 374 l 226 875 l 138 875 l 138 793 l 56 793 l 56 703 l 138 703 l 138 374 z "},"º":{"ha":531,"x_min":0,"x_max":0,"o":"m 372 206 l 372 308 l 475 308 l 475 626 l 372 626 l 372 729 l 158 729 l 158 626 l 56 626 l 56 308 l 158 308 l 158 206 z m 363 318 l 167 318 l 167 617 l 363 617 z "},"»":{"ha":775,"x_min":0,"x_max":0,"o":"m 147 103 l 147 206 l 250 206 l 250 308 l 353 308 l 353 421 l 250 421 l 250 524 l 147 524 l 147 626 l 35 626 l 35 514 l 138 514 l 138 411 l 240 411 l 240 318 l 138 318 l 138 215 l 35 215 l 35 103 z m 535 103 l 535 206 l 638 206 l 638 308 l 740 308 l 740 421 l 638 421 l 638 524 l 535 524 l 535 626 l 422 626 l 422 514 l 525 514 l 525 411 l 628 411 l 628 318 l 525 318 l 525 215 l 422 215 l 422 103 z "},"¼":{"ha":1086,"x_min":0,"x_max":0,"o":"m 226 374 l 226 875 l 138 875 l 138 793 l 56 793 l 56 703 l 138 703 l 138 374 z m 356 0 l 356 206 l 458 206 l 458 411 l 561 411 l 561 617 l 664 617 l 664 832 l 551 832 l 551 626 l 450 626 l 450 421 l 347 421 l 347 215 l 244 215 l 244 0 z m 949 -50 l 949 103 l 1031 103 l 1031 193 l 949 193 l 949 451 l 858 451 l 858 369 l 776 369 l 776 286 l 694 286 l 694 193 l 613 193 l 613 103 l 858 103 l 858 -50 z m 858 193 l 783 193 l 783 279 l 858 279 z "},"½":{"ha":1004,"x_min":0,"x_max":0,"o":"m 356 0 l 356 206 l 458 206 l 458 411 l 561 411 l 561 617 l 664 617 l 664 832 l 551 832 l 551 626 l 450 626 l 450 421 l 347 421 l 347 215 l 244 215 l 244 0 z m 949 -50 l 949 40 l 701 40 l 701 114 l 783 114 l 783 197 l 865 197 l 865 279 l 949 279 l 949 369 l 865 369 l 865 451 l 694 451 l 694 369 l 613 369 l 613 279 l 701 279 l 701 361 l 858 361 l 858 286 l 776 286 l 776 204 l 694 204 l 694 122 l 613 122 l 613 -50 z m 226 374 l 226 875 l 138 875 l 138 793 l 56 793 l 56 703 l 138 703 l 138 374 z "},"¾":{"ha":1182,"x_min":0,"x_max":0,"o":"m 308 374 l 308 456 l 392 456 l 392 592 l 308 592 l 308 665 l 392 665 l 392 793 l 308 793 l 308 876 l 138 876 l 138 793 l 56 793 l 56 704 l 144 704 l 144 786 l 301 786 l 301 674 l 210 674 l 210 583 l 301 583 l 301 464 l 144 464 l 144 546 l 56 546 l 56 456 l 138 456 l 138 374 z m 451 0 l 451 206 l 554 206 l 554 411 l 657 411 l 657 617 l 760 617 l 760 832 l 647 832 l 647 626 l 546 626 l 546 421 l 443 421 l 443 215 l 340 215 l 340 0 z m 1044 -50 l 1044 103 l 1126 103 l 1126 193 l 1044 193 l 1044 451 l 954 451 l 954 369 l 872 369 l 872 286 l 790 286 l 790 193 l 708 193 l 708 103 l 954 103 l 954 -50 z m 954 193 l 879 193 l 879 279 l 954 279 z "},"¿":{"ha":531,"x_min":0,"x_max":0,"o":"m 372 -206 l 372 -103 l 475 -103 l 475 113 l 363 113 l 363 -93 l 167 -93 l 167 103 l 269 103 l 269 206 l 372 206 l 372 421 l 260 421 l 260 215 l 158 215 l 158 113 l 56 113 l 56 -103 l 158 -103 l 158 -206 z m 372 514 l 372 626 l 260 626 l 260 514 z "},"À":{"ha":736,"x_min":0,"x_max":0,"o":"m 681 0 l 681 318 l 578 318 l 578 626 l 475 626 l 475 832 l 260 832 l 260 626 l 158 626 l 158 318 l 56 318 l 56 0 l 167 0 l 167 308 l 568 308 l 568 0 z m 465 421 l 269 421 l 269 617 l 465 617 z m 475 928 l 475 1039 l 372 1039 l 372 1142 l 261 1142 l 261 1031 l 364 1031 l 364 928 z "},"Á":{"ha":736,"x_min":0,"x_max":0,"o":"m 681 0 l 681 318 l 578 318 l 578 626 l 475 626 l 475 832 l 260 832 l 260 626 l 158 626 l 158 318 l 56 318 l 56 0 l 167 0 l 167 308 l 568 308 l 568 0 z m 465 421 l 269 421 l 269 617 l 465 617 z m 372 928 l 372 1031 l 475 1031 l 475 1142 l 364 1142 l 364 1039 l 261 1039 l 261 928 z "},"Â":{"ha":736,"x_min":0,"x_max":0,"o":"m 681 0 l 681 318 l 578 318 l 578 626 l 475 626 l 475 832 l 260 832 l 260 626 l 158 626 l 158 318 l 56 318 l 56 0 l 167 0 l 167 308 l 568 308 l 568 0 z m 465 421 l 269 421 l 269 617 l 465 617 z m 526 928 l 526 1039 l 424 1039 l 424 1142 l 313 1142 l 313 1039 l 210 1039 l 210 928 l 321 928 l 321 1031 l 414 1031 l 414 928 z "},"Ã":{"ha":736,"x_min":0,"x_max":0,"o":"m 681 0 l 681 318 l 578 318 l 578 626 l 475 626 l 475 832 l 260 832 l 260 626 l 158 626 l 158 318 l 56 318 l 56 0 l 167 0 l 167 308 l 568 308 l 568 0 z m 465 421 l 269 421 l 269 617 l 465 617 z m 475 928 l 475 1031 l 578 1031 l 578 1142 l 465 1142 l 465 1039 l 372 1039 l 372 1142 l 261 1142 l 261 1039 l 158 1039 l 158 928 l 269 928 l 269 1031 l 363 1031 l 363 928 z "},"Ä":{"ha":736,"x_min":0,"x_max":0,"o":"m 681 0 l 681 318 l 578 318 l 578 626 l 475 626 l 475 832 l 260 832 l 260 626 l 158 626 l 158 318 l 56 318 l 56 0 l 167 0 l 167 308 l 568 308 l 568 0 z m 465 421 l 269 421 l 269 617 l 465 617 z m 321 928 l 321 1039 l 210 1039 l 210 928 z m 526 928 l 526 1039 l 414 1039 l 414 928 z "},"Å":{"ha":736,"x_min":0,"x_max":0,"o":"m 681 0 l 681 318 l 578 318 l 578 626 l 475 626 l 475 832 l 260 832 l 260 626 l 158 626 l 158 318 l 56 318 l 56 0 l 167 0 l 167 308 l 568 308 l 568 0 z m 465 421 l 269 421 l 269 617 l 465 617 z m 424 928 l 424 1031 l 526 1031 l 526 1142 l 424 1142 l 424 1244 l 313 1244 l 313 1142 l 210 1142 l 210 1031 l 313 1031 l 313 928 z m 414 1039 l 321 1039 l 321 1133 l 414 1133 z "},"Æ":{"ha":908,"x_min":0,"x_max":0,"o":"m 864 0 l 864 113 l 556 113 l 556 411 l 864 411 l 864 524 l 556 524 l 556 719 l 864 719 l 864 832 l 340 832 l 340 626 l 238 626 l 238 421 l 135 421 l 135 215 l 32 215 l 32 0 l 144 0 l 144 206 l 247 206 l 247 308 l 443 308 l 443 0 z m 443 421 l 350 421 l 350 617 l 443 617 z "},"Ç":{"ha":633,"x_min":0,"x_max":0,"o":"m 475 0 l 475 103 l 578 103 l 578 215 l 465 215 l 465 113 l 167 113 l 167 719 l 465 719 l 465 617 l 578 617 l 578 729 l 475 729 l 475 832 l 158 832 l 158 729 l 56 729 l 56 103 l 158 103 l 158 0 z m 279 -308 l 279 -206 l 382 -206 l 382 -93 l 271 -93 l 271 -196 l 168 -196 l 168 -308 z "},"È":{"ha":524,"x_min":0,"x_max":0,"o":"m 475 0 l 475 113 l 167 113 l 167 411 l 475 411 l 475 524 l 167 524 l 167 719 l 475 719 l 475 832 l 56 832 l 56 0 z m 368 928 l 368 1039 l 265 1039 l 265 1142 l 154 1142 l 154 1031 l 257 1031 l 257 928 z "},"É":{"ha":524,"x_min":0,"x_max":0,"o":"m 475 0 l 475 113 l 167 113 l 167 411 l 475 411 l 475 524 l 167 524 l 167 719 l 475 719 l 475 832 l 56 832 l 56 0 z m 265 928 l 265 1031 l 368 1031 l 368 1142 l 257 1142 l 257 1039 l 154 1039 l 154 928 z "},"Ê":{"ha":524,"x_min":0,"x_max":0,"o":"m 475 0 l 475 113 l 167 113 l 167 411 l 475 411 l 475 524 l 167 524 l 167 719 l 475 719 l 475 832 l 56 832 l 56 0 z m 419 928 l 419 1039 l 317 1039 l 317 1142 l 206 1142 l 206 1039 l 103 1039 l 103 928 l 214 928 l 214 1031 l 307 1031 l 307 928 z "},"Ë":{"ha":524,"x_min":0,"x_max":0,"o":"m 475 0 l 475 113 l 167 113 l 167 411 l 475 411 l 475 524 l 167 524 l 167 719 l 475 719 l 475 832 l 56 832 l 56 0 z m 214 928 l 214 1039 l 103 1039 l 103 928 z m 419 928 l 419 1039 l 307 1039 l 307 928 z "},"Ì":{"ha":222,"x_min":0,"x_max":0,"o":"m 167 0 l 167 832 l 56 832 l 56 0 z m 218 928 l 218 1039 l 115 1039 l 115 1142 l 4 1142 l 4 1031 l 107 1031 l 107 928 z "},"Í":{"ha":222,"x_min":0,"x_max":0,"o":"m 167 0 l 167 832 l 56 832 l 56 0 z m 115 928 l 115 1031 l 218 1031 l 218 1142 l 107 1142 l 107 1039 l 4 1039 l 4 928 z "},"Î":{"ha":222,"x_min":0,"x_max":0,"o":"m 167 0 l 167 832 l 56 832 l 56 0 z m 269 928 l 269 1039 l 167 1039 l 167 1142 l 56 1142 l 56 1039 l -47 1039 l -47 928 l 64 928 l 64 1031 l 157 1031 l 157 928 z "},"Ï":{"ha":222,"x_min":0,"x_max":0,"o":"m 167 0 l 167 832 l 56 832 l 56 0 z m 64 928 l 64 1039 l -47 1039 l -47 928 z m 269 928 l 269 1039 l 157 1039 l 157 928 z "},"Ð":{"ha":678,"x_min":0,"x_max":0,"o":"m 417 0 l 417 103 l 519 103 l 519 206 l 622 206 l 622 626 l 519 626 l 519 729 l 417 729 l 417 832 l 99 832 l 99 524 l 56 524 l 56 411 l 99 411 l 99 0 z m 510 215 l 407 215 l 407 113 l 211 113 l 211 411 l 314 411 l 314 524 l 211 524 l 211 719 l 407 719 l 407 617 l 510 617 z "},"Ñ":{"ha":633,"x_min":0,"x_max":0,"o":"m 578 0 l 578 832 l 465 832 l 465 318 l 372 318 l 372 524 l 269 524 l 269 729 l 167 729 l 167 832 l 56 832 l 56 0 l 167 0 l 167 514 l 260 514 l 260 308 l 363 308 l 363 103 l 465 103 l 465 0 z m 424 928 l 424 1031 l 526 1031 l 526 1142 l 414 1142 l 414 1039 l 321 1039 l 321 1142 l 210 1142 l 210 1039 l 107 1039 l 107 928 l 218 928 l 218 1031 l 311 1031 l 311 928 z "},"Ò":{"ha":633,"x_min":0,"x_max":0,"o":"m 475 0 l 475 103 l 578 103 l 578 729 l 475 729 l 475 832 l 158 832 l 158 729 l 56 729 l 56 103 l 158 103 l 158 0 z m 465 113 l 167 113 l 167 719 l 465 719 z m 424 928 l 424 1039 l 321 1039 l 321 1142 l 210 1142 l 210 1031 l 313 1031 l 313 928 z "},"Ó":{"ha":633,"x_min":0,"x_max":0,"o":"m 475 0 l 475 103 l 578 103 l 578 729 l 475 729 l 475 832 l 158 832 l 158 729 l 56 729 l 56 103 l 158 103 l 158 0 z m 465 113 l 167 113 l 167 719 l 465 719 z m 321 928 l 321 1031 l 424 1031 l 424 1142 l 313 1142 l 313 1039 l 210 1039 l 210 928 z "},"Ô":{"ha":633,"x_min":0,"x_max":0,"o":"m 475 0 l 475 103 l 578 103 l 578 729 l 475 729 l 475 832 l 158 832 l 158 729 l 56 729 l 56 103 l 158 103 l 158 0 z m 465 113 l 167 113 l 167 719 l 465 719 z m 475 928 l 475 1039 l 372 1039 l 372 1142 l 261 1142 l 261 1039 l 158 1039 l 158 928 l 269 928 l 269 1031 l 363 1031 l 363 928 z "},"Õ":{"ha":633,"x_min":0,"x_max":0,"o":"m 475 0 l 475 103 l 578 103 l 578 729 l 475 729 l 475 832 l 158 832 l 158 729 l 56 729 l 56 103 l 158 103 l 158 0 z m 465 113 l 167 113 l 167 719 l 465 719 z m 424 928 l 424 1031 l 526 1031 l 526 1142 l 414 1142 l 414 1039 l 321 1039 l 321 1142 l 210 1142 l 210 1039 l 107 1039 l 107 928 l 218 928 l 218 1031 l 311 1031 l 311 928 z "},"Ö":{"ha":633,"x_min":0,"x_max":0,"o":"m 475 0 l 475 103 l 578 103 l 578 729 l 475 729 l 475 832 l 158 832 l 158 729 l 56 729 l 56 103 l 158 103 l 158 0 z m 465 113 l 167 113 l 167 719 l 465 719 z m 269 928 l 269 1039 l 158 1039 l 158 928 z m 475 928 l 475 1039 l 363 1039 l 363 928 z "},"×":{"ha":633,"x_min":0,"x_max":0,"o":"m 578 103 l 578 215 l 475 215 l 475 318 l 372 318 l 372 411 l 475 411 l 475 514 l 578 514 l 578 626 l 465 626 l 465 524 l 363 524 l 363 421 l 269 421 l 269 524 l 167 524 l 167 626 l 56 626 l 56 514 l 158 514 l 158 411 l 260 411 l 260 318 l 158 318 l 158 215 l 56 215 l 56 103 l 167 103 l 167 206 l 269 206 l 269 308 l 363 308 l 363 206 l 465 206 l 465 103 z "},"Ø":{"ha":633,"x_min":0,"x_max":0,"o":"m 475 0 l 475 103 l 578 103 l 578 729 l 475 729 l 475 822 l 578 822 l 578 935 l 465 935 l 465 832 l 158 832 l 158 729 l 56 729 l 56 103 l 158 103 l 158 10 l 56 10 l 56 -103 l 167 -103 l 167 0 z m 465 113 l 269 113 l 269 308 l 372 308 l 372 514 l 465 514 z m 260 318 l 167 318 l 167 719 l 363 719 l 363 524 l 260 524 z "},"Ù":{"ha":633,"x_min":0,"x_max":0,"o":"m 475 0 l 475 103 l 578 103 l 578 832 l 465 832 l 465 113 l 167 113 l 167 832 l 56 832 l 56 103 l 158 103 l 158 0 z m 424 928 l 424 1039 l 321 1039 l 321 1142 l 210 1142 l 210 1031 l 313 1031 l 313 928 z "},"Ú":{"ha":633,"x_min":0,"x_max":0,"o":"m 475 0 l 475 103 l 578 103 l 578 832 l 465 832 l 465 113 l 167 113 l 167 832 l 56 832 l 56 103 l 158 103 l 158 0 z m 321 928 l 321 1031 l 424 1031 l 424 1142 l 313 1142 l 313 1039 l 210 1039 l 210 928 z "},"Û":{"ha":633,"x_min":0,"x_max":0,"o":"m 475 0 l 475 103 l 578 103 l 578 832 l 465 832 l 465 113 l 167 113 l 167 832 l 56 832 l 56 103 l 158 103 l 158 0 z m 475 928 l 475 1039 l 372 1039 l 372 1142 l 261 1142 l 261 1039 l 158 1039 l 158 928 l 269 928 l 269 1031 l 363 1031 l 363 928 z "},"Ü":{"ha":633,"x_min":0,"x_max":0,"o":"m 475 0 l 475 103 l 578 103 l 578 832 l 465 832 l 465 113 l 167 113 l 167 832 l 56 832 l 56 103 l 158 103 l 158 0 z m 269 928 l 269 1039 l 158 1039 l 158 928 z m 475 928 l 475 1039 l 363 1039 l 363 928 z "},"Ý":{"ha":633,"x_min":0,"x_max":0,"o":"m 372 0 l 372 514 l 475 514 l 475 719 l 578 719 l 578 832 l 465 832 l 465 729 l 363 729 l 363 524 l 269 524 l 269 729 l 167 729 l 167 832 l 56 832 l 56 719 l 158 719 l 158 514 l 260 514 l 260 0 z m 321 928 l 321 1031 l 424 1031 l 424 1142 l 313 1142 l 313 1039 l 210 1039 l 210 928 z "},"Þ":{"ha":503,"x_min":0,"x_max":0,"o":"m 475 308 l 475 524 l 372 524 l 372 626 l 167 626 l 167 832 l 56 832 l 56 0 l 167 0 l 167 206 l 372 206 l 372 308 z m 363 318 l 167 318 l 167 514 l 363 514 z "},"ß":{"ha":531,"x_min":0,"x_max":0,"o":"m 372 0 l 372 103 l 475 103 l 475 524 l 372 524 l 372 617 l 475 617 l 475 729 l 372 729 l 372 832 l 158 832 l 158 729 l 56 729 l 56 0 l 167 0 l 167 719 l 363 719 l 363 626 l 260 626 l 260 514 l 363 514 l 363 113 l 260 113 l 260 0 z "},"à":{"ha":614,"x_min":0,"x_max":0,"o":"m 568 0 l 568 113 l 465 113 l 465 524 l 363 524 l 363 626 l 149 626 l 149 514 l 354 514 l 354 421 l 149 421 l 149 318 l 46 318 l 46 103 l 149 103 l 149 0 l 363 0 l 363 103 l 457 103 l 457 0 z m 354 113 l 158 113 l 158 308 l 354 308 z m 414 722 l 414 833 l 311 833 l 311 936 l 200 936 l 200 825 l 303 825 l 303 722 z "},"á":{"ha":614,"x_min":0,"x_max":0,"o":"m 568 0 l 568 113 l 465 113 l 465 524 l 363 524 l 363 626 l 149 626 l 149 514 l 354 514 l 354 421 l 149 421 l 149 318 l 46 318 l 46 103 l 149 103 l 149 0 l 363 0 l 363 103 l 457 103 l 457 0 z m 354 113 l 158 113 l 158 308 l 354 308 z m 311 722 l 311 825 l 414 825 l 414 936 l 303 936 l 303 833 l 200 833 l 200 722 z "},"â":{"ha":614,"x_min":0,"x_max":0,"o":"m 568 0 l 568 113 l 465 113 l 465 524 l 363 524 l 363 626 l 149 626 l 149 514 l 354 514 l 354 421 l 149 421 l 149 318 l 46 318 l 46 103 l 149 103 l 149 0 l 363 0 l 363 103 l 457 103 l 457 0 z m 354 113 l 158 113 l 158 308 l 354 308 z m 465 722 l 465 833 l 363 833 l 363 936 l 251 936 l 251 833 l 149 833 l 149 722 l 260 722 l 260 825 l 353 825 l 353 722 z "},"ã":{"ha":614,"x_min":0,"x_max":0,"o":"m 568 0 l 568 113 l 465 113 l 465 524 l 363 524 l 363 626 l 149 626 l 149 514 l 354 514 l 354 421 l 149 421 l 149 318 l 46 318 l 46 103 l 149 103 l 149 0 l 363 0 l 363 103 l 457 103 l 457 0 z m 354 113 l 158 113 l 158 308 l 354 308 z m 414 722 l 414 825 l 517 825 l 517 936 l 404 936 l 404 833 l 311 833 l 311 936 l 200 936 l 200 833 l 97 833 l 97 722 l 208 722 l 208 825 l 301 825 l 301 722 z "},"ä":{"ha":614,"x_min":0,"x_max":0,"o":"m 568 0 l 568 113 l 465 113 l 465 524 l 363 524 l 363 626 l 149 626 l 149 514 l 354 514 l 354 421 l 149 421 l 149 318 l 46 318 l 46 103 l 149 103 l 149 0 l 363 0 l 363 103 l 457 103 l 457 0 z m 354 113 l 158 113 l 158 308 l 354 308 z m 260 722 l 260 833 l 149 833 l 149 722 z m 465 722 l 465 833 l 353 833 l 353 722 z "},"å":{"ha":614,"x_min":0,"x_max":0,"o":"m 568 0 l 568 113 l 465 113 l 465 524 l 363 524 l 363 626 l 149 626 l 149 514 l 354 514 l 354 421 l 149 421 l 149 318 l 46 318 l 46 103 l 149 103 l 149 0 l 363 0 l 363 103 l 457 103 l 457 0 z m 354 113 l 158 113 l 158 308 l 354 308 z m 363 722 l 363 825 l 465 825 l 465 936 l 363 936 l 363 1039 l 251 1039 l 251 936 l 149 936 l 149 825 l 251 825 l 251 722 z m 353 833 l 260 833 l 260 928 l 353 928 z "},"æ":{"ha":824,"x_min":0,"x_max":0,"o":"m 669 0 l 669 103 l 772 103 l 772 215 l 660 215 l 660 113 l 464 113 l 464 308 l 772 308 l 772 524 l 669 524 l 669 626 l 454 626 l 454 524 l 361 524 l 361 626 l 146 626 l 146 514 l 351 514 l 351 421 l 146 421 l 146 318 l 43 318 l 43 103 l 146 103 l 146 0 l 361 0 l 361 103 l 454 103 l 454 0 z m 351 113 l 156 113 l 156 308 l 351 308 z m 660 421 l 464 421 l 464 514 l 660 514 z "},"ç":{"ha":521,"x_min":0,"x_max":0,"o":"m 372 0 l 372 103 l 475 103 l 475 215 l 363 215 l 363 113 l 167 113 l 167 514 l 363 514 l 363 411 l 475 411 l 475 524 l 372 524 l 372 626 l 158 626 l 158 524 l 56 524 l 56 103 l 158 103 l 158 0 z m 222 -308 l 222 -206 l 325 -206 l 325 -93 l 214 -93 l 214 -196 l 111 -196 l 111 -308 z "},"è":{"ha":531,"x_min":0,"x_max":0,"o":"m 372 0 l 372 103 l 475 103 l 475 215 l 363 215 l 363 113 l 167 113 l 167 308 l 475 308 l 475 524 l 372 524 l 372 626 l 158 626 l 158 524 l 56 524 l 56 103 l 158 103 l 158 0 z m 363 421 l 167 421 l 167 514 l 363 514 z m 372 722 l 372 833 l 269 833 l 269 936 l 158 936 l 158 825 l 261 825 l 261 722 z "},"é":{"ha":531,"x_min":0,"x_max":0,"o":"m 372 0 l 372 103 l 475 103 l 475 215 l 363 215 l 363 113 l 167 113 l 167 308 l 475 308 l 475 524 l 372 524 l 372 626 l 158 626 l 158 524 l 56 524 l 56 103 l 158 103 l 158 0 z m 363 421 l 167 421 l 167 514 l 363 514 z m 269 722 l 269 825 l 372 825 l 372 936 l 261 936 l 261 833 l 158 833 l 158 722 z "},"ê":{"ha":531,"x_min":0,"x_max":0,"o":"m 372 0 l 372 103 l 475 103 l 475 215 l 363 215 l 363 113 l 167 113 l 167 308 l 475 308 l 475 524 l 372 524 l 372 626 l 158 626 l 158 524 l 56 524 l 56 103 l 158 103 l 158 0 z m 363 421 l 167 421 l 167 514 l 363 514 z m 424 722 l 424 833 l 321 833 l 321 936 l 210 936 l 210 833 l 107 833 l 107 722 l 218 722 l 218 825 l 311 825 l 311 722 z "},"ë":{"ha":531,"x_min":0,"x_max":0,"o":"m 372 0 l 372 103 l 475 103 l 475 215 l 363 215 l 363 113 l 167 113 l 167 308 l 475 308 l 475 524 l 372 524 l 372 626 l 158 626 l 158 524 l 56 524 l 56 103 l 158 103 l 158 0 z m 363 421 l 167 421 l 167 514 l 363 514 z m 218 722 l 218 833 l 107 833 l 107 722 z m 424 722 l 424 833 l 311 833 l 311 722 z "},"ì":{"ha":235,"x_min":0,"x_max":0,"o":"m 175 0 l 175 626 l 63 626 l 63 0 z m 225 722 l 225 833 l 122 833 l 122 936 l 11 936 l 11 825 l 114 825 l 114 722 z "},"í":{"ha":235,"x_min":0,"x_max":0,"o":"m 175 0 l 175 626 l 63 626 l 63 0 z m 122 722 l 122 825 l 225 825 l 225 936 l 114 936 l 114 833 l 11 833 l 11 722 z "},"î":{"ha":235,"x_min":0,"x_max":0,"o":"m 175 0 l 175 626 l 63 626 l 63 0 z m 276 722 l 276 833 l 174 833 l 174 936 l 63 936 l 63 833 l -40 833 l -40 722 l 71 722 l 71 825 l 164 825 l 164 722 z "},"ï":{"ha":235,"x_min":0,"x_max":0,"o":"m 175 0 l 175 626 l 63 626 l 63 0 z m 71 722 l 71 833 l -40 833 l -40 722 z m 276 722 l 276 833 l 164 833 l 164 722 z "},"ð":{"ha":633,"x_min":0,"x_max":0,"o":"m 372 0 l 372 103 l 461 103 l 461 215 l 363 215 l 363 113 l 167 113 l 167 411 l 465 411 l 465 206 l 578 206 l 578 626 l 475 626 l 475 719 l 578 719 l 578 832 l 465 832 l 465 729 l 372 729 l 372 832 l 158 832 l 158 719 l 363 719 l 363 617 l 465 617 l 465 524 l 158 524 l 158 421 l 56 421 l 56 103 l 158 103 l 158 0 z "},"ñ":{"ha":528,"x_min":0,"x_max":0,"o":"m 475 0 l 475 524 l 372 524 l 372 626 l 56 626 l 56 0 l 167 0 l 167 514 l 363 514 l 363 0 z m 371 722 l 371 825 l 474 825 l 474 936 l 361 936 l 361 833 l 268 833 l 268 936 l 157 936 l 157 833 l 54 833 l 54 722 l 165 722 l 165 825 l 258 825 l 258 722 z "},"ò":{"ha":518,"x_min":0,"x_max":0,"o":"m 367 0 l 367 103 l 469 103 l 469 524 l 367 524 l 367 626 l 151 626 l 151 524 l 49 524 l 49 103 l 151 103 l 151 0 z m 357 113 l 161 113 l 161 514 l 357 514 z m 365 722 l 365 833 l 263 833 l 263 936 l 151 936 l 151 825 l 254 825 l 254 722 z "},"ó":{"ha":518,"x_min":0,"x_max":0,"o":"m 367 0 l 367 103 l 469 103 l 469 524 l 367 524 l 367 626 l 151 626 l 151 524 l 49 524 l 49 103 l 151 103 l 151 0 z m 357 113 l 161 113 l 161 514 l 357 514 z m 263 722 l 263 825 l 365 825 l 365 936 l 254 936 l 254 833 l 151 833 l 151 722 z "},"ô":{"ha":518,"x_min":0,"x_max":0,"o":"m 367 0 l 367 103 l 469 103 l 469 524 l 367 524 l 367 626 l 151 626 l 151 524 l 49 524 l 49 103 l 151 103 l 151 0 z m 357 113 l 161 113 l 161 514 l 357 514 z m 417 722 l 417 833 l 314 833 l 314 936 l 203 936 l 203 833 l 100 833 l 100 722 l 211 722 l 211 825 l 304 825 l 304 722 z "},"õ":{"ha":518,"x_min":0,"x_max":0,"o":"m 367 0 l 367 103 l 469 103 l 469 524 l 367 524 l 367 626 l 151 626 l 151 524 l 49 524 l 49 103 l 151 103 l 151 0 z m 357 113 l 161 113 l 161 514 l 357 514 z m 367 722 l 367 825 l 469 825 l 469 936 l 357 936 l 357 833 l 264 833 l 264 936 l 153 936 l 153 833 l 50 833 l 50 722 l 161 722 l 161 825 l 254 825 l 254 722 z "},"ö":{"ha":518,"x_min":0,"x_max":0,"o":"m 367 0 l 367 103 l 469 103 l 469 524 l 367 524 l 367 626 l 151 626 l 151 524 l 49 524 l 49 103 l 151 103 l 151 0 z m 357 113 l 161 113 l 161 514 l 357 514 z m 211 722 l 211 833 l 100 833 l 100 722 z m 417 722 l 417 833 l 304 833 l 304 722 z "},"÷":{"ha":633,"x_min":0,"x_max":0,"o":"m 372 514 l 372 626 l 260 626 l 260 514 z m 372 103 l 372 215 l 260 215 l 260 103 z m 578 308 l 578 421 l 56 421 l 56 308 z "},"ø":{"ha":531,"x_min":0,"x_max":0,"o":"m 372 0 l 372 103 l 475 103 l 475 524 l 372 524 l 372 617 l 475 617 l 475 729 l 363 729 l 363 626 l 158 626 l 158 524 l 56 524 l 56 103 l 158 103 l 158 10 l 56 10 l 56 -103 l 167 -103 l 167 0 z m 260 318 l 167 318 l 167 514 l 260 514 z m 363 113 l 269 113 l 269 308 l 363 308 z "},"ù":{"ha":525,"x_min":0,"x_max":0,"o":"m 469 0 l 469 626 l 357 626 l 357 113 l 161 113 l 161 626 l 49 626 l 49 103 l 151 103 l 151 0 z m 369 722 l 369 833 l 267 833 l 267 936 l 156 936 l 156 825 l 258 825 l 258 722 z "},"ú":{"ha":525,"x_min":0,"x_max":0,"o":"m 469 0 l 469 626 l 357 626 l 357 113 l 161 113 l 161 626 l 49 626 l 49 103 l 151 103 l 151 0 z m 267 722 l 267 825 l 369 825 l 369 936 l 258 936 l 258 833 l 156 833 l 156 722 z "},"û":{"ha":525,"x_min":0,"x_max":0,"o":"m 469 0 l 469 626 l 357 626 l 357 113 l 161 113 l 161 626 l 49 626 l 49 103 l 151 103 l 151 0 z m 421 722 l 421 833 l 318 833 l 318 936 l 207 936 l 207 833 l 104 833 l 104 722 l 215 722 l 215 825 l 308 825 l 308 722 z "},"ü":{"ha":525,"x_min":0,"x_max":0,"o":"m 469 0 l 469 626 l 357 626 l 357 113 l 161 113 l 161 626 l 49 626 l 49 103 l 151 103 l 151 0 z m 215 722 l 215 833 l 104 833 l 104 722 z m 421 722 l 421 833 l 308 833 l 308 722 z "},"ý":{"ha":525,"x_min":0,"x_max":0,"o":"m 367 -308 l 367 -206 l 469 -206 l 469 626 l 357 626 l 357 113 l 161 113 l 161 626 l 49 626 l 49 103 l 151 103 l 151 0 l 357 0 l 357 -196 l 161 -196 l 161 -93 l 49 -93 l 49 -206 l 151 -206 l 151 -308 z m 267 722 l 267 825 l 369 825 l 369 936 l 258 936 l 258 833 l 156 833 l 156 722 z "},"þ":{"ha":531,"x_min":0,"x_max":0,"o":"m 167 -308 l 167 0 l 372 0 l 372 103 l 475 103 l 475 524 l 372 524 l 372 626 l 167 626 l 167 832 l 56 832 l 56 -308 z m 363 113 l 167 113 l 167 514 l 363 514 z "},"ÿ":{"ha":525,"x_min":0,"x_max":0,"o":"m 367 -308 l 367 -206 l 469 -206 l 469 626 l 357 626 l 357 113 l 161 113 l 161 626 l 49 626 l 49 103 l 151 103 l 151 0 l 357 0 l 357 -196 l 161 -196 l 161 -93 l 49 -93 l 49 -206 l 151 -206 l 151 -308 z m 215 722 l 215 833 l 104 833 l 104 722 z m 421 722 l 421 833 l 308 833 l 308 722 z "},"Ā":{"ha":736,"x_min":0,"x_max":0,"o":"m 681 0 l 681 318 l 578 318 l 578 626 l 475 626 l 475 832 l 260 832 l 260 626 l 158 626 l 158 318 l 56 318 l 56 0 l 167 0 l 167 308 l 568 308 l 568 0 z m 465 421 l 269 421 l 269 617 l 465 617 z m 578 928 l 578 1039 l 158 1039 l 158 928 z "},"ā":{"ha":614,"x_min":0,"x_max":0,"o":"m 568 0 l 568 113 l 465 113 l 465 524 l 363 524 l 363 626 l 149 626 l 149 514 l 354 514 l 354 421 l 149 421 l 149 318 l 46 318 l 46 103 l 149 103 l 149 0 l 363 0 l 363 103 l 457 103 l 457 0 z m 354 113 l 158 113 l 158 308 l 354 308 z m 517 722 l 517 833 l 97 833 l 97 722 z "},"Ă":{"ha":736,"x_min":0,"x_max":0,"o":"m 681 0 l 681 318 l 578 318 l 578 626 l 475 626 l 475 832 l 260 832 l 260 626 l 158 626 l 158 318 l 56 318 l 56 0 l 167 0 l 167 308 l 568 308 l 568 0 z m 465 421 l 269 421 l 269 617 l 465 617 z m 475 928 l 475 1031 l 578 1031 l 578 1142 l 465 1142 l 465 1039 l 269 1039 l 269 1142 l 158 1142 l 158 1031 l 261 1031 l 261 928 z "},"ă":{"ha":614,"x_min":0,"x_max":0,"o":"m 568 0 l 568 113 l 465 113 l 465 524 l 363 524 l 363 626 l 149 626 l 149 514 l 354 514 l 354 421 l 149 421 l 149 318 l 46 318 l 46 103 l 149 103 l 149 0 l 363 0 l 363 103 l 457 103 l 457 0 z m 354 113 l 158 113 l 158 308 l 354 308 z m 414 722 l 414 825 l 517 825 l 517 936 l 404 936 l 404 833 l 208 833 l 208 936 l 97 936 l 97 825 l 200 825 l 200 722 z "},"Ą":{"ha":736,"x_min":0,"x_max":0,"o":"m 681 -308 l 681 -196 l 475 -196 l 475 -103 l 578 -103 l 578 0 l 681 0 l 681 318 l 578 318 l 578 626 l 475 626 l 475 832 l 260 832 l 260 626 l 158 626 l 158 318 l 56 318 l 56 0 l 167 0 l 167 308 l 568 308 l 568 10 l 465 10 l 465 -93 l 363 -93 l 363 -206 l 465 -206 l 465 -308 z m 465 421 l 269 421 l 269 617 l 465 617 z "},"ą":{"ha":633,"x_min":0,"x_max":0,"o":"m 578 -308 l 578 -196 l 372 -196 l 372 -103 l 475 -103 l 475 0 l 578 0 l 578 113 l 475 113 l 475 524 l 372 524 l 372 626 l 158 626 l 158 514 l 363 514 l 363 421 l 158 421 l 158 318 l 56 318 l 56 103 l 158 103 l 158 0 l 363 0 l 363 -93 l 260 -93 l 260 -206 l 363 -206 l 363 -308 z m 363 113 l 167 113 l 167 308 l 363 308 z m 465 10 l 372 10 l 372 103 l 465 103 z "},"Ć":{"ha":633,"x_min":0,"x_max":0,"o":"m 475 0 l 475 103 l 578 103 l 578 215 l 465 215 l 465 113 l 167 113 l 167 719 l 465 719 l 465 617 l 578 617 l 578 729 l 475 729 l 475 832 l 158 832 l 158 729 l 56 729 l 56 103 l 158 103 l 158 0 z m 321 928 l 321 1031 l 424 1031 l 424 1142 l 313 1142 l 313 1039 l 210 1039 l 210 928 z "},"ć":{"ha":521,"x_min":0,"x_max":0,"o":"m 372 0 l 372 103 l 475 103 l 475 215 l 363 215 l 363 113 l 167 113 l 167 514 l 363 514 l 363 411 l 475 411 l 475 524 l 372 524 l 372 626 l 158 626 l 158 524 l 56 524 l 56 103 l 158 103 l 158 0 z m 264 722 l 264 825 l 367 825 l 367 936 l 256 936 l 256 833 l 153 833 l 153 722 z "},"Ċ":{"ha":633,"x_min":0,"x_max":0,"o":"m 475 0 l 475 103 l 578 103 l 578 215 l 465 215 l 465 113 l 167 113 l 167 719 l 465 719 l 465 617 l 578 617 l 578 729 l 475 729 l 475 832 l 158 832 l 158 729 l 56 729 l 56 103 l 158 103 l 158 0 z m 372 928 l 372 1039 l 261 1039 l 261 928 z "},"ċ":{"ha":521,"x_min":0,"x_max":0,"o":"m 372 0 l 372 103 l 475 103 l 475 215 l 363 215 l 363 113 l 167 113 l 167 514 l 363 514 l 363 411 l 475 411 l 475 524 l 372 524 l 372 626 l 158 626 l 158 524 l 56 524 l 56 103 l 158 103 l 158 0 z m 315 722 l 315 833 l 204 833 l 204 722 z "},"Č":{"ha":633,"x_min":0,"x_max":0,"o":"m 475 0 l 475 103 l 578 103 l 578 215 l 465 215 l 465 113 l 167 113 l 167 719 l 465 719 l 465 617 l 578 617 l 578 729 l 475 729 l 475 832 l 158 832 l 158 729 l 56 729 l 56 103 l 158 103 l 158 0 z m 372 928 l 372 1031 l 475 1031 l 475 1142 l 363 1142 l 363 1039 l 269 1039 l 269 1142 l 158 1142 l 158 1031 l 261 1031 l 261 928 z "},"č":{"ha":521,"x_min":0,"x_max":0,"o":"m 372 0 l 372 103 l 475 103 l 475 215 l 363 215 l 363 113 l 167 113 l 167 514 l 363 514 l 363 411 l 475 411 l 475 524 l 372 524 l 372 626 l 158 626 l 158 524 l 56 524 l 56 103 l 158 103 l 158 0 z m 315 722 l 315 825 l 418 825 l 418 936 l 306 936 l 306 833 l 213 833 l 213 936 l 101 936 l 101 825 l 204 825 l 204 722 z "},"Ď":{"ha":633,"x_min":0,"x_max":0,"o":"m 578 206 l 578 626 l 475 626 l 475 729 l 372 729 l 372 832 l 56 832 l 56 0 l 372 0 l 372 103 l 475 103 l 475 206 z m 465 215 l 363 215 l 363 113 l 167 113 l 167 719 l 363 719 l 363 617 l 465 617 z m 372 928 l 372 1031 l 475 1031 l 475 1142 l 363 1142 l 363 1039 l 269 1039 l 269 1142 l 158 1142 l 158 1031 l 261 1031 l 261 928 z "},"ď":{"ha":760,"x_min":0,"x_max":0,"o":"m 465 0 l 465 832 l 354 832 l 354 626 l 149 626 l 149 524 l 46 524 l 46 103 l 149 103 l 149 0 z m 354 113 l 158 113 l 158 514 l 354 514 z m 661 617 l 661 719 l 764 719 l 764 935 l 653 935 l 653 729 l 550 729 l 550 617 z "},"Đ":{"ha":678,"x_min":0,"x_max":0,"o":"m 417 0 l 417 103 l 519 103 l 519 206 l 622 206 l 622 626 l 519 626 l 519 729 l 417 729 l 417 832 l 99 832 l 99 524 l 56 524 l 56 411 l 99 411 l 99 0 z m 510 215 l 407 215 l 407 113 l 211 113 l 211 411 l 314 411 l 314 524 l 211 524 l 211 719 l 407 719 l 407 617 l 510 617 z "},"đ":{"ha":564,"x_min":0,"x_max":0,"o":"m 465 0 l 465 617 l 568 617 l 568 729 l 465 729 l 465 832 l 354 832 l 354 729 l 149 729 l 149 617 l 354 617 l 354 525 l 149 525 l 149 422 l 46 422 l 46 103 l 149 103 l 149 0 z m 354 113 l 158 113 l 158 413 l 354 413 z "},"Ē":{"ha":524,"x_min":0,"x_max":0,"o":"m 475 0 l 475 113 l 167 113 l 167 411 l 475 411 l 475 524 l 167 524 l 167 719 l 475 719 l 475 832 l 56 832 l 56 0 z m 472 928 l 472 1039 l 53 1039 l 53 928 z "},"ē":{"ha":531,"x_min":0,"x_max":0,"o":"m 372 0 l 372 103 l 475 103 l 475 215 l 363 215 l 363 113 l 167 113 l 167 308 l 475 308 l 475 524 l 372 524 l 372 626 l 158 626 l 158 524 l 56 524 l 56 103 l 158 103 l 158 0 z m 363 421 l 167 421 l 167 514 l 363 514 z m 475 722 l 475 833 l 56 833 l 56 722 z "},"Ĕ":{"ha":524,"x_min":0,"x_max":0,"o":"m 475 0 l 475 113 l 167 113 l 167 411 l 475 411 l 475 524 l 167 524 l 167 719 l 475 719 l 475 832 l 56 832 l 56 0 z m 369 928 l 369 1031 l 472 1031 l 472 1142 l 360 1142 l 360 1039 l 164 1039 l 164 1142 l 53 1142 l 53 1031 l 156 1031 l 156 928 z "},"ĕ":{"ha":531,"x_min":0,"x_max":0,"o":"m 372 0 l 372 103 l 475 103 l 475 215 l 363 215 l 363 113 l 167 113 l 167 308 l 475 308 l 475 524 l 372 524 l 372 626 l 158 626 l 158 524 l 56 524 l 56 103 l 158 103 l 158 0 z m 363 421 l 167 421 l 167 514 l 363 514 z m 372 722 l 372 825 l 475 825 l 475 936 l 363 936 l 363 833 l 167 833 l 167 936 l 56 936 l 56 825 l 158 825 l 158 722 z "},"Ė":{"ha":524,"x_min":0,"x_max":0,"o":"m 475 0 l 475 113 l 167 113 l 167 411 l 475 411 l 475 524 l 167 524 l 167 719 l 475 719 l 475 832 l 56 832 l 56 0 z m 317 928 l 317 1039 l 206 1039 l 206 928 z "},"ė":{"ha":531,"x_min":0,"x_max":0,"o":"m 372 0 l 372 103 l 475 103 l 475 215 l 363 215 l 363 113 l 167 113 l 167 308 l 475 308 l 475 524 l 372 524 l 372 626 l 158 626 l 158 524 l 56 524 l 56 103 l 158 103 l 158 0 z m 363 421 l 167 421 l 167 514 l 363 514 z m 321 722 l 321 833 l 210 833 l 210 722 z "},"Ę":{"ha":524,"x_min":0,"x_max":0,"o":"m 475 -308 l 475 -196 l 269 -196 l 269 -103 l 372 -103 l 372 0 l 475 0 l 475 113 l 167 113 l 167 411 l 475 411 l 475 524 l 167 524 l 167 719 l 475 719 l 475 832 l 56 832 l 56 0 l 260 0 l 260 -93 l 158 -93 l 158 -206 l 260 -206 l 260 -308 z "},"ę":{"ha":531,"x_min":0,"x_max":0,"o":"m 475 -308 l 475 -196 l 269 -196 l 269 -103 l 372 -103 l 372 103 l 475 103 l 475 215 l 363 215 l 363 113 l 167 113 l 167 308 l 475 308 l 475 524 l 372 524 l 372 626 l 158 626 l 158 524 l 56 524 l 56 103 l 158 103 l 158 0 l 260 0 l 260 -93 l 158 -93 l 158 -206 l 260 -206 l 260 -308 z m 363 421 l 167 421 l 167 514 l 363 514 z "},"Ě":{"ha":524,"x_min":0,"x_max":0,"o":"m 475 0 l 475 113 l 167 113 l 167 411 l 475 411 l 475 524 l 167 524 l 167 719 l 475 719 l 475 832 l 56 832 l 56 0 z m 317 928 l 317 1031 l 419 1031 l 419 1142 l 307 1142 l 307 1039 l 214 1039 l 214 1142 l 103 1142 l 103 1031 l 206 1031 l 206 928 z "},"ě":{"ha":531,"x_min":0,"x_max":0,"o":"m 372 0 l 372 103 l 475 103 l 475 215 l 363 215 l 363 113 l 167 113 l 167 308 l 475 308 l 475 524 l 372 524 l 372 626 l 158 626 l 158 524 l 56 524 l 56 103 l 158 103 l 158 0 z m 363 421 l 167 421 l 167 514 l 363 514 z m 321 722 l 321 825 l 424 825 l 424 936 l 311 936 l 311 833 l 218 833 l 218 936 l 107 936 l 107 825 l 210 825 l 210 722 z "},"Ğ":{"ha":633,"x_min":0,"x_max":0,"o":"m 578 0 l 578 524 l 260 524 l 260 411 l 465 411 l 465 215 l 363 215 l 363 113 l 167 113 l 167 719 l 465 719 l 465 617 l 578 617 l 578 729 l 475 729 l 475 832 l 158 832 l 158 729 l 56 729 l 56 103 l 158 103 l 158 0 l 372 0 l 372 103 l 465 103 l 465 0 z m 424 928 l 424 1031 l 526 1031 l 526 1142 l 414 1142 l 414 1039 l 218 1039 l 218 1142 l 107 1142 l 107 1031 l 210 1031 l 210 928 z "},"ğ":{"ha":525,"x_min":0,"x_max":0,"o":"m 367 -308 l 367 -206 l 469 -206 l 469 626 l 151 626 l 151 524 l 49 524 l 49 103 l 151 103 l 151 0 l 357 0 l 357 -196 l 161 -196 l 161 -93 l 49 -93 l 49 -206 l 151 -206 l 151 -308 z m 357 113 l 161 113 l 161 514 l 357 514 z m 369 722 l 369 825 l 472 825 l 472 936 l 360 936 l 360 833 l 164 833 l 164 936 l 53 936 l 53 825 l 156 825 l 156 722 z "},"Ġ":{"ha":633,"x_min":0,"x_max":0,"o":"m 578 0 l 578 524 l 260 524 l 260 411 l 465 411 l 465 215 l 363 215 l 363 113 l 167 113 l 167 719 l 465 719 l 465 617 l 578 617 l 578 729 l 475 729 l 475 832 l 158 832 l 158 729 l 56 729 l 56 103 l 158 103 l 158 0 l 372 0 l 372 103 l 465 103 l 465 0 z m 372 928 l 372 1039 l 261 1039 l 261 928 z "},"ġ":{"ha":525,"x_min":0,"x_max":0,"o":"m 367 -308 l 367 -206 l 469 -206 l 469 626 l 151 626 l 151 524 l 49 524 l 49 103 l 151 103 l 151 0 l 357 0 l 357 -196 l 161 -196 l 161 -93 l 49 -93 l 49 -206 l 151 -206 l 151 -308 z m 357 113 l 161 113 l 161 514 l 357 514 z m 318 722 l 318 833 l 207 833 l 207 722 z "},"Ģ":{"ha":633,"x_min":0,"x_max":0,"o":"m 578 0 l 578 524 l 260 524 l 260 411 l 465 411 l 465 215 l 363 215 l 363 113 l 167 113 l 167 719 l 465 719 l 465 617 l 578 617 l 578 729 l 475 729 l 475 832 l 158 832 l 158 729 l 56 729 l 56 103 l 158 103 l 158 0 l 372 0 l 372 103 l 465 103 l 465 0 z m 279 -308 l 279 -206 l 382 -206 l 382 -93 l 271 -93 l 271 -196 l 168 -196 l 168 -308 z "},"ģ":{"ha":531,"x_min":0,"x_max":0,"o":"m 372 -308 l 372 -206 l 475 -206 l 475 626 l 158 626 l 158 524 l 56 524 l 56 103 l 158 103 l 158 0 l 363 0 l 363 -196 l 167 -196 l 167 -93 l 56 -93 l 56 -206 l 158 -206 l 158 -308 z m 363 113 l 167 113 l 167 514 l 363 514 z m 372 719 l 372 822 l 475 822 l 475 935 l 363 935 l 363 832 l 260 832 l 260 719 z "},"Ħ":{"ha":633,"x_min":0,"x_max":0,"o":"m 578 0 l 578 832 l 465 832 l 465 729 l 167 729 l 167 832 l 56 832 l 56 0 l 167 0 l 167 411 l 465 411 l 465 0 z m 465 524 l 167 524 l 167 617 l 465 617 z "},"ħ":{"ha":568,"x_min":0,"x_max":0,"o":"m 519 0 l 519 421 l 417 421 l 417 524 l 211 524 l 211 617 l 415 617 l 415 729 l 211 729 l 211 832 l 99 832 l 99 729 l -4 729 l -4 617 l 99 617 l 99 0 l 211 0 l 211 411 l 407 411 l 407 0 z "},"Ĩ":{"ha":222,"x_min":0,"x_max":0,"o":"m 167 0 l 167 832 l 56 832 l 56 0 z m 218 928 l 218 1031 l 321 1031 l 321 1142 l 208 1142 l 208 1039 l 115 1039 l 115 1142 l 4 1142 l 4 1039 l -99 1039 l -99 928 l 13 928 l 13 1031 l 106 1031 l 106 928 z "},"ĩ":{"ha":235,"x_min":0,"x_max":0,"o":"m 175 0 l 175 626 l 63 626 l 63 0 z m 225 722 l 225 825 l 328 825 l 328 936 l 215 936 l 215 833 l 122 833 l 122 936 l 11 936 l 11 833 l -92 833 l -92 722 l 19 722 l 19 825 l 113 825 l 113 722 z "},"Ī":{"ha":222,"x_min":0,"x_max":0,"o":"m 167 0 l 167 832 l 56 832 l 56 0 z m 321 928 l 321 1039 l -99 1039 l -99 928 z "},"ī":{"ha":235,"x_min":0,"x_max":0,"o":"m 175 0 l 175 626 l 63 626 l 63 0 z m 328 722 l 328 833 l -92 833 l -92 722 z "},"Ĭ":{"ha":222,"x_min":0,"x_max":0,"o":"m 167 0 l 167 832 l 56 832 l 56 0 z m 218 928 l 218 1031 l 321 1031 l 321 1142 l 208 1142 l 208 1039 l 13 1039 l 13 1142 l -99 1142 l -99 1031 l 4 1031 l 4 928 z "},"ĭ":{"ha":235,"x_min":0,"x_max":0,"o":"m 175 0 l 175 626 l 63 626 l 63 0 z m 225 722 l 225 825 l 328 825 l 328 936 l 215 936 l 215 833 l 19 833 l 19 936 l -92 936 l -92 825 l 11 825 l 11 722 z "},"Į":{"ha":222,"x_min":0,"x_max":0,"o":"m 269 -308 l 269 -196 l 64 -196 l 64 -103 l 167 -103 l 167 832 l 56 832 l 56 -93 l -47 -93 l -47 -206 l 56 -206 l 56 -308 z "},"į":{"ha":222,"x_min":0,"x_max":0,"o":"m 269 -308 l 269 -196 l 64 -196 l 64 -103 l 167 -103 l 167 626 l 56 626 l 56 -93 l -47 -93 l -47 -206 l 56 -206 l 56 -308 z "},"İ":{"ha":222,"x_min":0,"x_max":0,"o":"m 167 0 l 167 832 l 56 832 l 56 0 z m 167 928 l 167 1039 l 56 1039 l 56 928 z "},"ı":{"ha":235,"x_min":0,"x_max":0,"o":"m 175 0 l 175 626 l 63 626 l 63 0 z "},"Ĳ":{"ha":694,"x_min":0,"x_max":0,"o":"m 167 0 l 167 832 l 56 832 l 56 0 z m 538 0 l 538 103 l 640 103 l 640 832 l 528 832 l 528 113 l 332 113 l 332 318 l 219 318 l 219 103 l 322 103 l 322 0 z "},"ĳ":{"ha":421,"x_min":0,"x_max":0,"o":"m 176 0 l 176 626 l 64 626 l 64 0 z m 176 719 l 176 832 l 64 832 l 64 719 z m 264 -308 l 264 -206 l 367 -206 l 367 626 l 254 626 l 254 -196 l 151 -196 l 151 -308 z m 367 719 l 367 832 l 254 832 l 254 719 z "},"Ķ":{"ha":608,"x_min":0,"x_max":0,"o":"m 578 0 l 578 113 l 475 113 l 475 318 l 372 318 l 372 524 l 269 524 l 269 617 l 372 617 l 372 719 l 475 719 l 475 832 l 363 832 l 363 729 l 260 729 l 260 626 l 167 626 l 167 832 l 56 832 l 56 0 l 167 0 l 167 514 l 260 514 l 260 308 l 363 308 l 363 103 l 465 103 l 465 0 z m 243 -308 l 243 -206 l 346 -206 l 346 -93 l 235 -93 l 235 -196 l 132 -196 l 132 -308 z "},"ķ":{"ha":521,"x_min":0,"x_max":0,"o":"m 475 0 l 475 113 l 372 113 l 372 215 l 269 215 l 269 411 l 372 411 l 372 514 l 475 514 l 475 626 l 363 626 l 363 524 l 260 524 l 260 421 l 167 421 l 167 832 l 56 832 l 56 -11 l 167 -11 l 167 206 l 260 206 l 260 103 l 363 103 l 363 0 z m 264 -308 l 264 -206 l 367 -206 l 367 -93 l 256 -93 l 256 -196 l 153 -196 l 153 -308 z "},"Ĺ":{"ha":493,"x_min":0,"x_max":0,"o":"m 475 0 l 475 113 l 167 113 l 167 832 l 56 832 l 56 0 z m 121 928 l 121 1031 l 224 1031 l 224 1142 l 113 1142 l 113 1039 l 10 1039 l 10 928 z "},"ĺ":{"ha":222,"x_min":0,"x_max":0,"o":"m 167 0 l 167 832 l 56 832 l 56 0 z m 115 928 l 115 1031 l 218 1031 l 218 1142 l 107 1142 l 107 1039 l 4 1039 l 4 928 z "},"Ļ":{"ha":493,"x_min":0,"x_max":0,"o":"m 475 0 l 475 113 l 167 113 l 167 832 l 56 832 l 56 0 z m 228 -308 l 228 -206 l 331 -206 l 331 -93 l 219 -93 l 219 -196 l 117 -196 l 117 -308 z "},"ļ":{"ha":222,"x_min":0,"x_max":0,"o":"m 167 0 l 167 832 l 56 832 l 56 0 z m 63 -308 l 63 -206 l 165 -206 l 165 -93 l 54 -93 l 54 -196 l -49 -196 l -49 -308 z "},"Ľ":{"ha":493,"x_min":0,"x_max":0,"o":"m 475 0 l 475 113 l 167 113 l 167 832 l 56 832 l 56 0 z m 344 617 l 344 719 l 447 719 l 447 832 l 335 832 l 335 729 l 232 729 l 232 617 z "},"ľ":{"ha":414,"x_min":0,"x_max":0,"o":"m 167 0 l 167 832 l 56 832 l 56 0 z m 315 617 l 315 719 l 418 719 l 418 832 l 306 832 l 306 729 l 203 729 l 203 617 z "},"Ŀ":{"ha":493,"x_min":0,"x_max":0,"o":"m 475 0 l 475 113 l 167 113 l 167 832 l 56 832 l 56 0 z m 357 411 l 357 524 l 244 524 l 244 411 z "},"ŀ":{"ha":317,"x_min":0,"x_max":0,"o":"m 167 0 l 167 832 l 56 832 l 56 0 z m 307 411 l 307 524 l 194 524 l 194 411 z "},"Ł":{"ha":550,"x_min":0,"x_max":0,"o":"m 532 0 l 532 113 l 224 113 l 224 411 l 326 411 l 326 514 l 429 514 l 429 626 l 317 626 l 317 524 l 224 524 l 224 832 l 111 832 l 111 421 l 8 421 l 8 308 l 111 308 l 111 0 z "},"ł":{"ha":343,"x_min":0,"x_max":0,"o":"m 226 0 l 226 411 l 329 411 l 329 524 l 226 524 l 226 832 l 114 832 l 114 421 l 11 421 l 11 308 l 114 308 l 114 0 z "},"Ń":{"ha":633,"x_min":0,"x_max":0,"o":"m 578 0 l 578 832 l 465 832 l 465 318 l 372 318 l 372 524 l 269 524 l 269 729 l 167 729 l 167 832 l 56 832 l 56 0 l 167 0 l 167 514 l 260 514 l 260 308 l 363 308 l 363 103 l 465 103 l 465 0 z m 321 928 l 321 1031 l 424 1031 l 424 1142 l 313 1142 l 313 1039 l 210 1039 l 210 928 z "},"ń":{"ha":528,"x_min":0,"x_max":0,"o":"m 475 0 l 475 524 l 372 524 l 372 626 l 56 626 l 56 0 l 167 0 l 167 514 l 363 514 l 363 0 z m 268 722 l 268 825 l 371 825 l 371 936 l 260 936 l 260 833 l 157 833 l 157 722 z "},"Ņ":{"ha":633,"x_min":0,"x_max":0,"o":"m 578 0 l 578 832 l 465 832 l 465 318 l 372 318 l 372 524 l 269 524 l 269 729 l 167 729 l 167 832 l 56 832 l 56 0 l 167 0 l 167 514 l 260 514 l 260 308 l 363 308 l 363 103 l 465 103 l 465 0 z m 261 -308 l 261 -206 l 364 -206 l 364 -93 l 253 -93 l 253 -196 l 150 -196 l 150 -308 z "},"ņ":{"ha":528,"x_min":0,"x_max":0,"o":"m 475 0 l 475 524 l 372 524 l 372 626 l 56 626 l 56 0 l 167 0 l 167 514 l 363 514 l 363 0 z m 208 -308 l 208 -206 l 311 -206 l 311 -93 l 200 -93 l 200 -196 l 97 -196 l 97 -308 z "},"Ň":{"ha":633,"x_min":0,"x_max":0,"o":"m 578 0 l 578 832 l 465 832 l 465 318 l 372 318 l 372 524 l 269 524 l 269 729 l 167 729 l 167 832 l 56 832 l 56 0 l 167 0 l 167 514 l 260 514 l 260 308 l 363 308 l 363 103 l 465 103 l 465 0 z m 372 928 l 372 1031 l 475 1031 l 475 1142 l 363 1142 l 363 1039 l 269 1039 l 269 1142 l 158 1142 l 158 1031 l 261 1031 l 261 928 z "},"ň":{"ha":528,"x_min":0,"x_max":0,"o":"m 475 0 l 475 524 l 372 524 l 372 626 l 56 626 l 56 0 l 167 0 l 167 514 l 363 514 l 363 0 z m 319 722 l 319 825 l 422 825 l 422 936 l 310 936 l 310 833 l 217 833 l 217 936 l 106 936 l 106 825 l 208 825 l 208 722 z "},"Ŋ":{"ha":633,"x_min":0,"x_max":0,"o":"m 475 -308 l 475 -206 l 578 -206 l 578 832 l 465 832 l 465 318 l 372 318 l 372 524 l 269 524 l 269 729 l 167 729 l 167 832 l 56 832 l 56 0 l 167 0 l 167 514 l 260 514 l 260 308 l 363 308 l 363 103 l 465 103 l 465 -196 l 363 -196 l 363 -308 z "},"ŋ":{"ha":531,"x_min":0,"x_max":0,"o":"m 372 -308 l 372 -206 l 475 -206 l 475 524 l 372 524 l 372 626 l 56 626 l 56 0 l 167 0 l 167 514 l 363 514 l 363 -196 l 260 -196 l 260 -308 z "},"Ō":{"ha":633,"x_min":0,"x_max":0,"o":"m 475 0 l 475 103 l 578 103 l 578 729 l 475 729 l 475 832 l 158 832 l 158 729 l 56 729 l 56 103 l 158 103 l 158 0 z m 465 113 l 167 113 l 167 719 l 465 719 z m 526 928 l 526 1039 l 107 1039 l 107 928 z "},"ō":{"ha":518,"x_min":0,"x_max":0,"o":"m 367 0 l 367 103 l 469 103 l 469 524 l 367 524 l 367 626 l 151 626 l 151 524 l 49 524 l 49 103 l 151 103 l 151 0 z m 357 113 l 161 113 l 161 514 l 357 514 z m 469 722 l 469 833 l 50 833 l 50 722 z "},"Ŏ":{"ha":633,"x_min":0,"x_max":0,"o":"m 475 0 l 475 103 l 578 103 l 578 729 l 475 729 l 475 832 l 158 832 l 158 729 l 56 729 l 56 103 l 158 103 l 158 0 z m 465 113 l 167 113 l 167 719 l 465 719 z m 424 928 l 424 1031 l 526 1031 l 526 1142 l 414 1142 l 414 1039 l 218 1039 l 218 1142 l 107 1142 l 107 1031 l 210 1031 l 210 928 z "},"ŏ":{"ha":518,"x_min":0,"x_max":0,"o":"m 367 0 l 367 103 l 469 103 l 469 524 l 367 524 l 367 626 l 151 626 l 151 524 l 49 524 l 49 103 l 151 103 l 151 0 z m 357 113 l 161 113 l 161 514 l 357 514 z m 367 722 l 367 825 l 469 825 l 469 936 l 357 936 l 357 833 l 161 833 l 161 936 l 50 936 l 50 825 l 153 825 l 153 722 z "},"Ő":{"ha":633,"x_min":0,"x_max":0,"o":"m 475 0 l 475 103 l 578 103 l 578 729 l 475 729 l 475 832 l 158 832 l 158 729 l 56 729 l 56 103 l 158 103 l 158 0 z m 465 113 l 167 113 l 167 719 l 465 719 z m 475 928 l 475 1031 l 578 1031 l 578 1244 l 465 1244 l 465 1039 l 363 1039 l 363 928 z m 167 928 l 167 1031 l 269 1031 l 269 1244 l 158 1244 l 158 1039 l 56 1039 l 56 928 z "},"ő":{"ha":518,"x_min":0,"x_max":0,"o":"m 367 0 l 367 103 l 469 103 l 469 524 l 367 524 l 367 626 l 151 626 l 151 524 l 49 524 l 49 103 l 151 103 l 151 0 z m 357 113 l 161 113 l 161 514 l 357 514 z m 418 722 l 418 825 l 521 825 l 521 1039 l 408 1039 l 408 833 l 306 833 l 306 722 z m 110 722 l 110 825 l 213 825 l 213 1039 l 101 1039 l 101 833 l -1 833 l -1 722 z "},"Œ":{"ha":925,"x_min":0,"x_max":0,"o":"m 882 0 l 882 113 l 574 113 l 574 411 l 882 411 l 882 524 l 574 524 l 574 719 l 882 719 l 882 832 l 153 832 l 153 729 l 50 729 l 50 103 l 153 103 l 153 0 z m 461 113 l 163 113 l 163 719 l 461 719 z "},"œ":{"ha":829,"x_min":0,"x_max":0,"o":"m 671 0 l 671 103 l 774 103 l 774 215 l 661 215 l 661 113 l 465 113 l 465 308 l 774 308 l 774 524 l 671 524 l 671 626 l 457 626 l 457 524 l 363 524 l 363 626 l 149 626 l 149 524 l 46 524 l 46 103 l 149 103 l 149 0 l 363 0 l 363 103 l 457 103 l 457 0 z m 354 113 l 158 113 l 158 514 l 354 514 z m 661 421 l 465 421 l 465 514 l 661 514 z "},"Ŕ":{"ha":633,"x_min":0,"x_max":0,"o":"m 578 0 l 578 215 l 475 215 l 475 514 l 578 514 l 578 729 l 475 729 l 475 832 l 56 832 l 56 0 l 167 0 l 167 411 l 363 411 l 363 206 l 465 206 l 465 0 z m 465 524 l 167 524 l 167 719 l 465 719 z m 321 928 l 321 1031 l 424 1031 l 424 1142 l 313 1142 l 313 1039 l 210 1039 l 210 928 z "},"ŕ":{"ha":406,"x_min":0,"x_max":0,"o":"m 167 0 l 167 411 l 269 411 l 269 514 l 372 514 l 372 626 l 260 626 l 260 524 l 167 524 l 167 626 l 56 626 l 56 0 z m 207 722 l 207 825 l 310 825 l 310 936 l 199 936 l 199 833 l 96 833 l 96 722 z "},"Ŗ":{"ha":633,"x_min":0,"x_max":0,"o":"m 578 0 l 578 215 l 475 215 l 475 514 l 578 514 l 578 729 l 475 729 l 475 832 l 56 832 l 56 0 l 167 0 l 167 411 l 363 411 l 363 206 l 465 206 l 465 0 z m 465 524 l 167 524 l 167 719 l 465 719 z m 257 -308 l 257 -206 l 360 -206 l 360 -93 l 249 -93 l 249 -196 l 146 -196 l 146 -308 z "},"ŗ":{"ha":406,"x_min":0,"x_max":0,"o":"m 167 0 l 167 411 l 269 411 l 269 514 l 372 514 l 372 626 l 260 626 l 260 524 l 167 524 l 167 626 l 56 626 l 56 0 z m 58 -308 l 58 -206 l 161 -206 l 161 -93 l 50 -93 l 50 -196 l -53 -196 l -53 -308 z "},"Ř":{"ha":633,"x_min":0,"x_max":0,"o":"m 578 0 l 578 215 l 475 215 l 475 514 l 578 514 l 578 729 l 475 729 l 475 832 l 56 832 l 56 0 l 167 0 l 167 411 l 363 411 l 363 206 l 465 206 l 465 0 z m 465 524 l 167 524 l 167 719 l 465 719 z m 372 928 l 372 1031 l 475 1031 l 475 1142 l 363 1142 l 363 1039 l 269 1039 l 269 1142 l 158 1142 l 158 1031 l 261 1031 l 261 928 z "},"ř":{"ha":406,"x_min":0,"x_max":0,"o":"m 167 0 l 167 411 l 269 411 l 269 514 l 372 514 l 372 626 l 260 626 l 260 524 l 167 524 l 167 626 l 56 626 l 56 0 z m 258 722 l 258 825 l 361 825 l 361 936 l 249 936 l 249 833 l 156 833 l 156 936 l 44 936 l 44 825 l 147 825 l 147 722 z "},"Ś":{"ha":633,"x_min":0,"x_max":0,"o":"m 475 0 l 475 103 l 578 103 l 578 421 l 475 421 l 475 524 l 167 524 l 167 719 l 465 719 l 465 617 l 578 617 l 578 729 l 475 729 l 475 832 l 158 832 l 158 729 l 56 729 l 56 514 l 158 514 l 158 411 l 465 411 l 465 113 l 167 113 l 167 318 l 56 318 l 56 103 l 158 103 l 158 0 z m 321 928 l 321 1031 l 424 1031 l 424 1142 l 313 1142 l 313 1039 l 210 1039 l 210 928 z "},"ś":{"ha":517,"x_min":0,"x_max":0,"o":"m 369 0 l 369 103 l 472 103 l 472 318 l 369 318 l 369 421 l 164 421 l 164 514 l 369 514 l 369 626 l 154 626 l 154 524 l 51 524 l 51 411 l 154 411 l 154 308 l 360 308 l 360 113 l 51 113 l 51 0 z m 263 722 l 263 825 l 365 825 l 365 936 l 254 936 l 254 833 l 151 833 l 151 722 z "},"Ş":{"ha":633,"x_min":0,"x_max":0,"o":"m 475 0 l 475 103 l 578 103 l 578 421 l 475 421 l 475 524 l 167 524 l 167 719 l 465 719 l 465 617 l 578 617 l 578 729 l 475 729 l 475 832 l 158 832 l 158 729 l 56 729 l 56 514 l 158 514 l 158 411 l 465 411 l 465 113 l 167 113 l 167 318 l 56 318 l 56 103 l 158 103 l 158 0 z m 265 -308 l 265 -206 l 368 -206 l 368 -93 l 257 -93 l 257 -196 l 154 -196 l 154 -308 z "},"ş":{"ha":517,"x_min":0,"x_max":0,"o":"m 369 0 l 369 103 l 472 103 l 472 318 l 369 318 l 369 421 l 164 421 l 164 514 l 369 514 l 369 626 l 154 626 l 154 524 l 51 524 l 51 411 l 154 411 l 154 308 l 360 308 l 360 113 l 51 113 l 51 0 z m 193 -308 l 193 -206 l 296 -206 l 296 -93 l 185 -93 l 185 -196 l 82 -196 l 82 -308 z "},"Š":{"ha":633,"x_min":0,"x_max":0,"o":"m 475 0 l 475 103 l 578 103 l 578 421 l 475 421 l 475 524 l 167 524 l 167 719 l 465 719 l 465 617 l 578 617 l 578 729 l 475 729 l 475 832 l 158 832 l 158 729 l 56 729 l 56 514 l 158 514 l 158 411 l 465 411 l 465 113 l 167 113 l 167 318 l 56 318 l 56 103 l 158 103 l 158 0 z m 372 928 l 372 1031 l 475 1031 l 475 1142 l 363 1142 l 363 1039 l 269 1039 l 269 1142 l 158 1142 l 158 1031 l 261 1031 l 261 928 z "},"š":{"ha":517,"x_min":0,"x_max":0,"o":"m 369 0 l 369 103 l 472 103 l 472 318 l 369 318 l 369 421 l 164 421 l 164 514 l 369 514 l 369 626 l 154 626 l 154 524 l 51 524 l 51 411 l 154 411 l 154 308 l 360 308 l 360 113 l 51 113 l 51 0 z m 314 722 l 314 825 l 417 825 l 417 936 l 304 936 l 304 833 l 211 833 l 211 936 l 100 936 l 100 825 l 203 825 l 203 722 z "},"Ţ":{"ha":568,"x_min":0,"x_max":0,"o":"m 340 0 l 340 719 l 546 719 l 546 832 l 22 832 l 22 719 l 228 719 l 228 0 z m 238 -308 l 238 -206 l 340 -206 l 340 -93 l 229 -93 l 229 -196 l 126 -196 l 126 -308 z "},"ţ":{"ha":394,"x_min":0,"x_max":0,"o":"m 350 0 l 350 113 l 247 113 l 247 514 l 350 514 l 350 626 l 247 626 l 247 832 l 135 832 l 135 626 l 32 626 l 32 514 l 135 514 l 135 103 l 238 103 l 238 0 z m 142 -308 l 142 -206 l 244 -206 l 244 -93 l 133 -93 l 133 -196 l 31 -196 l 31 -308 z "},"Ť":{"ha":568,"x_min":0,"x_max":0,"o":"m 340 0 l 340 719 l 546 719 l 546 832 l 22 832 l 22 719 l 228 719 l 228 0 z m 339 928 l 339 1031 l 442 1031 l 442 1142 l 329 1142 l 329 1039 l 236 1039 l 236 1142 l 125 1142 l 125 1031 l 228 1031 l 228 928 z "},"ť":{"ha":593,"x_min":0,"x_max":0,"o":"m 372 0 l 372 113 l 269 113 l 269 514 l 372 514 l 372 626 l 269 626 l 269 832 l 158 832 l 158 626 l 56 626 l 56 514 l 158 514 l 158 103 l 260 103 l 260 0 z m 519 617 l 519 719 l 622 719 l 622 832 l 510 832 l 510 729 l 407 729 l 407 617 z "},"Ŧ":{"ha":565,"x_min":0,"x_max":0,"o":"m 340 0 l 340 411 l 450 411 l 450 524 l 340 524 l 340 719 l 546 719 l 546 832 l 22 832 l 22 719 l 228 719 l 228 524 l 132 524 l 132 411 l 228 411 l 228 0 z "},"ŧ":{"ha":428,"x_min":0,"x_max":0,"o":"m 372 0 l 372 113 l 269 113 l 269 308 l 372 308 l 372 421 l 269 421 l 269 514 l 372 514 l 372 626 l 269 626 l 269 832 l 158 832 l 158 626 l 56 626 l 56 514 l 158 514 l 158 421 l 56 421 l 56 308 l 158 308 l 158 103 l 260 103 l 260 0 z "},"Ũ":{"ha":633,"x_min":0,"x_max":0,"o":"m 475 0 l 475 103 l 578 103 l 578 832 l 465 832 l 465 113 l 167 113 l 167 832 l 56 832 l 56 103 l 158 103 l 158 0 z m 424 928 l 424 1031 l 526 1031 l 526 1142 l 414 1142 l 414 1039 l 321 1039 l 321 1142 l 210 1142 l 210 1039 l 107 1039 l 107 928 l 218 928 l 218 1031 l 311 1031 l 311 928 z "},"ũ":{"ha":525,"x_min":0,"x_max":0,"o":"m 469 0 l 469 626 l 357 626 l 357 113 l 161 113 l 161 626 l 49 626 l 49 103 l 151 103 l 151 0 z m 369 722 l 369 825 l 472 825 l 472 936 l 360 936 l 360 833 l 267 833 l 267 936 l 156 936 l 156 833 l 53 833 l 53 722 l 164 722 l 164 825 l 257 825 l 257 722 z "},"Ū":{"ha":633,"x_min":0,"x_max":0,"o":"m 475 0 l 475 103 l 578 103 l 578 832 l 465 832 l 465 113 l 167 113 l 167 832 l 56 832 l 56 103 l 158 103 l 158 0 z m 526 928 l 526 1039 l 107 1039 l 107 928 z "},"ū":{"ha":525,"x_min":0,"x_max":0,"o":"m 469 0 l 469 626 l 357 626 l 357 113 l 161 113 l 161 626 l 49 626 l 49 103 l 151 103 l 151 0 z m 472 722 l 472 833 l 53 833 l 53 722 z "},"Ŭ":{"ha":633,"x_min":0,"x_max":0,"o":"m 475 0 l 475 103 l 578 103 l 578 832 l 465 832 l 465 113 l 167 113 l 167 832 l 56 832 l 56 103 l 158 103 l 158 0 z m 424 928 l 424 1031 l 526 1031 l 526 1142 l 414 1142 l 414 1039 l 218 1039 l 218 1142 l 107 1142 l 107 1031 l 210 1031 l 210 928 z "},"ŭ":{"ha":525,"x_min":0,"x_max":0,"o":"m 469 0 l 469 626 l 357 626 l 357 113 l 161 113 l 161 626 l 49 626 l 49 103 l 151 103 l 151 0 z m 369 722 l 369 825 l 472 825 l 472 936 l 360 936 l 360 833 l 164 833 l 164 936 l 53 936 l 53 825 l 156 825 l 156 722 z "},"Ů":{"ha":633,"x_min":0,"x_max":0,"o":"m 475 0 l 475 103 l 578 103 l 578 832 l 465 832 l 465 113 l 167 113 l 167 832 l 56 832 l 56 103 l 158 103 l 158 0 z m 372 928 l 372 1031 l 475 1031 l 475 1142 l 372 1142 l 372 1244 l 261 1244 l 261 1142 l 158 1142 l 158 1031 l 261 1031 l 261 928 z m 363 1039 l 269 1039 l 269 1133 l 363 1133 z "},"ů":{"ha":525,"x_min":0,"x_max":0,"o":"m 469 0 l 469 626 l 357 626 l 357 113 l 161 113 l 161 626 l 49 626 l 49 103 l 151 103 l 151 0 z m 318 722 l 318 825 l 421 825 l 421 936 l 318 936 l 318 1039 l 207 1039 l 207 936 l 104 936 l 104 825 l 207 825 l 207 722 z m 308 833 l 215 833 l 215 928 l 308 928 z "},"Ű":{"ha":633,"x_min":0,"x_max":0,"o":"m 475 0 l 475 103 l 578 103 l 578 832 l 465 832 l 465 113 l 167 113 l 167 832 l 56 832 l 56 103 l 158 103 l 158 0 z m 475 928 l 475 1031 l 578 1031 l 578 1244 l 465 1244 l 465 1039 l 363 1039 l 363 928 z m 167 928 l 167 1031 l 269 1031 l 269 1244 l 158 1244 l 158 1039 l 56 1039 l 56 928 z "},"ű":{"ha":525,"x_min":0,"x_max":0,"o":"m 469 0 l 469 626 l 357 626 l 357 113 l 161 113 l 161 626 l 49 626 l 49 103 l 151 103 l 151 0 z m 421 722 l 421 825 l 524 825 l 524 1039 l 411 1039 l 411 833 l 308 833 l 308 722 z m 113 722 l 113 825 l 215 825 l 215 1039 l 104 1039 l 104 833 l 1 833 l 1 722 z "},"Ų":{"ha":633,"x_min":0,"x_max":0,"o":"m 475 -308 l 475 -196 l 269 -196 l 269 -103 l 372 -103 l 372 0 l 475 0 l 475 103 l 578 103 l 578 832 l 465 832 l 465 113 l 167 113 l 167 832 l 56 832 l 56 103 l 158 103 l 158 0 l 260 0 l 260 -93 l 158 -93 l 158 -206 l 260 -206 l 260 -308 z "},"ų":{"ha":531,"x_min":0,"x_max":0,"o":"m 475 -308 l 475 -196 l 269 -196 l 269 -103 l 372 -103 l 372 0 l 475 0 l 475 626 l 363 626 l 363 113 l 167 113 l 167 626 l 56 626 l 56 103 l 158 103 l 158 0 l 260 0 l 260 -93 l 158 -93 l 158 -206 l 260 -206 l 260 -308 z "},"Ŵ":{"ha":839,"x_min":0,"x_max":0,"o":"m 578 0 l 578 206 l 681 206 l 681 514 l 783 514 l 783 832 l 671 832 l 671 524 l 568 524 l 568 215 l 475 215 l 475 832 l 363 832 l 363 215 l 269 215 l 269 524 l 167 524 l 167 832 l 56 832 l 56 514 l 158 514 l 158 206 l 260 206 l 260 0 l 372 0 l 372 206 l 465 206 l 465 0 z m 578 928 l 578 1039 l 475 1039 l 475 1142 l 364 1142 l 364 1039 l 261 1039 l 261 928 l 372 928 l 372 1031 l 465 1031 l 465 928 z "},"ŵ":{"ha":800,"x_min":0,"x_max":0,"o":"m 556 0 l 556 206 l 658 206 l 658 411 l 761 411 l 761 626 l 649 626 l 649 421 l 546 421 l 546 215 l 453 215 l 453 421 l 340 421 l 340 215 l 247 215 l 247 421 l 144 421 l 144 626 l 32 626 l 32 411 l 135 411 l 135 206 l 238 206 l 238 0 l 350 0 l 350 206 l 443 206 l 443 0 z m 558 722 l 558 833 l 456 833 l 456 936 l 344 936 l 344 833 l 242 833 l 242 722 l 353 722 l 353 825 l 446 825 l 446 722 z "},"Ŷ":{"ha":633,"x_min":0,"x_max":0,"o":"m 372 0 l 372 514 l 475 514 l 475 719 l 578 719 l 578 832 l 465 832 l 465 729 l 363 729 l 363 524 l 269 524 l 269 729 l 167 729 l 167 832 l 56 832 l 56 719 l 158 719 l 158 514 l 260 514 l 260 0 z m 475 928 l 475 1039 l 372 1039 l 372 1142 l 261 1142 l 261 1039 l 158 1039 l 158 928 l 269 928 l 269 1031 l 363 1031 l 363 928 z "},"ŷ":{"ha":525,"x_min":0,"x_max":0,"o":"m 367 -308 l 367 -206 l 469 -206 l 469 626 l 357 626 l 357 113 l 161 113 l 161 626 l 49 626 l 49 103 l 151 103 l 151 0 l 357 0 l 357 -196 l 161 -196 l 161 -93 l 49 -93 l 49 -206 l 151 -206 l 151 -308 z m 421 722 l 421 833 l 318 833 l 318 936 l 207 936 l 207 833 l 104 833 l 104 722 l 215 722 l 215 825 l 308 825 l 308 722 z "},"Ÿ":{"ha":633,"x_min":0,"x_max":0,"o":"m 372 0 l 372 514 l 475 514 l 475 719 l 578 719 l 578 832 l 465 832 l 465 729 l 363 729 l 363 524 l 269 524 l 269 729 l 167 729 l 167 832 l 56 832 l 56 719 l 158 719 l 158 514 l 260 514 l 260 0 z m 269 928 l 269 1039 l 158 1039 l 158 928 z m 475 928 l 475 1039 l 363 1039 l 363 928 z "},"Ź":{"ha":531,"x_min":0,"x_max":0,"o":"m 475 0 l 475 113 l 167 113 l 167 206 l 269 206 l 269 411 l 372 411 l 372 617 l 475 617 l 475 832 l 56 832 l 56 719 l 363 719 l 363 626 l 260 626 l 260 421 l 158 421 l 158 215 l 56 215 l 56 0 z m 269 928 l 269 1031 l 372 1031 l 372 1142 l 261 1142 l 261 1039 l 158 1039 l 158 928 z "},"ź":{"ha":508,"x_min":0,"x_max":0,"o":"m 463 0 l 463 113 l 154 113 l 154 206 l 257 206 l 257 308 l 360 308 l 360 411 l 463 411 l 463 626 l 42 626 l 42 514 l 350 514 l 350 421 l 247 421 l 247 318 l 144 318 l 144 215 l 42 215 l 42 0 z m 258 722 l 258 825 l 361 825 l 361 936 l 250 936 l 250 833 l 147 833 l 147 722 z "},"Ż":{"ha":531,"x_min":0,"x_max":0,"o":"m 475 0 l 475 113 l 167 113 l 167 206 l 269 206 l 269 411 l 372 411 l 372 617 l 475 617 l 475 832 l 56 832 l 56 719 l 363 719 l 363 626 l 260 626 l 260 421 l 158 421 l 158 215 l 56 215 l 56 0 z m 321 928 l 321 1039 l 210 1039 l 210 928 z "},"ż":{"ha":508,"x_min":0,"x_max":0,"o":"m 463 0 l 463 113 l 154 113 l 154 206 l 257 206 l 257 308 l 360 308 l 360 411 l 463 411 l 463 626 l 42 626 l 42 514 l 350 514 l 350 421 l 247 421 l 247 318 l 144 318 l 144 215 l 42 215 l 42 0 z m 310 722 l 310 833 l 199 833 l 199 722 z "},"Ž":{"ha":531,"x_min":0,"x_max":0,"o":"m 475 0 l 475 113 l 167 113 l 167 206 l 269 206 l 269 411 l 372 411 l 372 617 l 475 617 l 475 832 l 56 832 l 56 719 l 363 719 l 363 626 l 260 626 l 260 421 l 158 421 l 158 215 l 56 215 l 56 0 z m 321 928 l 321 1031 l 424 1031 l 424 1142 l 311 1142 l 311 1039 l 218 1039 l 218 1142 l 107 1142 l 107 1031 l 210 1031 l 210 928 z "},"ž":{"ha":508,"x_min":0,"x_max":0,"o":"m 463 0 l 463 113 l 154 113 l 154 206 l 257 206 l 257 308 l 360 308 l 360 411 l 463 411 l 463 626 l 42 626 l 42 514 l 350 514 l 350 421 l 247 421 l 247 318 l 144 318 l 144 215 l 42 215 l 42 0 z m 310 722 l 310 825 l 413 825 l 413 936 l 300 936 l 300 833 l 207 833 l 207 936 l 96 936 l 96 825 l 199 825 l 199 722 z "},"ƒ":{"ha":633,"x_min":0,"x_max":0,"o":"m 167 -206 l 167 -103 l 269 -103 l 269 0 l 372 0 l 372 411 l 578 411 l 578 524 l 372 524 l 372 617 l 475 617 l 475 719 l 578 719 l 578 832 l 465 832 l 465 729 l 363 729 l 363 626 l 260 626 l 260 524 l 158 524 l 158 411 l 260 411 l 260 10 l 158 10 l 158 -93 l 56 -93 l 56 -206 z "},"Ơ":{"ha":760,"x_min":0,"x_max":0,"o":"m 475 0 l 475 103 l 578 103 l 578 719 l 681 719 l 681 822 l 783 822 l 783 935 l 671 935 l 671 832 l 568 832 l 568 729 l 475 729 l 475 832 l 158 832 l 158 729 l 56 729 l 56 103 l 158 103 l 158 0 z m 465 113 l 167 113 l 167 719 l 465 719 z "},"ơ":{"ha":657,"x_min":0,"x_max":0,"o":"m 372 0 l 372 103 l 475 103 l 475 514 l 578 514 l 578 617 l 681 617 l 681 729 l 568 729 l 568 626 l 465 626 l 465 524 l 372 524 l 372 626 l 158 626 l 158 524 l 56 524 l 56 103 l 158 103 l 158 0 z m 363 113 l 167 113 l 167 514 l 363 514 z "},"Ư":{"ha":756,"x_min":0,"x_max":0,"o":"m 475 0 l 475 103 l 578 103 l 578 719 l 681 719 l 681 822 l 783 822 l 783 935 l 671 935 l 671 832 l 465 832 l 465 113 l 167 113 l 167 832 l 56 832 l 56 103 l 158 103 l 158 0 z "},"ư":{"ha":660,"x_min":0,"x_max":0,"o":"m 475 0 l 475 514 l 578 514 l 578 617 l 681 617 l 681 729 l 568 729 l 568 626 l 363 626 l 363 113 l 167 113 l 167 626 l 56 626 l 56 103 l 158 103 l 158 0 z "},"Ș":{"ha":633,"x_min":0,"x_max":0,"o":"m 475 0 l 475 103 l 578 103 l 578 421 l 475 421 l 475 524 l 167 524 l 167 719 l 465 719 l 465 617 l 578 617 l 578 729 l 475 729 l 475 832 l 158 832 l 158 729 l 56 729 l 56 514 l 158 514 l 158 411 l 465 411 l 465 113 l 167 113 l 167 318 l 56 318 l 56 103 l 158 103 l 158 0 z m 265 -308 l 265 -206 l 368 -206 l 368 -93 l 257 -93 l 257 -196 l 154 -196 l 154 -308 z "},"ș":{"ha":517,"x_min":0,"x_max":0,"o":"m 369 0 l 369 103 l 472 103 l 472 318 l 369 318 l 369 421 l 164 421 l 164 514 l 369 514 l 369 626 l 154 626 l 154 524 l 51 524 l 51 411 l 154 411 l 154 308 l 360 308 l 360 113 l 51 113 l 51 0 z m 193 -308 l 193 -206 l 296 -206 l 296 -93 l 185 -93 l 185 -196 l 82 -196 l 82 -308 z "},"Ț":{"ha":568,"x_min":0,"x_max":0,"o":"m 340 0 l 340 719 l 546 719 l 546 832 l 22 832 l 22 719 l 228 719 l 228 0 z m 238 -308 l 238 -206 l 340 -206 l 340 -93 l 229 -93 l 229 -196 l 126 -196 l 126 -308 z "},"ț":{"ha":394,"x_min":0,"x_max":0,"o":"m 350 0 l 350 113 l 247 113 l 247 514 l 350 514 l 350 626 l 247 626 l 247 832 l 135 832 l 135 626 l 32 626 l 32 514 l 135 514 l 135 103 l 238 103 l 238 0 z m 142 -308 l 142 -206 l 244 -206 l 244 -93 l 133 -93 l 133 -196 l 31 -196 l 31 -308 z "},"ˆ":{"ha":428,"x_min":0,"x_max":0,"o":"m 372 722 l 372 833 l 269 833 l 269 936 l 158 936 l 158 833 l 56 833 l 56 722 l 167 722 l 167 825 l 260 825 l 260 722 z "},"ˇ":{"ha":428,"x_min":0,"x_max":0,"o":"m 269 722 l 269 825 l 372 825 l 372 936 l 260 936 l 260 833 l 167 833 l 167 936 l 56 936 l 56 825 l 158 825 l 158 722 z "},"ˉ":{"ha":531,"x_min":0,"x_max":0,"o":"m 475 722 l 475 833 l 56 833 l 56 722 z "},"˘":{"ha":531,"x_min":0,"x_max":0,"o":"m 372 722 l 372 825 l 475 825 l 475 936 l 363 936 l 363 833 l 167 833 l 167 936 l 56 936 l 56 825 l 158 825 l 158 722 z "},"˙":{"ha":222,"x_min":0,"x_max":0,"o":"m 167 722 l 167 833 l 56 833 l 56 722 z "},"˚":{"ha":428,"x_min":0,"x_max":0,"o":"m 269 722 l 269 825 l 372 825 l 372 936 l 269 936 l 269 1039 l 158 1039 l 158 936 l 56 936 l 56 825 l 158 825 l 158 722 z m 260 833 l 167 833 l 167 928 l 260 928 z "},"˛":{"ha":428,"x_min":0,"x_max":0,"o":"m 372 -308 l 372 -196 l 167 -196 l 167 -103 l 269 -103 l 269 10 l 158 10 l 158 -93 l 56 -93 l 56 -206 l 158 -206 l 158 -308 z "},"˜":{"ha":531,"x_min":0,"x_max":0,"o":"m 372 722 l 372 825 l 475 825 l 475 936 l 363 936 l 363 833 l 269 833 l 269 936 l 158 936 l 158 833 l 56 833 l 56 722 l 167 722 l 167 825 l 260 825 l 260 722 z "},"˝":{"ha":633,"x_min":0,"x_max":0,"o":"m 433 722 l 433 825 l 536 825 l 536 1039 l 424 1039 l 424 833 l 321 833 l 321 722 z m 125 722 l 125 825 l 228 825 l 228 1039 l 117 1039 l 117 833 l 14 833 l 14 722 z "},"̃":{"ha":428,"x_min":0,"x_max":0,"o":"m 372 722 l 372 833 l 269 833 l 269 936 l 158 936 l 158 833 l 56 833 l 56 722 l 167 722 l 167 825 l 260 825 l 260 722 z m 372 1031 l 372 1142 l 56 1142 l 56 1031 z "},"̉":{"ha":428,"x_min":0,"x_max":0,"o":"m 269 722 l 269 825 l 372 825 l 372 936 l 269 936 l 269 1039 l 56 1039 l 56 928 l 260 928 l 260 833 l 158 833 l 158 722 z "},"̣":{"ha":222,"x_min":0,"x_max":0,"o":"m 167 -282 l 167 -171 l 56 -171 l 56 -282 z "},"̦":{"ha":325,"x_min":0,"x_max":0,"o":"m 167 -308 l 167 -206 l 269 -206 l 269 -93 l 158 -93 l 158 -196 l 56 -196 l 56 -308 z "},";":{"ha":325,"x_min":0,"x_max":0,"o":"m 167 -206 l 167 -103 l 269 -103 l 269 113 l 158 113 l 158 -93 l 56 -93 l 56 -206 z m 269 411 l 269 524 l 158 524 l 158 411 z "},"΄":{"ha":222,"x_min":0,"x_max":0,"o":"m 167 800 l 167 1014 l 56 1014 l 56 800 z "},"΅":{"ha":633,"x_min":0,"x_max":0,"o":"m 372 800 l 372 1014 l 260 1014 l 260 800 z m 578 800 l 578 911 l 465 911 l 465 800 z m 167 800 l 167 911 l 56 911 l 56 800 z "},"Ά":{"ha":736,"x_min":0,"x_max":0,"o":"m 681 0 l 681 318 l 578 318 l 578 626 l 475 626 l 475 832 l 260 832 l 260 626 l 158 626 l 158 318 l 56 318 l 56 0 l 167 0 l 167 308 l 568 308 l 568 0 z m 465 421 l 269 421 l 269 617 l 465 617 z m 113 800 l 113 1014 l 1 1014 l 1 800 z "},"Έ":{"ha":685,"x_min":0,"x_max":0,"o":"m 636 0 l 636 113 l 328 113 l 328 411 l 636 411 l 636 524 l 328 524 l 328 719 l 636 719 l 636 832 l 217 832 l 217 0 z m 111 800 l 111 1014 l 0 1014 l 0 800 z "},"Ή":{"ha":779,"x_min":0,"x_max":0,"o":"m 724 0 l 724 832 l 611 832 l 611 524 l 313 524 l 313 832 l 201 832 l 201 0 l 313 0 l 313 411 l 611 411 l 611 0 z m 113 800 l 113 1014 l 1 1014 l 1 800 z "},"Ί":{"ha":365,"x_min":0,"x_max":0,"o":"m 310 0 l 310 832 l 199 832 l 199 0 z m 111 800 l 111 1014 l 0 1014 l 0 800 z "},"Ό":{"ha":744,"x_min":0,"x_max":0,"o":"m 586 0 l 586 103 l 689 103 l 689 729 l 586 729 l 586 832 l 269 832 l 269 729 l 167 729 l 167 103 l 269 103 l 269 0 z m 576 113 l 278 113 l 278 719 l 576 719 z m 111 800 l 111 1014 l 0 1014 l 0 800 z "},"Ύ":{"ha":765,"x_min":0,"x_max":0,"o":"m 504 0 l 504 514 l 607 514 l 607 719 l 710 719 l 710 832 l 597 832 l 597 729 l 494 729 l 494 524 l 401 524 l 401 729 l 299 729 l 299 832 l 188 832 l 188 719 l 290 719 l 290 514 l 392 514 l 392 0 z m 111 800 l 111 1014 l 0 1014 l 0 800 z "},"Ώ":{"ha":713,"x_min":0,"x_max":0,"o":"m 657 0 l 657 113 l 554 113 l 554 308 l 657 308 l 657 729 l 554 729 l 554 832 l 238 832 l 238 729 l 135 729 l 135 308 l 238 308 l 238 113 l 135 113 l 135 0 l 349 0 l 349 318 l 246 318 l 246 719 l 544 719 l 544 318 l 442 318 l 442 0 z m 111 800 l 111 1014 l 0 1014 l 0 800 z "},"ΐ":{"ha":235,"x_min":0,"x_max":0,"o":"m 175 0 l 175 626 l 63 626 l 63 0 z m 174 800 l 174 1014 l 61 1014 l 61 800 z m 379 800 l 379 911 l 267 911 l 267 800 z m -32 800 l -32 911 l -143 911 l -143 800 z "},"Α":{"ha":736,"x_min":0,"x_max":0,"o":"m 681 0 l 681 318 l 578 318 l 578 626 l 475 626 l 475 832 l 260 832 l 260 626 l 158 626 l 158 318 l 56 318 l 56 0 l 167 0 l 167 308 l 568 308 l 568 0 z m 465 421 l 269 421 l 269 617 l 465 617 z "},"Β":{"ha":633,"x_min":0,"x_max":0,"o":"m 475 0 l 475 103 l 578 103 l 578 421 l 475 421 l 475 514 l 578 514 l 578 729 l 475 729 l 475 832 l 56 832 l 56 0 z m 465 524 l 167 524 l 167 719 l 465 719 z m 465 113 l 167 113 l 167 411 l 465 411 z "},"Γ":{"ha":507,"x_min":0,"x_max":0,"o":"m 167 0 l 167 719 l 475 719 l 475 832 l 56 832 l 56 0 z "},"Δ":{"ha":736,"x_min":0,"x_max":0,"o":"m 681 0 l 681 318 l 578 318 l 578 626 l 475 626 l 475 832 l 260 832 l 260 626 l 158 626 l 158 318 l 56 318 l 56 0 z m 568 113 l 167 113 l 167 308 l 269 308 l 269 617 l 465 617 l 465 308 l 568 308 z "},"Ε":{"ha":524,"x_min":0,"x_max":0,"o":"m 475 0 l 475 113 l 167 113 l 167 411 l 475 411 l 475 524 l 167 524 l 167 719 l 475 719 l 475 832 l 56 832 l 56 0 z "},"Ζ":{"ha":531,"x_min":0,"x_max":0,"o":"m 475 0 l 475 113 l 167 113 l 167 206 l 269 206 l 269 411 l 372 411 l 372 617 l 475 617 l 475 832 l 56 832 l 56 719 l 363 719 l 363 626 l 260 626 l 260 421 l 158 421 l 158 215 l 56 215 l 56 0 z "},"Η":{"ha":633,"x_min":0,"x_max":0,"o":"m 578 0 l 578 832 l 465 832 l 465 524 l 167 524 l 167 832 l 56 832 l 56 0 l 167 0 l 167 411 l 465 411 l 465 0 z "},"Θ":{"ha":633,"x_min":0,"x_max":0,"o":"m 475 0 l 475 103 l 578 103 l 578 729 l 475 729 l 475 832 l 158 832 l 158 729 l 56 729 l 56 103 l 158 103 l 158 0 z m 465 113 l 167 113 l 167 411 l 465 411 z m 465 524 l 167 524 l 167 719 l 465 719 z "},"Ι":{"ha":222,"x_min":0,"x_max":0,"o":"m 167 0 l 167 832 l 56 832 l 56 0 z "},"Κ":{"ha":608,"x_min":0,"x_max":0,"o":"m 578 0 l 578 113 l 475 113 l 475 318 l 372 318 l 372 524 l 269 524 l 269 617 l 372 617 l 372 719 l 475 719 l 475 832 l 363 832 l 363 729 l 260 729 l 260 626 l 167 626 l 167 832 l 56 832 l 56 0 l 167 0 l 167 514 l 260 514 l 260 308 l 363 308 l 363 103 l 465 103 l 465 0 z "},"Λ":{"ha":718,"x_min":0,"x_max":0,"o":"m 671 0 l 671 318 l 568 318 l 568 626 l 465 626 l 465 832 l 251 832 l 251 626 l 149 626 l 149 318 l 46 318 l 46 0 l 158 0 l 158 308 l 260 308 l 260 617 l 457 617 l 457 308 l 558 308 l 558 0 z "},"Μ":{"ha":839,"x_min":0,"x_max":0,"o":"m 783 0 l 783 832 l 671 832 l 671 626 l 568 626 l 568 421 l 465 421 l 465 215 l 372 215 l 372 421 l 269 421 l 269 626 l 167 626 l 167 832 l 56 832 l 56 0 l 167 0 l 167 411 l 260 411 l 260 206 l 363 206 l 363 0 l 475 0 l 475 206 l 571 206 l 571 411 l 671 411 l 671 0 z "},"Ν":{"ha":633,"x_min":0,"x_max":0,"o":"m 578 0 l 578 832 l 465 832 l 465 318 l 372 318 l 372 524 l 269 524 l 269 729 l 167 729 l 167 832 l 56 832 l 56 0 l 167 0 l 167 514 l 260 514 l 260 308 l 363 308 l 363 103 l 465 103 l 465 0 z "},"Ξ":{"ha":633,"x_min":0,"x_max":0,"o":"m 578 719 l 578 832 l 56 832 l 56 719 z m 578 0 l 578 113 l 56 113 l 56 0 z m 578 411 l 578 524 l 56 524 l 56 411 z "},"Ο":{"ha":633,"x_min":0,"x_max":0,"o":"m 475 0 l 475 103 l 578 103 l 578 729 l 475 729 l 475 832 l 158 832 l 158 729 l 56 729 l 56 103 l 158 103 l 158 0 z m 465 113 l 167 113 l 167 719 l 465 719 z "},"Π":{"ha":633,"x_min":0,"x_max":0,"o":"m 578 0 l 578 832 l 56 832 l 56 0 l 167 0 l 167 719 l 465 719 l 465 0 z "},"Ρ":{"ha":633,"x_min":0,"x_max":0,"o":"m 167 0 l 167 411 l 475 411 l 475 514 l 578 514 l 578 729 l 475 729 l 475 832 l 56 832 l 56 0 z m 465 524 l 167 524 l 167 719 l 465 719 z "},"Σ":{"ha":525,"x_min":0,"x_max":0,"o":"m 475 0 l 475 113 l 167 113 l 167 308 l 269 308 l 269 411 l 372 411 l 372 524 l 269 524 l 269 626 l 167 626 l 167 719 l 475 719 l 475 832 l 56 832 l 56 617 l 158 617 l 158 514 l 260 514 l 260 421 l 158 421 l 158 318 l 56 318 l 56 0 z "},"Τ":{"ha":568,"x_min":0,"x_max":0,"o":"m 340 0 l 340 719 l 546 719 l 546 832 l 22 832 l 22 719 l 228 719 l 228 0 z "},"Υ":{"ha":633,"x_min":0,"x_max":0,"o":"m 372 0 l 372 514 l 475 514 l 475 719 l 578 719 l 578 832 l 465 832 l 465 729 l 363 729 l 363 524 l 269 524 l 269 729 l 167 729 l 167 832 l 56 832 l 56 719 l 158 719 l 158 514 l 260 514 l 260 0 z "},"Φ":{"ha":807,"x_min":0,"x_max":0,"o":"m 458 0 l 458 207 l 664 207 l 664 310 l 767 310 l 767 729 l 664 729 l 664 832 l 140 832 l 140 729 l 39 729 l 39 310 l 140 310 l 140 207 l 346 207 l 346 0 z m 654 319 l 458 319 l 458 721 l 654 721 z m 346 319 l 150 319 l 150 721 l 346 721 z "},"Χ":{"ha":633,"x_min":0,"x_max":0,"o":"m 578 0 l 578 215 l 475 215 l 475 421 l 372 421 l 372 514 l 475 514 l 475 719 l 578 719 l 578 832 l 465 832 l 465 729 l 363 729 l 363 524 l 269 524 l 269 729 l 167 729 l 167 832 l 56 832 l 56 719 l 158 719 l 158 514 l 260 514 l 260 421 l 158 421 l 158 215 l 56 215 l 56 0 l 167 0 l 167 206 l 269 206 l 269 411 l 363 411 l 363 206 l 465 206 l 465 0 z "},"Ψ":{"ha":633,"x_min":0,"x_max":0,"o":"m 372 0 l 372 206 l 475 206 l 475 308 l 578 308 l 578 832 l 465 832 l 465 318 l 372 318 l 372 832 l 260 832 l 260 318 l 167 318 l 167 832 l 56 832 l 56 308 l 158 308 l 158 206 l 260 206 l 260 0 z "},"Ω":{"ha":633,"x_min":0,"x_max":0,"o":"m 578 0 l 578 113 l 475 113 l 475 308 l 578 308 l 578 729 l 475 729 l 475 832 l 158 832 l 158 729 l 56 729 l 56 308 l 158 308 l 158 113 l 56 113 l 56 0 l 269 0 l 269 318 l 167 318 l 167 719 l 465 719 l 465 318 l 363 318 l 363 0 z "},"Ϊ":{"ha":222,"x_min":0,"x_max":0,"o":"m 167 0 l 167 832 l 56 832 l 56 0 z m 64 928 l 64 1039 l -47 1039 l -47 928 z m 269 928 l 269 1039 l 157 1039 l 157 928 z "},"Ϋ":{"ha":633,"x_min":0,"x_max":0,"o":"m 372 0 l 372 514 l 475 514 l 475 719 l 578 719 l 578 832 l 465 832 l 465 729 l 363 729 l 363 524 l 269 524 l 269 729 l 167 729 l 167 832 l 56 832 l 56 719 l 158 719 l 158 514 l 260 514 l 260 0 z m 269 928 l 269 1039 l 158 1039 l 158 928 z m 475 928 l 475 1039 l 363 1039 l 363 928 z "},"ά":{"ha":614,"x_min":0,"x_max":0,"o":"m 568 0 l 568 113 l 465 113 l 465 524 l 363 524 l 363 626 l 149 626 l 149 514 l 354 514 l 354 421 l 149 421 l 149 318 l 46 318 l 46 103 l 149 103 l 149 0 l 363 0 l 363 103 l 457 103 l 457 0 z m 354 113 l 158 113 l 158 308 l 354 308 z m 363 800 l 363 1014 l 251 1014 l 251 800 z "},"έ":{"ha":511,"x_min":0,"x_max":0,"o":"m 365 0 l 365 103 l 468 103 l 468 215 l 356 215 l 356 113 l 160 113 l 160 308 l 263 308 l 263 421 l 160 421 l 160 514 l 356 514 l 356 411 l 468 411 l 468 524 l 365 524 l 365 626 l 150 626 l 150 524 l 47 524 l 47 411 l 150 411 l 150 318 l 47 318 l 47 103 l 150 103 l 150 0 z m 311 800 l 311 1014 l 200 1014 l 200 800 z "},"ή":{"ha":528,"x_min":0,"x_max":0,"o":"m 475 0 l 475 524 l 372 524 l 372 626 l 56 626 l 56 0 l 167 0 l 167 514 l 363 514 l 363 0 z m 319 800 l 319 1014 l 208 1014 l 208 800 z "},"ί":{"ha":235,"x_min":0,"x_max":0,"o":"m 175 0 l 175 626 l 63 626 l 63 0 z m 172 800 l 172 1014 l 61 1014 l 61 800 z "},"ΰ":{"ha":531,"x_min":0,"x_max":0,"o":"m 372 0 l 372 103 l 475 103 l 475 626 l 363 626 l 363 113 l 167 113 l 167 626 l 56 626 l 56 103 l 158 103 l 158 0 z m 321 800 l 321 1014 l 208 1014 l 208 800 z m 526 800 l 526 911 l 414 911 l 414 800 z m 115 800 l 115 911 l 4 911 l 4 800 z "},"α":{"ha":615,"x_min":0,"x_max":0,"o":"m 568 0 l 568 113 l 465 113 l 465 514 l 568 514 l 568 626 l 457 626 l 457 524 l 363 524 l 363 626 l 149 626 l 149 524 l 46 524 l 46 103 l 149 103 l 149 0 l 363 0 l 363 103 l 457 103 l 457 0 z m 354 113 l 158 113 l 158 514 l 354 514 z "},"β":{"ha":531,"x_min":0,"x_max":0,"o":"m 372 0 l 372 103 l 475 103 l 475 421 l 372 421 l 372 514 l 475 514 l 475 729 l 372 729 l 372 832 l 158 832 l 158 729 l 56 729 l 56 0 l 167 0 l 167 719 l 363 719 l 363 524 l 260 524 l 260 411 l 363 411 l 363 113 l 260 113 l 260 0 z "},"γ":{"ha":608,"x_min":0,"x_max":0,"o":"m 361 -308 l 361 206 l 464 206 l 464 411 l 567 411 l 567 626 l 454 626 l 454 421 l 351 421 l 351 215 l 258 215 l 258 421 l 156 421 l 156 626 l 43 626 l 43 411 l 146 411 l 146 206 l 249 206 l 249 -308 z "},"δ":{"ha":671,"x_min":0,"x_max":0,"o":"m 443 0 l 443 103 l 546 103 l 546 617 l 649 617 l 649 729 l 536 729 l 536 626 l 443 626 l 443 729 l 125 729 l 125 626 l 22 626 l 22 514 l 135 514 l 135 617 l 331 617 l 331 524 l 219 524 l 219 318 l 125 318 l 125 111 l 228 111 l 228 0 z m 433 113 l 229 113 l 229 308 l 340 308 l 340 514 l 433 514 z "},"ε":{"ha":511,"x_min":0,"x_max":0,"o":"m 365 0 l 365 103 l 468 103 l 468 215 l 356 215 l 356 113 l 160 113 l 160 308 l 263 308 l 263 421 l 160 421 l 160 514 l 356 514 l 356 411 l 468 411 l 468 524 l 365 524 l 365 626 l 150 626 l 150 524 l 47 524 l 47 411 l 150 411 l 150 318 l 47 318 l 47 103 l 150 103 l 150 0 z "},"ζ":{"ha":525,"x_min":0,"x_max":0,"o":"m 368 -308 l 368 -206 l 471 -206 l 471 113 l 163 113 l 163 411 l 265 411 l 265 514 l 368 514 l 368 617 l 471 617 l 471 832 l 50 832 l 50 719 l 358 719 l 358 626 l 256 626 l 256 524 l 153 524 l 153 421 l 50 421 l 50 103 l 153 103 l 153 0 l 358 0 l 358 -196 l 256 -196 l 256 -308 z "},"η":{"ha":528,"x_min":0,"x_max":0,"o":"m 475 0 l 475 524 l 372 524 l 372 626 l 56 626 l 56 0 l 167 0 l 167 514 l 363 514 l 363 0 z "},"θ":{"ha":531,"x_min":0,"x_max":0,"o":"m 372 0 l 372 103 l 475 103 l 475 729 l 372 729 l 372 832 l 158 832 l 158 729 l 56 729 l 56 103 l 158 103 l 158 0 z m 363 113 l 167 113 l 167 411 l 363 411 z m 363 524 l 167 524 l 167 719 l 363 719 z "},"ι":{"ha":235,"x_min":0,"x_max":0,"o":"m 175 0 l 175 626 l 63 626 l 63 0 z "},"κ":{"ha":518,"x_min":0,"x_max":0,"o":"m 475 0 l 475 113 l 372 113 l 372 215 l 269 215 l 269 411 l 372 411 l 372 514 l 475 514 l 475 626 l 363 626 l 363 524 l 260 524 l 260 421 l 167 421 l 167 626 l 56 626 l 56 -11 l 167 -11 l 167 206 l 260 206 l 260 103 l 363 103 l 363 0 z "},"λ":{"ha":531,"x_min":0,"x_max":0,"o":"m 475 0 l 475 729 l 372 729 l 372 832 l 158 832 l 158 729 l 56 729 l 56 617 l 167 617 l 167 719 l 363 719 l 363 524 l 158 524 l 158 421 l 56 421 l 56 0 l 167 0 l 167 411 l 363 411 l 363 0 z "},"μ":{"ha":531,"x_min":0,"x_max":0,"o":"m 475 0 l 475 626 l 363 626 l 363 113 l 167 113 l 167 626 l 56 626 l 56 -308 l 167 -308 l 167 0 z "},"ν":{"ha":597,"x_min":0,"x_max":0,"o":"m 350 0 l 350 206 l 453 206 l 453 411 l 556 411 l 556 626 l 443 626 l 443 421 l 340 421 l 340 215 l 247 215 l 247 421 l 144 421 l 144 626 l 32 626 l 32 411 l 135 411 l 135 206 l 238 206 l 238 0 z "},"ξ":{"ha":531,"x_min":0,"x_max":0,"o":"m 372 -206 l 372 -103 l 475 -103 l 475 113 l 167 113 l 167 411 l 372 411 l 372 524 l 167 524 l 167 719 l 363 719 l 363 617 l 475 617 l 475 729 l 372 729 l 372 832 l 158 832 l 158 729 l 56 729 l 56 514 l 158 514 l 158 421 l 56 421 l 56 103 l 158 103 l 158 0 l 363 0 l 363 -93 l 260 -93 l 260 -206 z "},"ο":{"ha":518,"x_min":0,"x_max":0,"o":"m 367 0 l 367 103 l 469 103 l 469 524 l 367 524 l 367 626 l 151 626 l 151 524 l 49 524 l 49 103 l 151 103 l 151 0 z m 357 113 l 161 113 l 161 514 l 357 514 z "},"π":{"ha":531,"x_min":0,"x_max":0,"o":"m 475 0 l 475 626 l 56 626 l 56 0 l 167 0 l 167 514 l 363 514 l 363 0 z "},"ρ":{"ha":531,"x_min":0,"x_max":0,"o":"m 167 -308 l 167 0 l 372 0 l 372 103 l 475 103 l 475 524 l 372 524 l 372 626 l 158 626 l 158 524 l 56 524 l 56 -308 z m 363 113 l 167 113 l 167 514 l 363 514 z "},"ς":{"ha":531,"x_min":0,"x_max":0,"o":"m 372 -206 l 372 -103 l 475 -103 l 475 113 l 167 113 l 167 514 l 363 514 l 363 411 l 475 411 l 475 524 l 372 524 l 372 626 l 158 626 l 158 524 l 56 524 l 56 103 l 158 103 l 158 0 l 363 0 l 363 -93 l 260 -93 l 260 -206 z "},"σ":{"ha":583,"x_min":0,"x_max":0,"o":"m 372 0 l 372 103 l 475 103 l 475 514 l 578 514 l 578 626 l 158 626 l 158 524 l 56 524 l 56 103 l 158 103 l 158 0 z m 363 113 l 167 113 l 167 514 l 363 514 z "},"τ":{"ha":558,"x_min":0,"x_max":0,"o":"m 336 0 l 336 514 l 542 514 l 542 626 l 18 626 l 18 514 l 224 514 l 224 0 z "},"υ":{"ha":531,"x_min":0,"x_max":0,"o":"m 372 0 l 372 103 l 475 103 l 475 626 l 363 626 l 363 113 l 167 113 l 167 626 l 56 626 l 56 103 l 158 103 l 158 0 z "},"φ":{"ha":633,"x_min":0,"x_max":0,"o":"m 372 -308 l 372 0 l 475 0 l 475 103 l 578 103 l 578 524 l 475 524 l 475 626 l 158 626 l 158 524 l 56 524 l 56 103 l 158 103 l 158 0 l 260 0 l 260 -308 z m 260 113 l 167 113 l 167 514 l 260 514 z m 465 113 l 372 113 l 372 514 l 465 514 z "},"χ":{"ha":531,"x_min":0,"x_max":0,"o":"m 475 0 l 475 318 l 372 318 l 372 411 l 475 411 l 475 626 l 363 626 l 363 421 l 167 421 l 167 626 l 56 626 l 56 411 l 158 411 l 158 318 l 56 318 l 56 0 l 167 0 l 167 308 l 363 308 l 363 0 z "},"ψ":{"ha":633,"x_min":0,"x_max":0,"o":"m 372 -308 l 372 0 l 475 0 l 475 103 l 578 103 l 578 626 l 465 626 l 465 113 l 372 113 l 372 626 l 260 626 l 260 113 l 167 113 l 167 626 l 56 626 l 56 103 l 158 103 l 158 0 l 260 0 l 260 -308 z "},"ω":{"ha":633,"x_min":0,"x_max":0,"o":"m 475 0 l 475 103 l 578 103 l 578 626 l 465 626 l 465 113 l 372 113 l 372 626 l 260 626 l 260 113 l 167 113 l 167 626 l 56 626 l 56 103 l 158 103 l 158 0 l 269 0 l 269 103 l 363 103 l 363 0 z "},"ϊ":{"ha":235,"x_min":0,"x_max":0,"o":"m 175 0 l 175 626 l 63 626 l 63 0 z m 71 722 l 71 833 l -40 833 l -40 722 z m 276 722 l 276 833 l 164 833 l 164 722 z "},"ϋ":{"ha":531,"x_min":0,"x_max":0,"o":"m 372 0 l 372 103 l 475 103 l 475 626 l 363 626 l 363 113 l 167 113 l 167 626 l 56 626 l 56 103 l 158 103 l 158 0 z m 218 722 l 218 833 l 107 833 l 107 722 z m 424 722 l 424 833 l 311 833 l 311 722 z "},"ό":{"ha":518,"x_min":0,"x_max":0,"o":"m 367 0 l 367 103 l 469 103 l 469 524 l 367 524 l 367 626 l 151 626 l 151 524 l 49 524 l 49 103 l 151 103 l 151 0 z m 357 113 l 161 113 l 161 514 l 357 514 z m 314 800 l 314 1014 l 203 1014 l 203 800 z "},"ύ":{"ha":531,"x_min":0,"x_max":0,"o":"m 372 0 l 372 103 l 475 103 l 475 626 l 363 626 l 363 113 l 167 113 l 167 626 l 56 626 l 56 103 l 158 103 l 158 0 z m 321 800 l 321 1014 l 210 1014 l 210 800 z "},"ώ":{"ha":633,"x_min":0,"x_max":0,"o":"m 475 0 l 475 103 l 578 103 l 578 626 l 465 626 l 465 113 l 372 113 l 372 626 l 260 626 l 260 113 l 167 113 l 167 626 l 56 626 l 56 103 l 158 103 l 158 0 l 269 0 l 269 103 l 363 103 l 363 0 z m 372 800 l 372 1014 l 261 1014 l 261 800 z "},"Ẁ":{"ha":839,"x_min":0,"x_max":0,"o":"m 578 0 l 578 206 l 681 206 l 681 514 l 783 514 l 783 832 l 671 832 l 671 524 l 568 524 l 568 215 l 475 215 l 475 832 l 363 832 l 363 215 l 269 215 l 269 524 l 167 524 l 167 832 l 56 832 l 56 514 l 158 514 l 158 206 l 260 206 l 260 0 l 372 0 l 372 206 l 465 206 l 465 0 z m 526 928 l 526 1039 l 424 1039 l 424 1142 l 313 1142 l 313 1031 l 415 1031 l 415 928 z "},"ẁ":{"ha":800,"x_min":0,"x_max":0,"o":"m 556 0 l 556 206 l 658 206 l 658 411 l 761 411 l 761 626 l 649 626 l 649 421 l 546 421 l 546 215 l 453 215 l 453 421 l 340 421 l 340 215 l 247 215 l 247 421 l 144 421 l 144 626 l 32 626 l 32 411 l 135 411 l 135 206 l 238 206 l 238 0 l 350 0 l 350 206 l 443 206 l 443 0 z m 507 722 l 507 833 l 404 833 l 404 936 l 293 936 l 293 825 l 396 825 l 396 722 z "},"Ẃ":{"ha":839,"x_min":0,"x_max":0,"o":"m 578 0 l 578 206 l 681 206 l 681 514 l 783 514 l 783 832 l 671 832 l 671 524 l 568 524 l 568 215 l 475 215 l 475 832 l 363 832 l 363 215 l 269 215 l 269 524 l 167 524 l 167 832 l 56 832 l 56 514 l 158 514 l 158 206 l 260 206 l 260 0 l 372 0 l 372 206 l 465 206 l 465 0 z m 424 928 l 424 1031 l 526 1031 l 526 1142 l 415 1142 l 415 1039 l 313 1039 l 313 928 z "},"ẃ":{"ha":800,"x_min":0,"x_max":0,"o":"m 556 0 l 556 206 l 658 206 l 658 411 l 761 411 l 761 626 l 649 626 l 649 421 l 546 421 l 546 215 l 453 215 l 453 421 l 340 421 l 340 215 l 247 215 l 247 421 l 144 421 l 144 626 l 32 626 l 32 411 l 135 411 l 135 206 l 238 206 l 238 0 l 350 0 l 350 206 l 443 206 l 443 0 z m 404 722 l 404 825 l 507 825 l 507 936 l 396 936 l 396 833 l 293 833 l 293 722 z "},"Ẅ":{"ha":839,"x_min":0,"x_max":0,"o":"m 578 0 l 578 206 l 681 206 l 681 514 l 783 514 l 783 832 l 671 832 l 671 524 l 568 524 l 568 215 l 475 215 l 475 832 l 363 832 l 363 215 l 269 215 l 269 524 l 167 524 l 167 832 l 56 832 l 56 514 l 158 514 l 158 206 l 260 206 l 260 0 l 372 0 l 372 206 l 465 206 l 465 0 z m 372 928 l 372 1039 l 261 1039 l 261 928 z m 578 928 l 578 1039 l 465 1039 l 465 928 z "},"ẅ":{"ha":800,"x_min":0,"x_max":0,"o":"m 556 0 l 556 206 l 658 206 l 658 411 l 761 411 l 761 626 l 649 626 l 649 421 l 546 421 l 546 215 l 453 215 l 453 421 l 340 421 l 340 215 l 247 215 l 247 421 l 144 421 l 144 626 l 32 626 l 32 411 l 135 411 l 135 206 l 238 206 l 238 0 l 350 0 l 350 206 l 443 206 l 443 0 z m 353 722 l 353 833 l 242 833 l 242 722 z m 558 722 l 558 833 l 446 833 l 446 722 z "},"Ạ":{"ha":736,"x_min":0,"x_max":0,"o":"m 681 0 l 681 318 l 578 318 l 578 626 l 475 626 l 475 832 l 260 832 l 260 626 l 158 626 l 158 318 l 56 318 l 56 0 l 167 0 l 167 308 l 568 308 l 568 0 z m 465 421 l 269 421 l 269 617 l 465 617 z m 424 -282 l 424 -171 l 313 -171 l 313 -282 z "},"ạ":{"ha":614,"x_min":0,"x_max":0,"o":"m 568 0 l 568 113 l 465 113 l 465 524 l 363 524 l 363 626 l 149 626 l 149 514 l 354 514 l 354 421 l 149 421 l 149 318 l 46 318 l 46 103 l 149 103 l 149 0 l 363 0 l 363 103 l 457 103 l 457 0 z m 354 113 l 158 113 l 158 308 l 354 308 z m 363 -282 l 363 -171 l 251 -171 l 251 -282 z "},"Ả":{"ha":736,"x_min":0,"x_max":0,"o":"m 681 0 l 681 318 l 578 318 l 578 626 l 475 626 l 475 832 l 260 832 l 260 626 l 158 626 l 158 318 l 56 318 l 56 0 l 167 0 l 167 308 l 568 308 l 568 0 z m 465 421 l 269 421 l 269 617 l 465 617 z m 424 928 l 424 1031 l 526 1031 l 526 1142 l 424 1142 l 424 1244 l 210 1244 l 210 1133 l 414 1133 l 414 1039 l 313 1039 l 313 928 z "},"ả":{"ha":614,"x_min":0,"x_max":0,"o":"m 568 0 l 568 113 l 465 113 l 465 524 l 363 524 l 363 626 l 149 626 l 149 514 l 354 514 l 354 421 l 149 421 l 149 318 l 46 318 l 46 103 l 149 103 l 149 0 l 363 0 l 363 103 l 457 103 l 457 0 z m 354 113 l 158 113 l 158 308 l 354 308 z m 363 722 l 363 825 l 465 825 l 465 936 l 363 936 l 363 1039 l 149 1039 l 149 928 l 353 928 l 353 833 l 251 833 l 251 722 z "},"Ấ":{"ha":736,"x_min":0,"x_max":0,"o":"m 681 0 l 681 318 l 578 318 l 578 626 l 475 626 l 475 832 l 260 832 l 260 626 l 158 626 l 158 318 l 56 318 l 56 0 l 167 0 l 167 308 l 568 308 l 568 0 z m 465 421 l 269 421 l 269 617 l 465 617 z m 526 928 l 526 1039 l 424 1039 l 424 1142 l 313 1142 l 313 1039 l 210 1039 l 210 928 l 321 928 l 321 1031 l 414 1031 l 414 928 z m 732 928 l 732 1031 l 835 1031 l 835 1142 l 722 1142 l 722 1039 l 619 1039 l 619 928 z "},"ấ":{"ha":614,"x_min":0,"x_max":0,"o":"m 568 0 l 568 113 l 465 113 l 465 524 l 363 524 l 363 626 l 149 626 l 149 514 l 354 514 l 354 421 l 149 421 l 149 318 l 46 318 l 46 103 l 149 103 l 149 0 l 363 0 l 363 103 l 457 103 l 457 0 z m 354 113 l 158 113 l 158 308 l 354 308 z m 417 722 l 417 833 l 314 833 l 314 936 l 203 936 l 203 833 l 100 833 l 100 722 l 211 722 l 211 825 l 304 825 l 304 722 z m 622 722 l 622 825 l 725 825 l 725 936 l 613 936 l 613 833 l 510 833 l 510 722 z "},"Ầ":{"ha":736,"x_min":0,"x_max":0,"o":"m 681 0 l 681 318 l 578 318 l 578 626 l 475 626 l 475 832 l 260 832 l 260 626 l 158 626 l 158 318 l 56 318 l 56 0 l 167 0 l 167 308 l 568 308 l 568 0 z m 465 421 l 269 421 l 269 617 l 465 617 z m 532 928 l 532 1039 l 429 1039 l 429 1142 l 317 1142 l 317 1039 l 214 1039 l 214 928 l 326 928 l 326 1031 l 419 1031 l 419 928 z m 121 928 l 121 1039 l 18 1039 l 18 1142 l -93 1142 l -93 1031 l 10 1031 l 10 928 z "},"ầ":{"ha":614,"x_min":0,"x_max":0,"o":"m 568 0 l 568 113 l 465 113 l 465 524 l 363 524 l 363 626 l 149 626 l 149 514 l 354 514 l 354 421 l 149 421 l 149 318 l 46 318 l 46 103 l 149 103 l 149 0 l 363 0 l 363 103 l 457 103 l 457 0 z m 354 113 l 158 113 l 158 308 l 354 308 z m 429 722 l 429 833 l 326 833 l 326 936 l 214 936 l 214 833 l 111 833 l 111 722 l 224 722 l 224 825 l 317 825 l 317 722 z m 18 722 l 18 833 l -85 833 l -85 936 l -196 936 l -196 825 l -93 825 l -93 722 z "},"Ẩ":{"ha":736,"x_min":0,"x_max":0,"o":"m 681 0 l 681 318 l 578 318 l 578 626 l 475 626 l 475 832 l 260 832 l 260 626 l 158 626 l 158 318 l 56 318 l 56 0 l 167 0 l 167 308 l 568 308 l 568 0 z m 465 421 l 269 421 l 269 617 l 465 617 z m 731 928 l 731 1031 l 833 1031 l 833 1142 l 731 1142 l 731 1244 l 515 1244 l 515 1133 l 721 1133 l 721 1039 l 618 1039 l 618 928 z m 525 928 l 525 1039 l 422 1039 l 422 1142 l 311 1142 l 311 1039 l 208 1039 l 208 928 l 319 928 l 319 1031 l 413 1031 l 413 928 z "},"ẩ":{"ha":614,"x_min":0,"x_max":0,"o":"m 568 0 l 568 113 l 465 113 l 465 524 l 363 524 l 363 626 l 149 626 l 149 514 l 354 514 l 354 421 l 149 421 l 149 318 l 46 318 l 46 103 l 149 103 l 149 0 l 363 0 l 363 103 l 457 103 l 457 0 z m 354 113 l 158 113 l 158 308 l 354 308 z m 619 722 l 619 825 l 722 825 l 722 936 l 619 936 l 619 1039 l 404 1039 l 404 928 l 610 928 l 610 833 l 507 833 l 507 722 z m 414 722 l 414 833 l 311 833 l 311 936 l 200 936 l 200 833 l 97 833 l 97 722 l 208 722 l 208 825 l 301 825 l 301 722 z "},"Ẫ":{"ha":736,"x_min":0,"x_max":0,"o":"m 681 0 l 681 318 l 578 318 l 578 626 l 475 626 l 475 832 l 260 832 l 260 626 l 158 626 l 158 318 l 56 318 l 56 0 l 167 0 l 167 308 l 568 308 l 568 0 z m 465 421 l 269 421 l 269 617 l 465 617 z m 526 928 l 526 1039 l 424 1039 l 424 1142 l 313 1142 l 313 1039 l 210 1039 l 210 928 l 321 928 l 321 1031 l 414 1031 l 414 928 z m 526 1236 l 526 1347 l 210 1347 l 210 1236 z "},"ẫ":{"ha":614,"x_min":0,"x_max":0,"o":"m 568 0 l 568 113 l 465 113 l 465 524 l 363 524 l 363 626 l 149 626 l 149 514 l 354 514 l 354 421 l 149 421 l 149 318 l 46 318 l 46 103 l 149 103 l 149 0 l 363 0 l 363 103 l 457 103 l 457 0 z m 354 113 l 158 113 l 158 308 l 354 308 z m 426 722 l 426 833 l 324 833 l 324 936 l 213 936 l 213 833 l 110 833 l 110 722 l 221 722 l 221 825 l 314 825 l 314 722 z m 426 1031 l 426 1142 l 110 1142 l 110 1031 z "},"Ậ":{"ha":736,"x_min":0,"x_max":0,"o":"m 681 0 l 681 318 l 578 318 l 578 626 l 475 626 l 475 832 l 260 832 l 260 626 l 158 626 l 158 318 l 56 318 l 56 0 l 167 0 l 167 308 l 568 308 l 568 0 z m 465 421 l 269 421 l 269 617 l 465 617 z m 526 928 l 526 1039 l 424 1039 l 424 1142 l 313 1142 l 313 1039 l 210 1039 l 210 928 l 321 928 l 321 1031 l 414 1031 l 414 928 z m 424 -282 l 424 -171 l 313 -171 l 313 -282 z "},"ậ":{"ha":614,"x_min":0,"x_max":0,"o":"m 568 0 l 568 113 l 465 113 l 465 524 l 363 524 l 363 626 l 149 626 l 149 514 l 354 514 l 354 421 l 149 421 l 149 318 l 46 318 l 46 103 l 149 103 l 149 0 l 363 0 l 363 103 l 457 103 l 457 0 z m 354 113 l 158 113 l 158 308 l 354 308 z m 442 722 l 442 833 l 339 833 l 339 936 l 228 936 l 228 833 l 125 833 l 125 722 l 236 722 l 236 825 l 329 825 l 329 722 z m 363 -282 l 363 -171 l 251 -171 l 251 -282 z "},"Ắ":{"ha":736,"x_min":0,"x_max":0,"o":"m 681 0 l 681 318 l 578 318 l 578 626 l 475 626 l 475 832 l 260 832 l 260 626 l 158 626 l 158 318 l 56 318 l 56 0 l 167 0 l 167 308 l 568 308 l 568 0 z m 465 421 l 269 421 l 269 617 l 465 617 z m 475 928 l 475 1031 l 578 1031 l 578 1142 l 465 1142 l 465 1039 l 269 1039 l 269 1133 l 372 1133 l 372 1236 l 475 1236 l 475 1347 l 363 1347 l 363 1244 l 261 1244 l 261 1142 l 158 1142 l 158 1031 l 261 1031 l 261 928 z "},"ắ":{"ha":614,"x_min":0,"x_max":0,"o":"m 568 0 l 568 113 l 465 113 l 465 524 l 363 524 l 363 626 l 149 626 l 149 514 l 354 514 l 354 421 l 149 421 l 149 318 l 46 318 l 46 103 l 149 103 l 149 0 l 363 0 l 363 103 l 457 103 l 457 0 z m 354 113 l 158 113 l 158 308 l 354 308 z m 371 722 l 371 825 l 474 825 l 474 936 l 361 936 l 361 833 l 165 833 l 165 928 l 268 928 l 268 1031 l 371 1031 l 371 1142 l 258 1142 l 258 1039 l 157 1039 l 157 936 l 54 936 l 54 825 l 157 825 l 157 722 z "},"Ằ":{"ha":736,"x_min":0,"x_max":0,"o":"m 681 0 l 681 318 l 578 318 l 578 626 l 475 626 l 475 832 l 260 832 l 260 626 l 158 626 l 158 318 l 56 318 l 56 0 l 167 0 l 167 308 l 568 308 l 568 0 z m 465 421 l 269 421 l 269 617 l 465 617 z m 475 928 l 475 1031 l 578 1031 l 578 1142 l 475 1142 l 475 1244 l 372 1244 l 372 1347 l 261 1347 l 261 1236 l 363 1236 l 363 1133 l 465 1133 l 465 1039 l 269 1039 l 269 1142 l 158 1142 l 158 1031 l 261 1031 l 261 928 z "},"ằ":{"ha":614,"x_min":0,"x_max":0,"o":"m 568 0 l 568 113 l 465 113 l 465 524 l 363 524 l 363 626 l 149 626 l 149 514 l 354 514 l 354 421 l 149 421 l 149 318 l 46 318 l 46 103 l 149 103 l 149 0 l 363 0 l 363 103 l 457 103 l 457 0 z m 354 113 l 158 113 l 158 308 l 354 308 z m 361 722 l 361 825 l 464 825 l 464 936 l 361 936 l 361 1039 l 258 1039 l 258 1142 l 147 1142 l 147 1031 l 249 1031 l 249 928 l 351 928 l 351 833 l 156 833 l 156 936 l 44 936 l 44 825 l 147 825 l 147 722 z "},"Ẳ":{"ha":736,"x_min":0,"x_max":0,"o":"m 681 0 l 681 318 l 578 318 l 578 626 l 475 626 l 475 832 l 260 832 l 260 626 l 158 626 l 158 318 l 56 318 l 56 0 l 167 0 l 167 308 l 568 308 l 568 0 z m 465 421 l 269 421 l 269 617 l 465 617 z m 475 928 l 475 1031 l 578 1031 l 578 1142 l 475 1142 l 475 1347 l 261 1347 l 261 1236 l 363 1236 l 363 1133 l 465 1133 l 465 1039 l 269 1039 l 269 1142 l 158 1142 l 158 1031 l 261 1031 l 261 928 z "},"ẳ":{"ha":614,"x_min":0,"x_max":0,"o":"m 568 0 l 568 113 l 465 113 l 465 524 l 363 524 l 363 626 l 149 626 l 149 514 l 354 514 l 354 421 l 149 421 l 149 318 l 46 318 l 46 103 l 149 103 l 149 0 l 363 0 l 363 103 l 457 103 l 457 0 z m 354 113 l 158 113 l 158 308 l 354 308 z m 368 722 l 368 825 l 471 825 l 471 936 l 368 936 l 368 1142 l 154 1142 l 154 1031 l 256 1031 l 256 928 l 358 928 l 358 833 l 163 833 l 163 936 l 51 936 l 51 825 l 154 825 l 154 722 z "},"Ẵ":{"ha":736,"x_min":0,"x_max":0,"o":"m 681 0 l 681 318 l 578 318 l 578 626 l 475 626 l 475 832 l 260 832 l 260 626 l 158 626 l 158 318 l 56 318 l 56 0 l 167 0 l 167 308 l 568 308 l 568 0 z m 465 421 l 269 421 l 269 617 l 465 617 z m 475 928 l 475 1031 l 578 1031 l 578 1142 l 465 1142 l 465 1039 l 269 1039 l 269 1142 l 158 1142 l 158 1031 l 261 1031 l 261 928 z m 578 1236 l 578 1347 l 158 1347 l 158 1236 z "},"ẵ":{"ha":614,"x_min":0,"x_max":0,"o":"m 568 0 l 568 113 l 465 113 l 465 524 l 363 524 l 363 626 l 149 626 l 149 514 l 354 514 l 354 421 l 149 421 l 149 318 l 46 318 l 46 103 l 149 103 l 149 0 l 363 0 l 363 103 l 457 103 l 457 0 z m 354 113 l 158 113 l 158 308 l 354 308 z m 363 722 l 363 825 l 465 825 l 465 936 l 353 936 l 353 833 l 157 833 l 157 936 l 46 936 l 46 825 l 149 825 l 149 722 z m 465 1031 l 465 1142 l 46 1142 l 46 1031 z "},"Ặ":{"ha":736,"x_min":0,"x_max":0,"o":"m 681 0 l 681 318 l 578 318 l 578 626 l 475 626 l 475 832 l 260 832 l 260 626 l 158 626 l 158 318 l 56 318 l 56 0 l 167 0 l 167 308 l 568 308 l 568 0 z m 465 421 l 269 421 l 269 617 l 465 617 z m 475 928 l 475 1031 l 578 1031 l 578 1142 l 465 1142 l 465 1039 l 269 1039 l 269 1142 l 158 1142 l 158 1031 l 261 1031 l 261 928 z m 424 -282 l 424 -171 l 313 -171 l 313 -282 z "},"ặ":{"ha":614,"x_min":0,"x_max":0,"o":"m 568 0 l 568 113 l 465 113 l 465 524 l 363 524 l 363 626 l 149 626 l 149 514 l 354 514 l 354 421 l 149 421 l 149 318 l 46 318 l 46 103 l 149 103 l 149 0 l 363 0 l 363 103 l 457 103 l 457 0 z m 354 113 l 158 113 l 158 308 l 354 308 z m 365 722 l 365 825 l 468 825 l 468 936 l 356 936 l 356 833 l 160 833 l 160 936 l 49 936 l 49 825 l 151 825 l 151 722 z m 363 -282 l 363 -171 l 251 -171 l 251 -282 z "},"Ẹ":{"ha":524,"x_min":0,"x_max":0,"o":"m 475 0 l 475 113 l 167 113 l 167 411 l 475 411 l 475 524 l 167 524 l 167 719 l 475 719 l 475 832 l 56 832 l 56 0 z m 321 -282 l 321 -171 l 210 -171 l 210 -282 z "},"ẹ":{"ha":531,"x_min":0,"x_max":0,"o":"m 372 0 l 372 103 l 475 103 l 475 215 l 363 215 l 363 113 l 167 113 l 167 308 l 475 308 l 475 524 l 372 524 l 372 626 l 158 626 l 158 524 l 56 524 l 56 103 l 158 103 l 158 0 z m 363 421 l 167 421 l 167 514 l 363 514 z m 321 -282 l 321 -171 l 210 -171 l 210 -282 z "},"Ẻ":{"ha":524,"x_min":0,"x_max":0,"o":"m 475 0 l 475 113 l 167 113 l 167 411 l 475 411 l 475 524 l 167 524 l 167 719 l 475 719 l 475 832 l 56 832 l 56 0 z m 311 928 l 311 1031 l 414 1031 l 414 1142 l 311 1142 l 311 1244 l 97 1244 l 97 1133 l 301 1133 l 301 1039 l 200 1039 l 200 928 z "},"ẻ":{"ha":531,"x_min":0,"x_max":0,"o":"m 372 0 l 372 103 l 475 103 l 475 215 l 363 215 l 363 113 l 167 113 l 167 308 l 475 308 l 475 524 l 372 524 l 372 626 l 158 626 l 158 524 l 56 524 l 56 103 l 158 103 l 158 0 z m 363 421 l 167 421 l 167 514 l 363 514 z m 311 722 l 311 825 l 414 825 l 414 936 l 311 936 l 311 1039 l 97 1039 l 97 928 l 301 928 l 301 833 l 200 833 l 200 722 z "},"Ẽ":{"ha":524,"x_min":0,"x_max":0,"o":"m 475 0 l 475 113 l 167 113 l 167 411 l 475 411 l 475 524 l 167 524 l 167 719 l 475 719 l 475 832 l 56 832 l 56 0 z m 396 928 l 396 1031 l 499 1031 l 499 1142 l 386 1142 l 386 1039 l 293 1039 l 293 1142 l 182 1142 l 182 1039 l 79 1039 l 79 928 l 190 928 l 190 1031 l 283 1031 l 283 928 z "},"ẽ":{"ha":531,"x_min":0,"x_max":0,"o":"m 372 0 l 372 103 l 475 103 l 475 215 l 363 215 l 363 113 l 167 113 l 167 308 l 475 308 l 475 524 l 372 524 l 372 626 l 158 626 l 158 524 l 56 524 l 56 103 l 158 103 l 158 0 z m 363 421 l 167 421 l 167 514 l 363 514 z m 372 722 l 372 825 l 475 825 l 475 936 l 363 936 l 363 833 l 269 833 l 269 936 l 158 936 l 158 833 l 56 833 l 56 722 l 167 722 l 167 825 l 260 825 l 260 722 z "},"Ế":{"ha":524,"x_min":0,"x_max":0,"o":"m 475 0 l 475 113 l 167 113 l 167 411 l 475 411 l 475 524 l 167 524 l 167 719 l 475 719 l 475 832 l 56 832 l 56 0 z m 424 928 l 424 1039 l 321 1039 l 321 1142 l 210 1142 l 210 1039 l 107 1039 l 107 928 l 218 928 l 218 1031 l 311 1031 l 311 928 z m 629 928 l 629 1031 l 732 1031 l 732 1142 l 619 1142 l 619 1039 l 517 1039 l 517 928 z "},"ế":{"ha":531,"x_min":0,"x_max":0,"o":"m 372 0 l 372 103 l 475 103 l 475 215 l 363 215 l 363 113 l 167 113 l 167 308 l 475 308 l 475 524 l 372 524 l 372 626 l 158 626 l 158 524 l 56 524 l 56 103 l 158 103 l 158 0 z m 363 421 l 167 421 l 167 514 l 363 514 z m 421 722 l 421 833 l 318 833 l 318 936 l 207 936 l 207 833 l 104 833 l 104 722 l 215 722 l 215 825 l 308 825 l 308 722 z m 626 722 l 626 825 l 729 825 l 729 936 l 617 936 l 617 833 l 514 833 l 514 722 z "},"Ề":{"ha":524,"x_min":0,"x_max":0,"o":"m 475 0 l 475 113 l 167 113 l 167 411 l 475 411 l 475 524 l 167 524 l 167 719 l 475 719 l 475 832 l 56 832 l 56 0 z m 432 928 l 432 1039 l 329 1039 l 329 1142 l 217 1142 l 217 1039 l 114 1039 l 114 928 l 226 928 l 226 1031 l 319 1031 l 319 928 z m 21 928 l 21 1039 l -82 1039 l -82 1142 l -193 1142 l -193 1031 l -90 1031 l -90 928 z "},"ề":{"ha":531,"x_min":0,"x_max":0,"o":"m 372 0 l 372 103 l 475 103 l 475 215 l 363 215 l 363 113 l 167 113 l 167 308 l 475 308 l 475 524 l 372 524 l 372 626 l 158 626 l 158 524 l 56 524 l 56 103 l 158 103 l 158 0 z m 363 421 l 167 421 l 167 514 l 363 514 z m 432 722 l 432 833 l 329 833 l 329 936 l 217 936 l 217 833 l 114 833 l 114 722 l 226 722 l 226 825 l 319 825 l 319 722 z m 21 722 l 21 833 l -82 833 l -82 936 l -193 936 l -193 825 l -90 825 l -90 722 z "},"Ể":{"ha":524,"x_min":0,"x_max":0,"o":"m 475 0 l 475 113 l 167 113 l 167 411 l 475 411 l 475 524 l 167 524 l 167 719 l 475 719 l 475 832 l 56 832 l 56 0 z m 640 928 l 640 1031 l 743 1031 l 743 1142 l 640 1142 l 640 1244 l 425 1244 l 425 1133 l 631 1133 l 631 1039 l 528 1039 l 528 928 z m 435 928 l 435 1039 l 332 1039 l 332 1142 l 221 1142 l 221 1039 l 118 1039 l 118 928 l 229 928 l 229 1031 l 322 1031 l 322 928 z "},"ể":{"ha":531,"x_min":0,"x_max":0,"o":"m 372 0 l 372 103 l 475 103 l 475 215 l 363 215 l 363 113 l 167 113 l 167 308 l 475 308 l 475 524 l 372 524 l 372 626 l 158 626 l 158 524 l 56 524 l 56 103 l 158 103 l 158 0 z m 363 421 l 167 421 l 167 514 l 363 514 z m 631 722 l 631 825 l 733 825 l 733 936 l 631 936 l 631 1039 l 415 1039 l 415 928 l 621 928 l 621 833 l 518 833 l 518 722 z m 425 722 l 425 833 l 322 833 l 322 936 l 211 936 l 211 833 l 108 833 l 108 722 l 219 722 l 219 825 l 313 825 l 313 722 z "},"Ễ":{"ha":524,"x_min":0,"x_max":0,"o":"m 475 0 l 475 113 l 167 113 l 167 411 l 475 411 l 475 524 l 167 524 l 167 719 l 475 719 l 475 832 l 56 832 l 56 0 z m 432 928 l 432 1039 l 329 1039 l 329 1142 l 218 1142 l 218 1039 l 115 1039 l 115 928 l 226 928 l 226 1031 l 319 1031 l 319 928 z m 432 1236 l 432 1347 l 115 1347 l 115 1236 z "},"ễ":{"ha":531,"x_min":0,"x_max":0,"o":"m 372 0 l 372 103 l 475 103 l 475 215 l 363 215 l 363 113 l 167 113 l 167 308 l 475 308 l 475 524 l 372 524 l 372 626 l 158 626 l 158 524 l 56 524 l 56 103 l 158 103 l 158 0 z m 363 421 l 167 421 l 167 514 l 363 514 z m 424 722 l 424 833 l 321 833 l 321 936 l 210 936 l 210 833 l 107 833 l 107 722 l 218 722 l 218 825 l 311 825 l 311 722 z m 424 1031 l 424 1142 l 107 1142 l 107 1031 z "},"Ệ":{"ha":524,"x_min":0,"x_max":0,"o":"m 475 0 l 475 113 l 167 113 l 167 411 l 475 411 l 475 524 l 167 524 l 167 719 l 475 719 l 475 832 l 56 832 l 56 0 z m 414 928 l 414 1039 l 311 1039 l 311 1142 l 200 1142 l 200 1039 l 97 1039 l 97 928 l 208 928 l 208 1031 l 301 1031 l 301 928 z m 317 -282 l 317 -171 l 206 -171 l 206 -282 z "},"ệ":{"ha":531,"x_min":0,"x_max":0,"o":"m 372 0 l 372 103 l 475 103 l 475 215 l 363 215 l 363 113 l 167 113 l 167 308 l 475 308 l 475 524 l 372 524 l 372 626 l 158 626 l 158 524 l 56 524 l 56 103 l 158 103 l 158 0 z m 363 421 l 167 421 l 167 514 l 363 514 z m 424 722 l 424 833 l 321 833 l 321 936 l 210 936 l 210 833 l 107 833 l 107 722 l 218 722 l 218 825 l 311 825 l 311 722 z m 321 -282 l 321 -171 l 210 -171 l 210 -282 z "},"Ỉ":{"ha":222,"x_min":0,"x_max":0,"o":"m 167 0 l 167 832 l 56 832 l 56 0 z m 167 928 l 167 1031 l 269 1031 l 269 1142 l 167 1142 l 167 1244 l -47 1244 l -47 1133 l 157 1133 l 157 1039 l 56 1039 l 56 928 z "},"ỉ":{"ha":235,"x_min":0,"x_max":0,"o":"m 175 0 l 175 626 l 63 626 l 63 0 z m 174 722 l 174 825 l 276 825 l 276 936 l 174 936 l 174 1039 l -40 1039 l -40 928 l 164 928 l 164 833 l 63 833 l 63 722 z "},"Ị":{"ha":222,"x_min":0,"x_max":0,"o":"m 167 0 l 167 832 l 56 832 l 56 0 z m 167 -282 l 167 -171 l 56 -171 l 56 -282 z "},"ị":{"ha":236,"x_min":0,"x_max":0,"o":"m 176 0 l 176 626 l 64 626 l 64 0 z m 176 719 l 176 832 l 64 832 l 64 719 z m 174 -282 l 174 -171 l 63 -171 l 63 -282 z "},"Ọ":{"ha":633,"x_min":0,"x_max":0,"o":"m 475 0 l 475 103 l 578 103 l 578 729 l 475 729 l 475 832 l 158 832 l 158 729 l 56 729 l 56 103 l 158 103 l 158 0 z m 465 113 l 167 113 l 167 719 l 465 719 z m 372 -282 l 372 -171 l 261 -171 l 261 -282 z "},"ọ":{"ha":518,"x_min":0,"x_max":0,"o":"m 367 0 l 367 103 l 469 103 l 469 524 l 367 524 l 367 626 l 151 626 l 151 524 l 49 524 l 49 103 l 151 103 l 151 0 z m 357 113 l 161 113 l 161 514 l 357 514 z m 314 -282 l 314 -171 l 203 -171 l 203 -282 z "},"Ỏ":{"ha":633,"x_min":0,"x_max":0,"o":"m 475 0 l 475 103 l 578 103 l 578 729 l 475 729 l 475 832 l 158 832 l 158 729 l 56 729 l 56 103 l 158 103 l 158 0 z m 465 113 l 167 113 l 167 719 l 465 719 z m 372 928 l 372 1031 l 475 1031 l 475 1142 l 372 1142 l 372 1244 l 158 1244 l 158 1133 l 363 1133 l 363 1039 l 261 1039 l 261 928 z "},"ỏ":{"ha":518,"x_min":0,"x_max":0,"o":"m 367 0 l 367 103 l 469 103 l 469 524 l 367 524 l 367 626 l 151 626 l 151 524 l 49 524 l 49 103 l 151 103 l 151 0 z m 357 113 l 161 113 l 161 514 l 357 514 z m 314 722 l 314 825 l 417 825 l 417 936 l 314 936 l 314 1039 l 100 1039 l 100 928 l 304 928 l 304 833 l 203 833 l 203 722 z "},"Ố":{"ha":633,"x_min":0,"x_max":0,"o":"m 475 0 l 475 103 l 578 103 l 578 729 l 475 729 l 475 832 l 158 832 l 158 729 l 56 729 l 56 103 l 158 103 l 158 0 z m 465 113 l 167 113 l 167 719 l 465 719 z m 472 928 l 472 1039 l 369 1039 l 369 1142 l 258 1142 l 258 1039 l 156 1039 l 156 928 l 267 928 l 267 1031 l 360 1031 l 360 928 z m 678 928 l 678 1031 l 781 1031 l 781 1142 l 668 1142 l 668 1039 l 565 1039 l 565 928 z "},"ố":{"ha":518,"x_min":0,"x_max":0,"o":"m 367 0 l 367 103 l 469 103 l 469 524 l 367 524 l 367 626 l 151 626 l 151 524 l 49 524 l 49 103 l 151 103 l 151 0 z m 357 113 l 161 113 l 161 514 l 357 514 z m 411 722 l 411 833 l 308 833 l 308 936 l 197 936 l 197 833 l 94 833 l 94 722 l 206 722 l 206 825 l 299 825 l 299 722 z m 617 722 l 617 825 l 719 825 l 719 936 l 607 936 l 607 833 l 504 833 l 504 722 z "},"Ồ":{"ha":633,"x_min":0,"x_max":0,"o":"m 475 0 l 475 103 l 578 103 l 578 729 l 475 729 l 475 832 l 158 832 l 158 729 l 56 729 l 56 103 l 158 103 l 158 0 z m 465 113 l 167 113 l 167 719 l 465 719 z m 474 928 l 474 1039 l 371 1039 l 371 1142 l 258 1142 l 258 1039 l 156 1039 l 156 928 l 268 928 l 268 1031 l 361 1031 l 361 928 z m 63 928 l 63 1039 l -40 1039 l -40 1142 l -151 1142 l -151 1031 l -49 1031 l -49 928 z "},"ồ":{"ha":518,"x_min":0,"x_max":0,"o":"m 367 0 l 367 103 l 469 103 l 469 524 l 367 524 l 367 626 l 151 626 l 151 524 l 49 524 l 49 103 l 151 103 l 151 0 z m 357 113 l 161 113 l 161 514 l 357 514 z m 419 722 l 419 833 l 317 833 l 317 936 l 204 936 l 204 833 l 101 833 l 101 722 l 214 722 l 214 825 l 307 825 l 307 722 z m 8 722 l 8 833 l -94 833 l -94 936 l -206 936 l -206 825 l -103 825 l -103 722 z "},"Ổ":{"ha":633,"x_min":0,"x_max":0,"o":"m 475 0 l 475 103 l 578 103 l 578 729 l 475 729 l 475 832 l 158 832 l 158 729 l 56 729 l 56 103 l 158 103 l 158 0 z m 465 113 l 167 113 l 167 719 l 465 719 z m 679 928 l 679 1031 l 782 1031 l 782 1142 l 679 1142 l 679 1244 l 464 1244 l 464 1133 l 669 1133 l 669 1039 l 567 1039 l 567 928 z m 474 928 l 474 1039 l 371 1039 l 371 1142 l 260 1142 l 260 1039 l 157 1039 l 157 928 l 268 928 l 268 1031 l 361 1031 l 361 928 z "},"ổ":{"ha":518,"x_min":0,"x_max":0,"o":"m 367 0 l 367 103 l 469 103 l 469 524 l 367 524 l 367 626 l 151 626 l 151 524 l 49 524 l 49 103 l 151 103 l 151 0 z m 357 113 l 161 113 l 161 514 l 357 514 z m 617 722 l 617 825 l 719 825 l 719 936 l 617 936 l 617 1039 l 401 1039 l 401 928 l 607 928 l 607 833 l 504 833 l 504 722 z m 411 722 l 411 833 l 308 833 l 308 936 l 197 936 l 197 833 l 94 833 l 94 722 l 206 722 l 206 825 l 299 825 l 299 722 z "},"Ỗ":{"ha":633,"x_min":0,"x_max":0,"o":"m 475 0 l 475 103 l 578 103 l 578 729 l 475 729 l 475 832 l 158 832 l 158 729 l 56 729 l 56 103 l 158 103 l 158 0 z m 465 113 l 167 113 l 167 719 l 465 719 z m 475 928 l 475 1039 l 372 1039 l 372 1142 l 261 1142 l 261 1039 l 158 1039 l 158 928 l 269 928 l 269 1031 l 363 1031 l 363 928 z m 475 1236 l 475 1347 l 158 1347 l 158 1236 z "},"ỗ":{"ha":518,"x_min":0,"x_max":0,"o":"m 367 0 l 367 103 l 469 103 l 469 524 l 367 524 l 367 626 l 151 626 l 151 524 l 49 524 l 49 103 l 151 103 l 151 0 z m 357 113 l 161 113 l 161 514 l 357 514 z m 417 722 l 417 833 l 314 833 l 314 936 l 203 936 l 203 833 l 100 833 l 100 722 l 211 722 l 211 825 l 304 825 l 304 722 z m 417 1031 l 417 1142 l 100 1142 l 100 1031 z "},"Ộ":{"ha":633,"x_min":0,"x_max":0,"o":"m 475 0 l 475 103 l 578 103 l 578 729 l 475 729 l 475 832 l 158 832 l 158 729 l 56 729 l 56 103 l 158 103 l 158 0 z m 465 113 l 167 113 l 167 719 l 465 719 z m 475 928 l 475 1039 l 372 1039 l 372 1142 l 261 1142 l 261 1039 l 158 1039 l 158 928 l 269 928 l 269 1031 l 363 1031 l 363 928 z m 372 -282 l 372 -171 l 261 -171 l 261 -282 z "},"ộ":{"ha":518,"x_min":0,"x_max":0,"o":"m 367 0 l 367 103 l 469 103 l 469 524 l 367 524 l 367 626 l 151 626 l 151 524 l 49 524 l 49 103 l 151 103 l 151 0 z m 357 113 l 161 113 l 161 514 l 357 514 z m 417 722 l 417 833 l 314 833 l 314 936 l 203 936 l 203 833 l 100 833 l 100 722 l 211 722 l 211 825 l 304 825 l 304 722 z m 314 -282 l 314 -171 l 203 -171 l 203 -282 z "},"Ớ":{"ha":760,"x_min":0,"x_max":0,"o":"m 475 0 l 475 103 l 578 103 l 578 719 l 681 719 l 681 822 l 783 822 l 783 935 l 671 935 l 671 832 l 568 832 l 568 729 l 475 729 l 475 832 l 158 832 l 158 729 l 56 729 l 56 103 l 158 103 l 158 0 z m 465 113 l 167 113 l 167 719 l 465 719 z m 326 928 l 326 1031 l 429 1031 l 429 1142 l 318 1142 l 318 1039 l 215 1039 l 215 928 z "},"ớ":{"ha":657,"x_min":0,"x_max":0,"o":"m 372 0 l 372 103 l 475 103 l 475 514 l 578 514 l 578 617 l 681 617 l 681 729 l 568 729 l 568 626 l 465 626 l 465 524 l 372 524 l 372 626 l 158 626 l 158 524 l 56 524 l 56 103 l 158 103 l 158 0 z m 363 113 l 167 113 l 167 514 l 363 514 z m 267 722 l 267 825 l 369 825 l 369 936 l 258 936 l 258 833 l 156 833 l 156 722 z "},"Ờ":{"ha":760,"x_min":0,"x_max":0,"o":"m 475 0 l 475 103 l 578 103 l 578 719 l 681 719 l 681 822 l 783 822 l 783 935 l 671 935 l 671 832 l 568 832 l 568 729 l 475 729 l 475 832 l 158 832 l 158 729 l 56 729 l 56 103 l 158 103 l 158 0 z m 465 113 l 167 113 l 167 719 l 465 719 z m 429 928 l 429 1039 l 326 1039 l 326 1142 l 215 1142 l 215 1031 l 318 1031 l 318 928 z "},"ờ":{"ha":657,"x_min":0,"x_max":0,"o":"m 372 0 l 372 103 l 475 103 l 475 514 l 578 514 l 578 617 l 681 617 l 681 729 l 568 729 l 568 626 l 465 626 l 465 524 l 372 524 l 372 626 l 158 626 l 158 524 l 56 524 l 56 103 l 158 103 l 158 0 z m 363 113 l 167 113 l 167 514 l 363 514 z m 372 722 l 372 833 l 269 833 l 269 936 l 158 936 l 158 825 l 261 825 l 261 722 z "},"Ở":{"ha":760,"x_min":0,"x_max":0,"o":"m 475 0 l 475 103 l 578 103 l 578 719 l 681 719 l 681 822 l 783 822 l 783 935 l 671 935 l 671 832 l 568 832 l 568 729 l 475 729 l 475 832 l 158 832 l 158 729 l 56 729 l 56 103 l 158 103 l 158 0 z m 465 113 l 167 113 l 167 719 l 465 719 z m 372 928 l 372 1031 l 475 1031 l 475 1142 l 372 1142 l 372 1244 l 158 1244 l 158 1133 l 363 1133 l 363 1039 l 261 1039 l 261 928 z "},"ở":{"ha":657,"x_min":0,"x_max":0,"o":"m 372 0 l 372 103 l 475 103 l 475 514 l 578 514 l 578 617 l 681 617 l 681 729 l 568 729 l 568 626 l 465 626 l 465 524 l 372 524 l 372 626 l 158 626 l 158 524 l 56 524 l 56 103 l 158 103 l 158 0 z m 363 113 l 167 113 l 167 514 l 363 514 z m 317 722 l 317 825 l 419 825 l 419 936 l 317 936 l 317 1039 l 103 1039 l 103 928 l 307 928 l 307 833 l 206 833 l 206 722 z "},"Ỡ":{"ha":760,"x_min":0,"x_max":0,"o":"m 475 0 l 475 103 l 578 103 l 578 719 l 681 719 l 681 822 l 783 822 l 783 935 l 671 935 l 671 832 l 568 832 l 568 729 l 475 729 l 475 832 l 158 832 l 158 729 l 56 729 l 56 103 l 158 103 l 158 0 z m 465 113 l 167 113 l 167 719 l 465 719 z m 431 928 l 431 1031 l 533 1031 l 533 1142 l 421 1142 l 421 1039 l 328 1039 l 328 1142 l 217 1142 l 217 1039 l 114 1039 l 114 928 l 225 928 l 225 1031 l 318 1031 l 318 928 z "},"ỡ":{"ha":657,"x_min":0,"x_max":0,"o":"m 372 0 l 372 103 l 475 103 l 475 514 l 578 514 l 578 617 l 681 617 l 681 729 l 568 729 l 568 626 l 465 626 l 465 524 l 372 524 l 372 626 l 158 626 l 158 524 l 56 524 l 56 103 l 158 103 l 158 0 z m 363 113 l 167 113 l 167 514 l 363 514 z m 376 722 l 376 825 l 479 825 l 479 936 l 367 936 l 367 833 l 274 833 l 274 936 l 163 936 l 163 833 l 60 833 l 60 722 l 171 722 l 171 825 l 264 825 l 264 722 z "},"Ợ":{"ha":760,"x_min":0,"x_max":0,"o":"m 475 0 l 475 103 l 578 103 l 578 719 l 681 719 l 681 822 l 783 822 l 783 935 l 671 935 l 671 832 l 568 832 l 568 729 l 475 729 l 475 832 l 158 832 l 158 729 l 56 729 l 56 103 l 158 103 l 158 0 z m 465 113 l 167 113 l 167 719 l 465 719 z m 372 -282 l 372 -171 l 261 -171 l 261 -282 z "},"ợ":{"ha":657,"x_min":0,"x_max":0,"o":"m 372 0 l 372 103 l 475 103 l 475 514 l 578 514 l 578 617 l 681 617 l 681 729 l 568 729 l 568 626 l 465 626 l 465 524 l 372 524 l 372 626 l 158 626 l 158 524 l 56 524 l 56 103 l 158 103 l 158 0 z m 363 113 l 167 113 l 167 514 l 363 514 z m 324 -282 l 324 -171 l 213 -171 l 213 -282 z "},"Ụ":{"ha":633,"x_min":0,"x_max":0,"o":"m 475 0 l 475 103 l 578 103 l 578 832 l 465 832 l 465 113 l 167 113 l 167 832 l 56 832 l 56 103 l 158 103 l 158 0 z m 372 -282 l 372 -171 l 261 -171 l 261 -282 z "},"ụ":{"ha":525,"x_min":0,"x_max":0,"o":"m 469 0 l 469 626 l 357 626 l 357 113 l 161 113 l 161 626 l 49 626 l 49 103 l 151 103 l 151 0 z m 318 -282 l 318 -171 l 207 -171 l 207 -282 z "},"Ủ":{"ha":633,"x_min":0,"x_max":0,"o":"m 475 0 l 475 103 l 578 103 l 578 832 l 465 832 l 465 113 l 167 113 l 167 832 l 56 832 l 56 103 l 158 103 l 158 0 z m 372 928 l 372 1031 l 475 1031 l 475 1142 l 372 1142 l 372 1244 l 158 1244 l 158 1133 l 363 1133 l 363 1039 l 261 1039 l 261 928 z "},"ủ":{"ha":525,"x_min":0,"x_max":0,"o":"m 469 0 l 469 626 l 357 626 l 357 113 l 161 113 l 161 626 l 49 626 l 49 103 l 151 103 l 151 0 z m 318 722 l 318 825 l 421 825 l 421 936 l 318 936 l 318 1039 l 104 1039 l 104 928 l 308 928 l 308 833 l 207 833 l 207 722 z "},"Ứ":{"ha":756,"x_min":0,"x_max":0,"o":"m 475 0 l 475 103 l 578 103 l 578 719 l 681 719 l 681 822 l 783 822 l 783 935 l 671 935 l 671 832 l 465 832 l 465 113 l 167 113 l 167 832 l 56 832 l 56 103 l 158 103 l 158 0 z m 322 928 l 322 1031 l 425 1031 l 425 1142 l 314 1142 l 314 1039 l 211 1039 l 211 928 z "},"ứ":{"ha":660,"x_min":0,"x_max":0,"o":"m 475 0 l 475 514 l 578 514 l 578 617 l 681 617 l 681 729 l 568 729 l 568 626 l 363 626 l 363 113 l 167 113 l 167 626 l 56 626 l 56 103 l 158 103 l 158 0 z m 275 722 l 275 825 l 378 825 l 378 936 l 267 936 l 267 833 l 164 833 l 164 722 z "},"Ừ":{"ha":756,"x_min":0,"x_max":0,"o":"m 475 0 l 475 103 l 578 103 l 578 719 l 681 719 l 681 822 l 783 822 l 783 935 l 671 935 l 671 832 l 465 832 l 465 113 l 167 113 l 167 832 l 56 832 l 56 103 l 158 103 l 158 0 z m 426 928 l 426 1039 l 324 1039 l 324 1142 l 213 1142 l 213 1031 l 315 1031 l 315 928 z "},"ừ":{"ha":660,"x_min":0,"x_max":0,"o":"m 475 0 l 475 514 l 578 514 l 578 617 l 681 617 l 681 729 l 568 729 l 568 626 l 363 626 l 363 113 l 167 113 l 167 626 l 56 626 l 56 103 l 158 103 l 158 0 z m 375 722 l 375 833 l 272 833 l 272 936 l 161 936 l 161 825 l 264 825 l 264 722 z "},"Ử":{"ha":756,"x_min":0,"x_max":0,"o":"m 475 0 l 475 103 l 578 103 l 578 719 l 681 719 l 681 822 l 783 822 l 783 935 l 671 935 l 671 832 l 465 832 l 465 113 l 167 113 l 167 832 l 56 832 l 56 103 l 158 103 l 158 0 z m 372 928 l 372 1031 l 475 1031 l 475 1142 l 372 1142 l 372 1244 l 158 1244 l 158 1133 l 363 1133 l 363 1039 l 261 1039 l 261 928 z "},"ử":{"ha":660,"x_min":0,"x_max":0,"o":"m 475 0 l 475 514 l 578 514 l 578 617 l 681 617 l 681 729 l 568 729 l 568 626 l 363 626 l 363 113 l 167 113 l 167 626 l 56 626 l 56 103 l 158 103 l 158 0 z m 322 722 l 322 825 l 425 825 l 425 936 l 322 936 l 322 1039 l 108 1039 l 108 928 l 313 928 l 313 833 l 211 833 l 211 722 z "},"Ữ":{"ha":756,"x_min":0,"x_max":0,"o":"m 475 0 l 475 103 l 578 103 l 578 719 l 681 719 l 681 822 l 783 822 l 783 935 l 671 935 l 671 832 l 465 832 l 465 113 l 167 113 l 167 832 l 56 832 l 56 103 l 158 103 l 158 0 z m 424 928 l 424 1031 l 526 1031 l 526 1142 l 414 1142 l 414 1039 l 321 1039 l 321 1142 l 210 1142 l 210 1039 l 107 1039 l 107 928 l 218 928 l 218 1031 l 311 1031 l 311 928 z "},"ữ":{"ha":660,"x_min":0,"x_max":0,"o":"m 475 0 l 475 514 l 578 514 l 578 617 l 681 617 l 681 729 l 568 729 l 568 626 l 363 626 l 363 113 l 167 113 l 167 626 l 56 626 l 56 103 l 158 103 l 158 0 z m 369 722 l 369 825 l 472 825 l 472 936 l 360 936 l 360 833 l 267 833 l 267 936 l 156 936 l 156 833 l 53 833 l 53 722 l 164 722 l 164 825 l 257 825 l 257 722 z "},"Ự":{"ha":756,"x_min":0,"x_max":0,"o":"m 475 0 l 475 103 l 578 103 l 578 719 l 681 719 l 681 822 l 783 822 l 783 935 l 671 935 l 671 832 l 465 832 l 465 113 l 167 113 l 167 832 l 56 832 l 56 103 l 158 103 l 158 0 z m 376 -282 l 376 -171 l 265 -171 l 265 -282 z "},"ự":{"ha":660,"x_min":0,"x_max":0,"o":"m 475 0 l 475 514 l 578 514 l 578 617 l 681 617 l 681 729 l 568 729 l 568 626 l 363 626 l 363 113 l 167 113 l 167 626 l 56 626 l 56 103 l 158 103 l 158 0 z m 322 -282 l 322 -171 l 211 -171 l 211 -282 z "},"Ỳ":{"ha":633,"x_min":0,"x_max":0,"o":"m 372 0 l 372 514 l 475 514 l 475 719 l 578 719 l 578 832 l 465 832 l 465 729 l 363 729 l 363 524 l 269 524 l 269 729 l 167 729 l 167 832 l 56 832 l 56 719 l 158 719 l 158 514 l 260 514 l 260 0 z m 424 928 l 424 1039 l 321 1039 l 321 1142 l 210 1142 l 210 1031 l 313 1031 l 313 928 z "},"ỳ":{"ha":525,"x_min":0,"x_max":0,"o":"m 367 -308 l 367 -206 l 469 -206 l 469 626 l 357 626 l 357 113 l 161 113 l 161 626 l 49 626 l 49 103 l 151 103 l 151 0 l 357 0 l 357 -196 l 161 -196 l 161 -93 l 49 -93 l 49 -206 l 151 -206 l 151 -308 z m 369 722 l 369 833 l 267 833 l 267 936 l 156 936 l 156 825 l 258 825 l 258 722 z "},"–":{"ha":593,"x_min":0,"x_max":0,"o":"m 558 308 l 558 421 l 35 421 l 35 308 z "},"—":{"ha":799,"x_min":0,"x_max":0,"o":"m 764 308 l 764 421 l 35 421 l 35 308 z "},"‘":{"ha":300,"x_min":0,"x_max":0,"o":"m 258 617 l 258 729 l 156 729 l 156 935 l 43 935 l 43 719 l 146 719 l 146 617 z "},"’":{"ha":300,"x_min":0,"x_max":0,"o":"m 156 617 l 156 719 l 258 719 l 258 935 l 146 935 l 146 729 l 43 729 l 43 617 z "},"‚":{"ha":300,"x_min":0,"x_max":0,"o":"m 156 -103 l 156 0 l 258 0 l 258 215 l 146 215 l 146 10 l 43 10 l 43 -103 z "},"“":{"ha":600,"x_min":0,"x_max":0,"o":"m 258 617 l 258 729 l 156 729 l 156 935 l 43 935 l 43 719 l 146 719 l 146 617 z m 558 617 l 558 729 l 456 729 l 456 935 l 343 935 l 343 719 l 446 719 l 446 617 z "},"”":{"ha":600,"x_min":0,"x_max":0,"o":"m 156 617 l 156 719 l 258 719 l 258 935 l 146 935 l 146 729 l 43 729 l 43 617 z m 456 617 l 456 719 l 558 719 l 558 935 l 446 935 l 446 729 l 343 729 l 343 617 z "},"„":{"ha":600,"x_min":0,"x_max":0,"o":"m 156 -103 l 156 0 l 258 0 l 258 215 l 146 215 l 146 10 l 43 10 l 43 -103 z m 456 -103 l 456 0 l 558 0 l 558 215 l 446 215 l 446 10 l 343 10 l 343 -103 z "},"†":{"ha":633,"x_min":0,"x_max":0,"o":"m 372 0 l 372 514 l 578 514 l 578 626 l 372 626 l 372 832 l 260 832 l 260 626 l 56 626 l 56 514 l 260 514 l 260 0 z "},"‡":{"ha":633,"x_min":0,"x_max":0,"o":"m 372 0 l 372 206 l 578 206 l 578 318 l 372 318 l 372 514 l 578 514 l 578 626 l 372 626 l 372 832 l 260 832 l 260 626 l 56 626 l 56 514 l 260 514 l 260 318 l 56 318 l 56 206 l 260 206 l 260 0 z "},"•":{"ha":531,"x_min":0,"x_max":0,"o":"m 372 206 l 372 308 l 475 308 l 475 524 l 372 524 l 372 626 l 158 626 l 158 524 l 56 524 l 56 308 l 158 308 l 158 206 z "},"…":{"ha":1036,"x_min":0,"x_max":0,"o":"m 167 0 l 167 113 l 56 113 l 56 0 z m 564 0 l 564 113 l 451 113 l 451 0 z m 960 0 l 960 113 l 849 113 l 849 0 z "},"‰":{"ha":1147,"x_min":0,"x_max":0,"o":"m 989 0 l 989 103 l 1092 103 l 1092 318 l 989 318 l 989 421 l 876 421 l 876 318 l 783 318 l 783 421 l 671 421 l 671 318 l 568 318 l 568 103 l 671 103 l 671 0 l 783 0 l 783 103 l 876 103 l 876 0 z m 372 0 l 372 206 l 475 206 l 475 411 l 578 411 l 578 617 l 681 617 l 681 832 l 568 832 l 568 626 l 465 626 l 465 421 l 363 421 l 363 215 l 260 215 l 260 0 z m 269 411 l 269 514 l 372 514 l 372 729 l 269 729 l 269 832 l 158 832 l 158 729 l 56 729 l 56 514 l 158 514 l 158 411 z m 774 113 l 681 113 l 681 308 l 774 308 z m 260 524 l 167 524 l 167 719 l 260 719 z m 979 113 l 886 113 l 886 308 l 979 308 z "},"‹":{"ha":388,"x_min":0,"x_max":0,"o":"m 353 103 l 353 215 l 250 215 l 250 318 l 147 318 l 147 411 l 250 411 l 250 514 l 353 514 l 353 626 l 240 626 l 240 524 l 138 524 l 138 421 l 35 421 l 35 308 l 138 308 l 138 206 l 240 206 l 240 103 z "},"›":{"ha":388,"x_min":0,"x_max":0,"o":"m 147 103 l 147 206 l 250 206 l 250 308 l 353 308 l 353 421 l 250 421 l 250 524 l 147 524 l 147 626 l 35 626 l 35 514 l 138 514 l 138 411 l 240 411 l 240 318 l 138 318 l 138 215 l 35 215 l 35 103 z "},"⁄":{"ha":206,"x_min":0,"x_max":0,"o":"m 4 0 l 4 206 l 107 206 l 107 411 l 210 411 l 210 617 l 313 617 l 313 832 l 200 832 l 200 626 l 99 626 l 99 421 l -4 421 l -4 215 l -107 215 l -107 0 z "},"⁰":{"ha":447,"x_min":0,"x_max":0,"o":"m 308 374 l 308 456 l 392 456 l 392 793 l 308 793 l 308 875 l 138 875 l 138 793 l 56 793 l 56 456 l 138 456 l 138 374 z m 301 464 l 144 464 l 144 785 l 301 785 z "},"⁴":{"ha":529,"x_min":0,"x_max":0,"o":"m 392 374 l 392 526 l 474 526 l 474 617 l 392 617 l 392 875 l 301 875 l 301 793 l 219 793 l 219 710 l 138 710 l 138 617 l 56 617 l 56 526 l 301 526 l 301 374 z m 301 617 l 226 617 l 226 703 l 301 703 z "},"⁵":{"ha":447,"x_min":0,"x_max":0,"o":"m 308 374 l 308 456 l 392 456 l 392 628 l 308 628 l 308 710 l 144 710 l 144 785 l 392 785 l 392 875 l 56 875 l 56 621 l 301 621 l 301 464 l 144 464 l 144 546 l 56 546 l 56 456 l 138 456 l 138 374 z "},"⁶":{"ha":447,"x_min":0,"x_max":0,"o":"m 392 456 l 392 628 l 308 628 l 308 710 l 144 710 l 144 785 l 308 785 l 308 875 l 138 875 l 138 793 l 56 793 l 56 456 l 138 456 l 138 374 l 308 374 l 308 456 z m 301 464 l 144 464 l 144 621 l 301 621 z "},"⁷":{"ha":447,"x_min":0,"x_max":0,"o":"m 226 374 l 226 621 l 308 621 l 308 703 l 392 703 l 392 875 l 56 875 l 56 785 l 301 785 l 301 710 l 219 710 l 219 628 l 138 628 l 138 374 z "},"⁸":{"ha":447,"x_min":0,"x_max":0,"o":"m 308 374 l 308 456 l 392 456 l 392 599 l 308 599 l 308 672 l 392 672 l 392 793 l 308 793 l 308 875 l 138 875 l 138 793 l 56 793 l 56 672 l 138 672 l 138 599 l 56 599 l 56 456 l 138 456 l 138 374 z m 301 464 l 144 464 l 144 590 l 301 590 z m 301 681 l 144 681 l 144 785 l 301 785 z "},"⁹":{"ha":447,"x_min":0,"x_max":0,"o":"m 308 374 l 308 456 l 392 456 l 392 793 l 308 793 l 308 875 l 138 875 l 138 793 l 56 793 l 56 651 l 138 651 l 138 569 l 301 569 l 301 464 l 139 464 l 139 546 l 56 546 l 56 456 l 138 456 l 138 374 z m 301 660 l 144 660 l 144 785 l 301 785 z "},"₀":{"ha":447,"x_min":0,"x_max":0,"o":"m 308 -50 l 308 32 l 392 32 l 392 369 l 308 369 l 308 451 l 138 451 l 138 369 l 56 369 l 56 32 l 138 32 l 138 -50 z m 301 40 l 144 40 l 144 361 l 301 361 z "},"₁":{"ha":282,"x_min":0,"x_max":0,"o":"m 226 -50 l 226 451 l 138 451 l 138 369 l 56 369 l 56 279 l 138 279 l 138 -50 z "},"₂":{"ha":447,"x_min":0,"x_max":0,"o":"m 392 -50 l 392 40 l 144 40 l 144 114 l 226 114 l 226 197 l 308 197 l 308 279 l 392 279 l 392 369 l 308 369 l 308 451 l 138 451 l 138 369 l 56 369 l 56 279 l 144 279 l 144 361 l 301 361 l 301 286 l 219 286 l 219 204 l 138 204 l 138 122 l 56 122 l 56 -50 z "},"₃":{"ha":447,"x_min":0,"x_max":0,"o":"m 308 -50 l 308 32 l 392 32 l 392 168 l 308 168 l 308 242 l 392 242 l 392 369 l 308 369 l 308 453 l 138 453 l 138 369 l 56 369 l 56 281 l 144 281 l 144 363 l 301 363 l 301 250 l 210 250 l 210 160 l 301 160 l 301 40 l 144 40 l 144 122 l 56 122 l 56 32 l 138 32 l 138 -50 z "},"₄":{"ha":529,"x_min":0,"x_max":0,"o":"m 392 -50 l 392 103 l 474 103 l 474 193 l 392 193 l 392 451 l 301 451 l 301 369 l 219 369 l 219 286 l 138 286 l 138 193 l 56 193 l 56 103 l 301 103 l 301 -50 z m 301 193 l 226 193 l 226 279 l 301 279 z "},"₅":{"ha":447,"x_min":0,"x_max":0,"o":"m 308 -50 l 308 32 l 392 32 l 392 204 l 308 204 l 308 286 l 144 286 l 144 361 l 392 361 l 392 451 l 56 451 l 56 197 l 301 197 l 301 40 l 144 40 l 144 122 l 56 122 l 56 32 l 138 32 l 138 -50 z "},"₆":{"ha":447,"x_min":0,"x_max":0,"o":"m 392 32 l 392 204 l 308 204 l 308 286 l 144 286 l 144 361 l 308 361 l 308 451 l 138 451 l 138 369 l 56 369 l 56 32 l 138 32 l 138 -50 l 308 -50 l 308 32 z m 301 40 l 144 40 l 144 197 l 301 197 z "},"₇":{"ha":447,"x_min":0,"x_max":0,"o":"m 226 -50 l 226 197 l 308 197 l 308 279 l 392 279 l 392 451 l 56 451 l 56 361 l 301 361 l 301 286 l 219 286 l 219 204 l 138 204 l 138 -50 z "},"₈":{"ha":447,"x_min":0,"x_max":0,"o":"m 308 -50 l 308 32 l 392 32 l 392 175 l 308 175 l 308 249 l 392 249 l 392 369 l 308 369 l 308 451 l 138 451 l 138 369 l 56 369 l 56 249 l 138 249 l 138 175 l 56 175 l 56 32 l 138 32 l 138 -50 z m 301 40 l 144 40 l 144 167 l 301 167 z m 301 257 l 144 257 l 144 361 l 301 361 z "},"₉":{"ha":447,"x_min":0,"x_max":0,"o":"m 308 -50 l 308 32 l 392 32 l 392 369 l 308 369 l 308 451 l 138 451 l 138 369 l 56 369 l 56 228 l 138 228 l 138 146 l 301 146 l 301 40 l 139 40 l 139 122 l 56 122 l 56 32 l 138 32 l 138 -50 z m 301 236 l 144 236 l 144 361 l 301 361 z "},"₫":{"ha":608,"x_min":0,"x_max":0,"o":"m 488 103 l 488 617 l 590 617 l 590 729 l 488 729 l 488 832 l 375 832 l 375 729 l 272 729 l 272 617 l 375 617 l 375 524 l 169 524 l 169 421 l 56 421 l 56 206 l 169 206 l 169 103 z m 488 -103 l 488 10 l 67 10 l 67 -103 z m 375 215 l 179 215 l 179 411 l 375 411 z "},"€":{"ha":614,"x_min":0,"x_max":0,"o":"m 558 0 l 558 113 l 251 113 l 251 308 l 354 308 l 354 421 l 251 421 l 251 514 l 457 514 l 457 626 l 251 626 l 251 719 l 558 719 l 558 832 l 242 832 l 242 729 l 139 729 l 139 626 l 36 626 l 36 514 l 139 514 l 139 421 l 36 421 l 36 308 l 139 308 l 139 103 l 242 103 l 242 0 z "},"℗":{"ha":839,"x_min":0,"x_max":0,"o":"m 681 0 l 681 103 l 783 103 l 783 729 l 681 729 l 681 832 l 158 832 l 158 729 l 56 729 l 56 103 l 158 103 l 158 0 z m 671 113 l 167 113 l 167 719 l 671 719 z m 578 411 l 578 524 l 475 524 l 475 626 l 260 626 l 260 206 l 372 206 l 372 308 l 475 308 l 475 411 z m 465 421 l 372 421 l 372 514 l 465 514 z "},"™":{"ha":1044,"x_min":0,"x_max":0,"o":"m 989 411 l 989 832 l 774 832 l 774 729 l 681 729 l 681 832 l 465 832 l 465 411 l 578 411 l 578 719 l 671 719 l 671 411 l 783 411 l 783 719 l 876 719 l 876 411 z m 269 411 l 269 719 l 372 719 l 372 832 l 56 832 l 56 719 l 158 719 l 158 411 z "},"Ω":{"ha":633,"x_min":0,"x_max":0,"o":"m 578 0 l 578 113 l 475 113 l 475 308 l 578 308 l 578 729 l 475 729 l 475 832 l 158 832 l 158 729 l 56 729 l 56 308 l 158 308 l 158 113 l 56 113 l 56 0 l 269 0 l 269 318 l 167 318 l 167 719 l 465 719 l 465 318 l 363 318 l 363 0 z "},"⅓":{"ha":1004,"x_min":0,"x_max":0,"o":"m 356 0 l 356 206 l 458 206 l 458 411 l 561 411 l 561 617 l 664 617 l 664 832 l 551 832 l 551 626 l 450 626 l 450 421 l 347 421 l 347 215 l 244 215 l 244 0 z m 865 -50 l 865 32 l 949 32 l 949 168 l 865 168 l 865 242 l 949 242 l 949 369 l 865 369 l 865 453 l 694 453 l 694 369 l 613 369 l 613 281 l 701 281 l 701 363 l 858 363 l 858 250 l 767 250 l 767 160 l 858 160 l 858 40 l 701 40 l 701 122 l 613 122 l 613 32 l 694 32 l 694 -50 z m 226 374 l 226 875 l 138 875 l 138 793 l 56 793 l 56 703 l 138 703 l 138 374 z "},"⅔":{"ha":1100,"x_min":0,"x_max":0,"o":"m 451 0 l 451 206 l 554 206 l 554 411 l 657 411 l 657 617 l 760 617 l 760 832 l 647 832 l 647 626 l 546 626 l 546 421 l 443 421 l 443 215 l 340 215 l 340 0 z m 961 -50 l 961 32 l 1044 32 l 1044 168 l 961 168 l 961 242 l 1044 242 l 1044 369 l 961 369 l 961 453 l 790 453 l 790 369 l 708 369 l 708 281 l 797 281 l 797 363 l 954 363 l 954 250 l 863 250 l 863 160 l 954 160 l 954 40 l 797 40 l 797 122 l 708 122 l 708 32 l 790 32 l 790 -50 z m 392 374 l 392 464 l 144 464 l 144 538 l 226 538 l 226 621 l 308 621 l 308 703 l 392 703 l 392 793 l 308 793 l 308 875 l 138 875 l 138 793 l 56 793 l 56 703 l 144 703 l 144 785 l 301 785 l 301 710 l 219 710 l 219 628 l 138 628 l 138 546 l 56 546 l 56 374 z "},"⅛":{"ha":1004,"x_min":0,"x_max":0,"o":"m 226 374 l 226 875 l 138 875 l 138 793 l 56 793 l 56 703 l 138 703 l 138 374 z m 356 0 l 356 206 l 458 206 l 458 411 l 561 411 l 561 617 l 664 617 l 664 832 l 551 832 l 551 626 l 450 626 l 450 421 l 347 421 l 347 215 l 244 215 l 244 0 z m 865 -50 l 865 32 l 949 32 l 949 175 l 865 175 l 865 249 l 949 249 l 949 369 l 865 369 l 865 451 l 694 451 l 694 369 l 613 369 l 613 249 l 694 249 l 694 175 l 613 175 l 613 32 l 694 32 l 694 -50 z m 858 40 l 701 40 l 701 167 l 858 167 z m 858 257 l 701 257 l 701 361 l 858 361 z "},"⅜":{"ha":1100,"x_min":0,"x_max":0,"o":"m 308 374 l 308 456 l 392 456 l 392 592 l 308 592 l 308 665 l 392 665 l 392 793 l 308 793 l 308 876 l 138 876 l 138 793 l 56 793 l 56 704 l 144 704 l 144 786 l 301 786 l 301 674 l 210 674 l 210 583 l 301 583 l 301 464 l 144 464 l 144 546 l 56 546 l 56 456 l 138 456 l 138 374 z m 451 0 l 451 206 l 554 206 l 554 411 l 657 411 l 657 617 l 760 617 l 760 832 l 647 832 l 647 626 l 546 626 l 546 421 l 443 421 l 443 215 l 340 215 l 340 0 z m 961 -50 l 961 32 l 1044 32 l 1044 175 l 961 175 l 961 249 l 1044 249 l 1044 369 l 961 369 l 961 451 l 790 451 l 790 369 l 708 369 l 708 249 l 790 249 l 790 175 l 708 175 l 708 32 l 790 32 l 790 -50 z m 954 40 l 797 40 l 797 167 l 954 167 z m 954 257 l 797 257 l 797 361 l 954 361 z "},"⅝":{"ha":1100,"x_min":0,"x_max":0,"o":"m 451 0 l 451 206 l 554 206 l 554 411 l 657 411 l 657 617 l 760 617 l 760 832 l 647 832 l 647 626 l 546 626 l 546 421 l 443 421 l 443 215 l 340 215 l 340 0 z m 961 -50 l 961 32 l 1044 32 l 1044 175 l 961 175 l 961 249 l 1044 249 l 1044 369 l 961 369 l 961 451 l 790 451 l 790 369 l 708 369 l 708 249 l 790 249 l 790 175 l 708 175 l 708 32 l 790 32 l 790 -50 z m 308 374 l 308 456 l 392 456 l 392 628 l 308 628 l 308 710 l 144 710 l 144 785 l 392 785 l 392 875 l 56 875 l 56 621 l 301 621 l 301 464 l 144 464 l 144 546 l 56 546 l 56 456 l 138 456 l 138 374 z m 954 40 l 797 40 l 797 167 l 954 167 z m 954 257 l 797 257 l 797 361 l 954 361 z "},"⅞":{"ha":1031,"x_min":0,"x_max":0,"o":"m 226 374 l 226 621 l 308 621 l 308 703 l 392 703 l 392 875 l 56 875 l 56 785 l 301 785 l 301 710 l 219 710 l 219 628 l 138 628 l 138 374 z m 382 0 l 382 206 l 485 206 l 485 411 l 588 411 l 588 617 l 690 617 l 690 832 l 578 832 l 578 626 l 476 626 l 476 421 l 374 421 l 374 215 l 271 215 l 271 0 z m 892 -50 l 892 32 l 975 32 l 975 175 l 892 175 l 892 249 l 975 249 l 975 369 l 892 369 l 892 451 l 721 451 l 721 369 l 639 369 l 639 249 l 721 249 l 721 175 l 639 175 l 639 32 l 721 32 l 721 -50 z m 885 40 l 728 40 l 728 167 l 885 167 z m 885 257 l 728 257 l 728 361 l 885 361 z "},"∂":{"ha":531,"x_min":0,"x_max":0,"o":"m 269 0 l 269 103 l 372 103 l 372 206 l 475 206 l 475 729 l 372 729 l 372 832 l 158 832 l 158 729 l 56 729 l 56 617 l 167 617 l 167 719 l 363 719 l 363 524 l 158 524 l 158 421 l 56 421 l 56 103 l 158 103 l 158 0 z m 363 215 l 260 215 l 260 113 l 167 113 l 167 411 l 363 411 z "},"∆":{"ha":736,"x_min":0,"x_max":0,"o":"m 681 0 l 681 318 l 578 318 l 578 626 l 475 626 l 475 832 l 260 832 l 260 626 l 158 626 l 158 318 l 56 318 l 56 0 z m 568 113 l 167 113 l 167 308 l 269 308 l 269 617 l 465 617 l 465 308 l 568 308 z "},"∏":{"ha":633,"x_min":0,"x_max":0,"o":"m 578 -206 l 578 832 l 56 832 l 56 -206 l 167 -206 l 167 719 l 465 719 l 465 -206 z "},"∑":{"ha":633,"x_min":0,"x_max":0,"o":"m 578 -103 l 578 10 l 167 10 l 167 103 l 269 103 l 269 206 l 372 206 l 372 308 l 475 308 l 475 421 l 372 421 l 372 524 l 269 524 l 269 626 l 167 626 l 167 719 l 578 719 l 578 832 l 56 832 l 56 617 l 158 617 l 158 514 l 260 514 l 260 411 l 363 411 l 363 318 l 260 318 l 260 215 l 158 215 l 158 113 l 56 113 l 56 -103 z "},"−":{"ha":633,"x_min":0,"x_max":0,"o":"m 578 308 l 578 421 l 56 421 l 56 308 z "},"√":{"ha":839,"x_min":0,"x_max":0,"o":"m 578 119 l 578 308 l 681 308 l 681 514 l 783 514 l 783 832 l 671 832 l 671 524 l 568 524 l 568 318 l 465 318 l 465 119 z m 475 0 l 475 113 l 372 113 l 372 318 l 269 318 l 269 421 l 56 421 l 56 308 l 260 308 l 260 103 l 363 103 l 363 0 z "},"∞":{"ha":839,"x_min":0,"x_max":0,"o":"m 681 103 l 681 206 l 783 206 l 783 524 l 681 524 l 681 626 l 465 626 l 465 524 l 372 524 l 372 626 l 158 626 l 158 524 l 56 524 l 56 206 l 158 206 l 158 103 l 372 103 l 372 206 l 465 206 l 465 103 z m 363 215 l 167 215 l 167 514 l 363 514 z m 671 215 l 475 215 l 475 514 l 671 514 z "},"∫":{"ha":428,"x_min":0,"x_max":0,"o":"m 167 -308 l 167 -206 l 269 -206 l 269 925 l 372 925 l 372 1036 l 260 1036 l 260 935 l 158 935 l 158 -196 l 56 -196 l 56 -308 z "},"≈":{"ha":633,"x_min":0,"x_max":0,"o":"m 475 513 l 475 615 l 578 615 l 578 728 l 465 728 l 465 625 l 372 625 l 372 728 l 158 728 l 158 625 l 56 625 l 56 513 l 167 513 l 167 615 l 260 615 l 260 513 z m 475 103 l 475 206 l 578 206 l 578 318 l 465 318 l 465 215 l 372 215 l 372 318 l 158 318 l 158 215 l 56 215 l 56 103 l 167 103 l 167 206 l 260 206 l 260 103 z "},"≠":{"ha":633,"x_min":0,"x_max":0,"o":"m 578 206 l 578 318 l 372 318 l 372 411 l 578 411 l 578 524 l 475 524 l 475 729 l 363 729 l 363 524 l 56 524 l 56 411 l 260 411 l 260 318 l 56 318 l 56 206 l 158 206 l 158 0 l 269 0 l 269 206 z "},"≤":{"ha":633,"x_min":0,"x_max":0,"o":"m 476 103 l 476 215 l 374 215 l 374 318 l 271 318 l 271 411 l 374 411 l 374 514 l 476 514 l 476 626 l 364 626 l 364 524 l 261 524 l 261 421 l 158 421 l 158 308 l 261 308 l 261 206 l 364 206 l 364 103 z m 578 -103 l 578 10 l 56 10 l 56 -103 z "},"≥":{"ha":633,"x_min":0,"x_max":0,"o":"m 269 103 l 269 206 l 371 206 l 371 308 l 474 308 l 474 421 l 371 421 l 371 524 l 269 524 l 269 626 l 157 626 l 157 514 l 260 514 l 260 411 l 363 411 l 363 318 l 260 318 l 260 215 l 157 215 l 157 103 z m 578 -103 l 578 10 l 56 10 l 56 -103 z "},"⋅":{"ha":222,"x_min":0,"x_max":0,"o":"m 167 308 l 167 421 l 56 421 l 56 308 z "},"╹":{"ha":325,"x_min":0,"x_max":0,"o":"m 269 308 l 269 524 l 56 524 l 56 308 z "},"◊":{"ha":633,"x_min":0,"x_max":0,"o":"m 372 103 l 372 206 l 475 206 l 475 308 l 578 308 l 578 421 l 475 421 l 475 524 l 372 524 l 372 626 l 260 626 l 260 524 l 158 524 l 158 421 l 56 421 l 56 308 l 158 308 l 158 206 l 260 206 l 260 103 z m 465 318 l 363 318 l 363 215 l 269 215 l 269 318 l 167 318 l 167 411 l 269 411 l 269 514 l 363 514 l 363 411 l 465 411 z "},"♪":{"ha":633,"x_min":0,"x_max":0,"o":"m 269 0 l 269 206 l 372 206 l 372 514 l 465 514 l 465 308 l 578 308 l 578 626 l 475 626 l 475 729 l 372 729 l 372 832 l 260 832 l 260 215 l 56 215 l 56 0 z "},"ﬁ":{"ha":646,"x_min":0,"x_max":0,"o":"m 269 0 l 269 514 l 372 514 l 372 626 l 269 626 l 269 719 l 372 719 l 372 832 l 260 832 l 260 729 l 158 729 l 158 626 l 56 626 l 56 514 l 158 514 l 158 0 z m 586 0 l 586 626 l 474 626 l 474 0 z m 586 719 l 586 832 l 474 832 l 474 719 z "},"ﬂ":{"ha":632,"x_min":0,"x_max":0,"o":"m 269 0 l 269 514 l 372 514 l 372 626 l 269 626 l 269 719 l 372 719 l 372 832 l 260 832 l 260 729 l 158 729 l 158 626 l 56 626 l 56 514 l 158 514 l 158 0 z m 576 0 l 576 832 l 465 832 l 465 0 z "}}}
